<?xml version="1.0" encoding="utf-8"?>
<!-- Generator: Adobe Illustrator 24.1.2, SVG Export Plug-In . SVG Version: 6.00 Build 0)  -->
<svg version="1.1" id="Layer_1" xmlns="http://www.w3.org/2000/svg" xmlns:xlink="http://www.w3.org/1999/xlink" x="0px" y="0px"
	 viewBox="0 0 810 810" style="enable-background:new 0 0 810 810;" xml:space="preserve">
<path d="M739.59,364.46c-0.29,2.79-0.88,5.29-1.76,7.64c-3.38-10.14-14.84-9.55-18.37,2.94c-5.29-13.08,2.06-31.45,11.17-30.57
	C736.51,345.06,740.62,354.17,739.59,364.46L739.59,364.46z M704.47,398.11c-2.2,2.2-14.11,0.15-15.87-2.65
	c-1.03-1.47,0.44-3.82,0.73-6.47c0.29-2.94,5.88-5.58,8.52-6.47l0,0c8.52,5.14,6.47,5.88,7.05,11.32
	C705.2,395.61,705.35,397.23,704.47,398.11L704.47,398.11z M687.86,352.11c-0.44,3.82-1.47,7.35-3.09,10.29
	c-3.38-10.43-13.82-10.14-17.93,1.18c-6.32-12.64,1.03-32.33,11.32-31.45C684.63,332.86,688.89,341.82,687.86,352.11L687.86,352.11z
	 M803.96,312.87c-45.27-10.73-57.32,9.99-104.2-5.44c-24.84-8.08-16.9-44.09-87-32.92c-3.38,0.59-4.26,5.44-2.06,7.64
	c9.41,9.11,15.28,18.37,19.25,29.54c-54.38-18.81-62.9,6.47-100.38,9.55c-46.59,3.97-88.91-23.22-131.24-37.77
	c-79.21-26.89-144.76,11.76-207.96,57.02c-35.27,18.08-124.33-1.91-121.83-52.91c1.18-27.78,35.12-62.75,64.22-61.14
	c38.8,2.35,1.91,47.76,25.72,58.79c18.08,8.38,35.71-22.49,37.18-36.15c6.17-58.05-64.67-99.5-114.63-84.06
	C15.34,185.45-21.25,285.54,34.89,335.36c39.97,35.42,96.85,33.95,144.03,52.03c33.07,12.64,37.18,42.62,53.35,69.81
	c5.44,9.11,18.52,20.72,22.63,30.13c11.61,27.04-28.81,40.42-22.49,49.09c29.54,40.56,65.84,80.39,109.2,106.55
	c18.37,11.02,53.64,7.35,43.21-21.75c-0.88-2.2-3.23-3.97-5.73-3.23c-27.48,8.67-44.97-24.1-45.41-47.32
	c-0.59-35.57,32.77-36.01,58.05-45.56c18.96-7.2,27.78-18.66,42.33-30.13c17.2,2.65,23.66,9.26,19.4,20.13
	c0.74,8.52-4.26,19.84-5.88,28.66c-5.29,28.36-13.52,66.28,9.99,89.94c19.69,19.99,81.42,3.67,65.4-17.49
	c-3.67-4.85-11.61-2.94-16.17-3.67c-7.35-1.03-7.94,2.35-13.37-3.67c-4.85-5.44-1.62-14.55-1.62-21.16
	c-0.15-19.84-2.06-38.21,3.23-58.05c2.65-9.7,7.79-29.83,17.93-35.27c29.54-15.87,28.95,21.31,29.54,33.21
	c1.76,29.83,5.88,58.05,19.25,85.39c0.73,1.32,2.5,2.35,3.97,2.2c9.55-0.44,72.16-11.9,38.65-30.86c-3.82-2.06-8.67-0.73-12.2-2.35
	c-23.96-11.32,10.43-33.95-21.02-106.4c43.21-1.18,58.64-55.85,92.88-51.59c6.32,0.88,19.4,17.34,51,10.73
	c20.72-4.26,37.62-18.81,45.41-38.36c1.62-4.12,2.35-8.52,3.82-12.64c10.73-32.04,29.83-35.71,42.47-64.08
	C807.93,316.99,807.2,313.61,803.96,312.87L803.96,312.87z"/>
</svg>
