<?xml version="1.0" encoding="utf-8"?>
<!-- Generator: Adobe Illustrator 24.1.2, SVG Export Plug-In . SVG Version: 6.00 Build 0)  -->
<svg version="1.1" id="Layer_1" xmlns="http://www.w3.org/2000/svg" xmlns:xlink="http://www.w3.org/1999/xlink" x="0px" y="0px"
	 viewBox="0 0 810 810" style="enable-background:new 0 0 810 810;" xml:space="preserve">
<path d="M683.76,373.15c-6.86,7.82-16.4,10.68-26.7,8.39c16.4-25.17-11.63-14.68-21.93-16.02c-0.95-3.05-1.72-6.29-2.1-9.54
	C655.53,346.84,667.93,362.09,683.76,373.15L683.76,373.15z M594.7,431.32c0.95-7.25,3.43-14.11,4.39-21.36
	c3.43,3.05,6.87,5.91,10.3,8.96c0,0.19,0,0.57-0.19,0.95C604.04,423.12,599.66,427.69,594.7,431.32L594.7,431.32z M563.04,382.69
	l13.16,8.77c-6.67,3.24-11.63,8.96-17.73,13.16C559.61,397.18,562.28,390.13,563.04,382.69L563.04,382.69z M614.72,367.43
	c5.15,16.78-2.1,31.66-18.88,17.35C584.97,375.63,608.05,367.62,614.72,367.43L614.72,367.43z M547.41,312.51
	c20.6,6.67,45.39,4.96,52.63,29.94c-5.53,3.62-12.01,5.91-18.31,6.67c-17.54-31.47-18.12-12.01-29.75-15.83
	c-7.25-2.48-5.91-13.35-4.96-20.79C547.22,312.51,547.22,312.51,547.41,312.51L547.41,312.51z M785.02,301.07
	c-9.92-9.92-20.21-19.83-30.32-29.75c-16.78-16.4-20.6-27.08-15.64-51.3c9.73-47.1,28.22-94.01,14.49-142.83
	c-2.1-7.63-4.96-19.83-12.2-24.6c-2.48-1.53-12.4-2.48-11.25-1.53c-11.25-8.77-20.6,44.24-35.09,49.01
	c-4.01,1.14-4.77,6.48-1.14,8.58c11.06,7.06,13.54,6.29,4.39,17.16c-7.25,8.39-17.93,15.26-26.51,22.31
	c-19.07,15.83-34.9,34.13-53.4,50.53c-30.32-19.07-68.84-42.14-105.26-27.08c-22.69,9.34-36.42,32.04-24.03,55.49
	c8.58,16.02,27.08,25.55,42.14,34.52c-23.46,7.25-43.86,19.45-49.2,45.58c-4.2,21.55-0.38,50.73,11.25,69.99
	c3.24,5.34,24.22,24.6,8.39,28.41c-21.55,5.34-69.22-45.58-82.38-59.12c-26.7-27.84-54.16-57.02-90.58-71.89
	c-61.98-25.55-135.01-0.38-171.44,55.11c-23.65,36.04-26.89,73.04-21.93,110.6c-41.19-4.77-61.79-61.98-68.84-96.3
	c-7.06-34.71-5.15-71.51,5.91-105.26c10.87-33.56,35.09-81.05,72.85-88.48c15.83-3.05,39.09,2.48,44.62,22.31
	c8.96,32.04-26.13,36.23-27.27,22.88c0.76-4.77-7.25-6.67-9.34-1.33c-7.06,17.35,11.25,33.37,27.46,32.8
	c28.8-0.95,49.77-27.27,53.97-53.97c7.25-45.58-28.22-103.55-94.2-78.76c-15.07,5.72-29.37,14.49-41,23.27
	C38.44,163.58,5.64,243.1,5.06,318.62c-1.14,83.91,54.54,147.22,135.97,164c0.95,0.19,1.72,0,2.48-0.19
	c5.53,22.31,12.2,44.81,17.73,67.13c11.25,46.34,20.21,93.44,33.18,139.4c4.58,16.4,11.44,66.17,34.9,70.18
	c36.61,6.29,13.92-73.8,9.15-90.58c-10.87-37.76-47.87-85.81,22.88-113.27c35.09-13.73,81.81-26.89,118.04-13.35
	c49.96,18.69,60.64,71.89,68.65,118.04c3.43,20.02,13.54,60.83,40.62,62.17c18.69,0.95,21.74-16.59,19.64-30.89
	c-4.77-32.99-9.73-65.22-12.78-98.4c-2.29-27.27-7.25-45.96,14.3-67.7c21.55-21.74,50.53-29.37,78.76-38.9
	c65.22-21.93,150.46-58.35,154.85-135.39c22.69,3.05,60.64,5.15,61.6-20.21C805.42,318.81,792.07,308.32,785.02,301.07
	L785.02,301.07z"/>
</svg>
