<?xml version="1.0" encoding="utf-8"?>
<!-- Generator: Adobe Illustrator 24.1.2, SVG Export Plug-In . SVG Version: 6.00 Build 0)  -->
<svg version="1.1" id="Layer_1" xmlns="http://www.w3.org/2000/svg" xmlns:xlink="http://www.w3.org/1999/xlink" x="0px" y="0px"
	 viewBox="0 0 810 810" style="enable-background:new 0 0 810 810;" xml:space="preserve">
<path d="M623.73,280.06c-22.22,55.2-61.61,38.71-39.62-15.8c13.74-34.13,42.37-48.55,45.35-16.95
	C630.37,256.93,628.31,268.61,623.73,280.06L623.73,280.06z M566.01,365.49c-3.89,3.66-19.47-10.76-45.81,9.85
	c-6.87,5.5-7.33,5.95-8.7,0.23c-9.62-35.96,44.43-50.16,54.05-14.66C566.47,364.57,566.01,365.49,566.01,365.49L566.01,365.49z
	 M463.63,338.92c-15.8,9.16-49.47-27.94-51.3-60.01c-1.6-31.15,28.63-21.76,47.41,10.54C471.88,310.52,473.71,332.96,463.63,338.92
	L463.63,338.92z M724.04,235.63c-13.51-31.84-33.9-61.15-43.52-94.82c-10.08-35.73,8.7-75.35-5.5-109.25
	C659-6,613.88-6.23,601.51,32.71c-11.45,36.42-2.06,68.71-33.44,98.25c-28.17,26.8-70.31,43.29-107.87,51.99
	c-54.74,12.83-73.98-31.84-116.12-52.68c-41.91-21.07-82.22-6.64-60.23,43.06c19.24,43.29,49.01,53.14,40.77,108.79l-0.23,2.52
	c-4.58,46.72,6.87,89.09,41.91,121.62c46.49,42.83,95.51,45.12,120.93,62.3c35.96,24.28-61.38,35.96-79.7,46.04
	c-16.72,8.93-29.09,24.96-40.54,39.39c-19.01,23.82-77.41,131.92-113.83,87.03c-40.31-49.47,17.18-145.89,10.08-204.3
	c-6.18-53.82-43.97-107.19-96.65-123.91c-39.62-12.83-90.01,1.37-95.05,48.78c-5.95,55.2,46.95,49.24,83.83,55.65
	c98.48,17.18-2.75,140.85-6.18,192.39c-3.44,53.14,39.16,83.37,83.14,101.69c35.04,14.66,77.41,30,120.93,38.71
	c11.22,51.53,81.76,86.34,104.21,5.04c8.02-1.37,16.03-2.98,23.82-5.27c16.49,30,51.3,30.23,70.54,14.66
	c20.61-16.72,19.01-45.12,4.58-63.67c45.35-55.43,25.65-109.48,31.38-173.15c7.56-82.68,81.31-60.92,128.72-140.62
	C744.65,339.38,745.11,285.78,724.04,235.63L724.04,235.63z"/>
</svg>
