<?xml version="1.0" encoding="utf-8"?>
<!-- Generator: Adobe Illustrator 24.1.2, SVG Export Plug-In . SVG Version: 6.00 Build 0)  -->
<svg version="1.1" id="Layer_1" xmlns="http://www.w3.org/2000/svg" xmlns:xlink="http://www.w3.org/1999/xlink" x="0px" y="0px"
	 viewBox="0 0 810 810" style="enable-background:new 0 0 810 810;" xml:space="preserve">
<path d="M759.22,150.84c-4.25-14.96-24.06-10.92-22.24,2.22C720,146.59,726.67,129,745.88,129
	C762.25,129,770.74,142.75,759.22,150.84L759.22,150.84z M716.36,182.17c-6.47-3.64-11.12-2.63-17.59-0.81
	c-1.42-9.7,0-17.18,8.69-17.18C715.76,164.18,717.58,172.26,716.36,182.17L716.36,182.17z M681.19,152.05
	c-0.4-15.56-22.64-13.14-25.07-1.82c-10.71-8.29-1.82-21.22,13.95-21.22C687.86,129,695.74,144.77,681.19,152.05L681.19,152.05z
	 M788.93,136.48c-17.79-39.62-11.93-36.18,2.63-66.91c5.26-10.92,13.54-43.26-1.21-40.83c-28.7,4.85-55.79,17.79-62.06,46.9
	c-13.14-2.63-24.46-0.4-36.59,6.27c0-1.01,0-2.22-0.81-3.44c-7.68-13.75-21.02-57.21-43.66-52.35
	c-21.63,4.65-13.75,30.73-10.51,44.27c11.52,46.29-56.4,133.82,6.87,165.35c-15.16,54.98-90.36,33.96-132,39.42
	c-91.97,12.13-164.54,96.83-176.06,187.38c-9.7,74.59,21.63,156.66,18.6,201.53c-2.63,36.39-31.74,47.71-63.07,53.77
	C230.82,729.56,115,724.71,74.37,666.9c-20.01-28.91-21.83-100.06,33.96-89.55c19.61,3.64-2.63-45.08-49.73-31.33
	c-28.91,8.69-49.32,44.27-53.16,72.57c-8.49,59.23,52.35,116.84,102.28,135.84c68.53,25.87,189.2,42.45,258.94,10.11
	c7.88-3.64,14.35-9.1,22.84-10.31c16.78-2.43,75.2,19.81,173.03-5.66c20.21-5.46,89.55-19.81,87.12-49.93
	c-0.81-9.9-4.65-15.97-10.71-19.2c16.98-6.87,33.56-15.56,49.32-26.08c12.94,30.12,61.86,54.98,79.24,17.79
	c6.27-13.54-37.6-24.26-44.87-124.11c-2.83-41.03-3.84-86.11,8.09-125.73c19.41-64.48,65.09-123.1,53.37-193.25
	C818.44,200.97,802.27,167.01,788.93,136.48L788.93,136.48z"/>
</svg>
