<?xml version="1.0" encoding="utf-8"?>
<!-- Generator: Adobe Illustrator 24.1.2, SVG Export Plug-In . SVG Version: 6.00 Build 0)  -->
<svg version="1.1" id="Layer_1" xmlns="http://www.w3.org/2000/svg" xmlns:xlink="http://www.w3.org/1999/xlink" x="0px" y="0px"
	 viewBox="0 0 810 810" style="enable-background:new 0 0 810 810;" xml:space="preserve">
<path d="M526.19,294.77h-92.28v204.38H376.1V294.77h-92.28v-57.81h92.28v-83.2h57.81v83.2h92.28V294.77z M624.67,141.79
	C576.98,99.47,529.7,56.73,481.6,15.03c-16.31-14.25-37.37-9.29-58.43-9.29c-13.21,0-95.59-1.44-101.57,1.03l-4.34,2.89
	c-42.32,42.74-88.15,83.61-127.59,128.82c-17.55,20.23,1.65,62.97,6.81,86.5l121.6,569.8c1.45,5.78,7.64,10.12,13.42,10.12
	c39.64,0,79.07,0,118.5,0c5.99,0,11.77-4.34,13.42-10.12l164.75-639.58C629.42,150.67,628.39,144.89,624.67,141.79L624.67,141.79z"
	/>
</svg>
