<?xml version="1.0" encoding="utf-8"?>
<!-- Generator: Adobe Illustrator 24.1.2, SVG Export Plug-In . SVG Version: 6.00 Build 0)  -->
<svg version="1.1" id="Layer_1" xmlns="http://www.w3.org/2000/svg" xmlns:xlink="http://www.w3.org/1999/xlink" x="0px" y="0px"
	 viewBox="0 0 810 810" style="enable-background:new 0 0 810 810;" xml:space="preserve">
<path d="M575.76,397.35l-71.62-11.47l-25.05,158.94l-44.81-7.06l25.05-158.94l-71.8-11.29l7.06-44.81l71.8,11.29l10.06-64.74
	l44.98,7.23l-10.23,64.56l71.62,11.29L575.76,397.35z M332.85,781.2c-3.88,0.88-7.59,1.76-11.47,2.47l-89.97-433.43
	c-3.88-18.7-5.82-39.87-12-58.04c-1.94-5.65,0.35-4.76,10.58-16.76L416.82,57.59c32.63-0.18,65.45-0.35,98.08-0.71
	c0,4.94,0,9.88,0,14.82l-26.99-1.94L288.04,287.8L332.85,781.2z M218.54,287.8C218.54,286.92,218.72,286.92,218.54,287.8
	L218.54,287.8z M594.11,77.52l-52.92-3.88l5.65-48.34L362.31,4.67L99.64,290.8L229.3,804.67l105.14-7.41l202.87-4.23l173.05-532.74
	L594.11,77.52z"/>
</svg>
