<?xml version="1.0" encoding="utf-8"?>
<!-- Generator: Adobe Illustrator 24.1.2, SVG Export Plug-In . SVG Version: 6.00 Build 0)  -->
<svg version="1.1" id="Layer_1" xmlns="http://www.w3.org/2000/svg" xmlns:xlink="http://www.w3.org/1999/xlink" x="0px" y="0px"
	 viewBox="0 0 810 810" style="enable-background:new 0 0 810 810;" xml:space="preserve">
<path d="M364.91,261.69c0.86,2.57-3.08,4.11-3.94,1.54c-1.2-3.25-2.23-6.68-3.43-9.93c-2.74,2.57-5.65,5.14-8.91,7.88
	c0.86,2.91,1.88,5.82,2.91,8.73c1.03,2.57-2.91,3.94-3.94,1.37c-0.86-2.4-1.71-4.8-2.57-7.19c-3.43,2.74-7.19,5.65-11.13,8.56
	c1.03,2.74,1.88,5.65,2.91,8.56c1.03,2.57-2.91,4.11-3.94,1.54c-0.86-2.57-1.71-5.14-2.57-7.71c-3.43,2.4-7.02,4.62-10.62,6.85
	c0.69,2.05,1.54,4.11,2.23,6.34c0.86,2.57-3.08,3.94-3.94,1.37c-0.69-1.88-1.37-3.77-2.06-5.65c-4.28,2.4-8.73,4.8-13.19,6.85
	c0.69,2.06,1.54,4.28,2.23,6.34c0.86,2.57-3.08,4.11-3.94,1.54c-0.69-2.06-1.54-4.11-2.23-6.17c-4.11,1.71-8.39,3.42-12.84,4.8
	c0.51,1.88,1.03,3.77,1.71,5.48c0.69,2.57-3.25,4.11-3.94,1.54c-0.69-1.88-1.2-3.77-1.71-5.65c-5.65,1.54-11.3,2.91-17.13,3.77
	c0.51,9.42-3.94,4.97-3.94,3.77c-0.17-1.03-0.17-2.23-0.34-3.25c-4.11,0.34-8.22,0.51-12.33,0.51c0.51,10.62-3.94,5.31-4.11,4.45
	c0-1.54-0.17-3.08-0.17-4.62c-5.82-0.34-11.47-1.2-17.13-2.23c-1.71,12.67-4.97,4.97-4.8,4.45c0.17-1.71,0.51-3.42,0.69-5.31
	c-6.17-1.37-12.33-3.08-18.15-5.14c-0.86,1.71-1.71,3.25-2.57,4.97c-0.17,0.34-7.36,5.14-1.37-6.34c-4.8-1.88-9.59-3.77-14.04-5.99
	c-1.54,2.23-3.08,4.45-4.62,6.51c-1.71,2.23-4.97-0.51-3.25-2.57c1.37-1.88,2.74-3.77,4.11-5.65c-4.62-2.23-8.91-4.62-12.84-6.85
	c-2.06,2.91-4.28,5.82-6.34,8.73c-1.71,2.23-4.97-0.51-3.25-2.74c1.88-2.74,3.94-5.48,5.99-8.22c-3.94-2.23-7.54-4.62-10.62-6.68
	c-2.23,3.08-4.45,6.17-6.68,9.25c-1.71,2.23-4.97-0.51-3.25-2.74c2.06-2.91,4.28-5.99,6.51-9.08c-16.78-12.16-10.1-9.25,2.57-3.42
	c2.06-2.91,4.28-5.82,6.34-8.73c1.54-2.23,4.8,0.51,3.25,2.74c-1.88,2.57-3.77,5.14-5.65,7.71c3.43,1.71,7.36,3.42,11.82,5.14
	c1.71-2.4,3.43-4.8,5.14-7.19c1.71-2.23,4.97,0.51,3.25,2.74c-1.37,2.05-2.91,3.94-4.45,5.99c4.45,1.71,9.08,3.43,14.21,5.14
	c1.71-2.57,3.6-4.97,5.31-7.54c1.71-2.05,4.97,0.51,3.25,2.74c-1.37,2.05-2.91,4.11-4.45,6.16c4.28,1.2,8.91,2.4,13.53,3.6
	c1.2-2.57,2.57-5.14,3.94-7.71c1.2-2.4,5.14-0.69,3.77,1.71c-1.2,2.23-2.4,4.62-3.6,6.85c4.62,1.03,9.42,1.88,14.04,2.57
	c0.34-2.23,0.69-4.45,1.03-6.68c0.34-2.74,4.45-2.06,4.11,0.69c-0.34,2.23-0.51,4.28-0.86,6.51c4.62,0.51,9.42,0.69,14.04,0.86
	c0-2.06-0.17-3.94-0.34-5.82c-0.17-2.74,4.11-3.08,4.28-0.51c0.17,2.06,0.17,4.28,0.34,6.34c4.11-0.17,8.39-0.34,12.5-0.86
	c-0.17-2.23-0.34-4.45-0.34-6.68c-0.17-2.74,3.94-3.08,4.11-0.34c0.17,2.06,0.34,4.28,0.34,6.51c4.62-0.69,9.25-1.71,13.87-2.74
	c-3.25-10.96,2.4-6.68,2.57-5.82c0.51,1.54,1.03,3.08,1.37,4.8c4.28-1.2,8.22-2.4,12.33-3.77c-4.28-11.82,2.06-6.68,2.23-6.34
	c0.51,1.71,1.03,3.25,1.71,4.97c4.62-1.71,9.25-3.6,13.7-5.65c-0.86-2.23-1.71-4.45-2.4-6.68c-1.03-2.57,2.91-4.11,3.94-1.54
	c0.69,2.05,1.54,4.28,2.23,6.51c3.77-1.88,7.54-3.77,10.96-5.48c-0.69-2.23-1.37-4.45-2.23-6.51c-0.86-2.57,3.08-4.11,3.94-1.54
	c0.69,2.06,1.37,3.94,2.06,5.99c4.28-2.4,8.22-4.62,11.82-6.85c-1.03-3.08-2.06-5.99-3.08-8.91c-0.86-2.57,3.08-4.11,3.94-1.54
	c1.03,2.74,1.88,5.48,2.91,8.22c3.43-2.23,6.68-4.28,9.59-6.17c-1.03-2.91-2.06-5.82-3.08-8.73c-1.03-2.57,2.91-4.11,3.94-1.54
	c0.86,2.57,1.88,5.14,2.74,7.88c8.73-5.99,13.87-9.76,14.04-8.91c0.17,1.03-4.28,6.68-12.16,14.39
	C362.17,253.99,363.54,257.76,364.91,261.69L364.91,261.69z M239.04,177.09c-39.73,38.36-64.05,14.73-73.81-22.95L239.04,177.09z
	 M344.53,154.14c-9.59,37.68-34.08,61.31-73.81,22.95L344.53,154.14z M798.88,619.11c-17.3-19.87-48.3,0.34-69.7,15.76
	c-62.51,45.38-156.87,40.25-214.07-11.82c-61.31-55.66-73.81-144.72-79.29-224.35c30.14-19.87,56.34-46.93,76.38-77.07
	c5.14-7.71,10.1-15.76,11.47-25c3.25-20.38-14.73-44.01-52.06-11.99c-13.53,11.65-27.06,23.46-40.59,35.11
	c-6.68-101.21-20.55-205.51-95.39-271.28c-15.93-14.04-34.59-25.69-55.32-30.66c-42.13-9.93-87.34,9.76-116.63,41.62
	c-67.82,73.3-75.87,217.84-62.51,313.92c-15.07-9.25-29.97-18.67-45.04-27.92c-41.79-25.86-55.83,0.34-49.49,20.04
	c2.91,8.91,9.08,16.1,15.24,22.95c26.72,28.94,60.11,53.26,96.59,67.99C146.04,554.55,197.76,646,270.2,708.51
	c37.68,32.37,86.14,55.32,135.81,52.23c31.17-2.06,62.34-14.04,92.99-7.88c19.52,3.94,36.82,15.07,55.15,23.12
	C655.37,820,773.19,763.83,802.31,657.3C805.91,644.46,807.45,629.22,798.88,619.11L798.88,619.11z"/>
</svg>
