<?xml version="1.0" encoding="utf-8"?>
<!-- Generator: Adobe Illustrator 24.1.2, SVG Export Plug-In . SVG Version: 6.00 Build 0)  -->
<svg version="1.1" id="Layer_1" xmlns="http://www.w3.org/2000/svg" xmlns:xlink="http://www.w3.org/1999/xlink" x="0px" y="0px"
	 viewBox="0 0 810 810" style="enable-background:new 0 0 810 810;" xml:space="preserve">
<path d="M447.38,179.59c-21.62-4.97-6.43-55.94,15.19-51.55C481.56,137.53,468.12,184.26,447.38,179.59L447.38,179.59z
	 M451.18,230.7c-1.31,5.99-4.24,12.71-4.97,18.69c-0.44,0.58-0.88,1.02-1.17,1.46c-4.09-10.37-11.83-27.17-22.35-11.83
	c-7.59,10.81-9.49,43.81-14.02,45.13c-3.94,1.17-22.35-38.26-26-44.25c-4.53-7.3-9.79-14.02-14.9-21.03
	c29.79,5.26,58.71-2.04,87.92-10.81C454.1,215.66,452.93,223.26,451.18,230.7L451.18,230.7z M384.73,133.44
	c18.99,9.49,5.55,56.23-15.34,51.55C347.92,180.02,362.97,129.05,384.73,133.44L384.73,133.44z M683.25,136.36
	c-14.75-12.85-35.93-16.5-54.77-13.29c-19.72,3.36-37.1,15.19-51.55,28.33c-12.85,11.68-24.68,32.42-42.5,36.51
	c-29.06,6.57,0.15-52.72-4.24-78.72C503.47-46.79,277.24-19.04,295.93,145.85c2.78,24.24,5.4,48.63,8.18,72.88
	c1.31,11.1,0.73,18.11-9.49,25.56c-15.48,11.25-37.39,9.2-55.21,1.75c-17.67-7.3-33.3-19.28-50.68-27.46
	c-59.3-27.6-97.27,19.86-71.42,80.62c5.4,12.56,18.69,26.43,30.67,19.72c12.41-7.01,9.06-25.41,18.4-35.2
	c18.11-18.55,24.68,27.75,26.14,36.66c2.48,16.5,7.59,64.41,25.12,73.75c11.39,6.28,25.56-5.11,29.06-17.82
	c3.51-12.56,0.88-26.14,2.63-39.14c6.57-45.42,35.34-14.17,41.92,10.95c20.01,75.94-32.71,144.3-69.81,203.01
	c-27.75,43.96-86.17,150.43-59,203.88c10.08,19.57,35.93,32.28,55.06,21.47c8.91-5.11,16.07-14.6,26.29-14.75
	c23.22-0.29,25.41,44.55,48.63,44.25c22.64-0.15,37.53-46.88,45.42-63.53c8.47-17.96,21.76-35.93,41.19-40.31
	c35.05-7.89,70.25,31.98,103.55,18.55c23.37-9.35,29.94-39.14,30.23-64.41c0.29-25.27-1.31-53.45,15.48-72.15
	c14.75-16.5,39.87-20.59,54.18-37.39c11.39-13.44,13.73-32.57,10.22-49.66c-3.36-17.23-11.83-32.86-20.01-48.34
	c-13.73-25.12-27.31-50.39-40.89-75.51c-10.66-19.86-37.53-62.36-4.09-75.21c32.71-12.71,28.04,39.14,55.35,33.3
	c23.81-4.97,9.79-52.43,9.93-72c0.15-15.92,6.28-33.45,20.74-39.87c4.67,16.8,9.35,33.45,14.02,50.24
	c1.75,6.28,3.65,12.85,8.03,17.67c6.28,6.72,16.8,8.76,23.08-2.92c22.05-41.19-20.88-73.9-5.4-104.28
	c8.03-15.77,21.91,17.23,37.1,15.04C712.31,192,699.75,150.82,683.25,136.36L683.25,136.36z"/>
</svg>
