<?xml version="1.0" encoding="utf-8"?>
<!-- Generator: Adobe Illustrator 24.1.2, SVG Export Plug-In . SVG Version: 6.00 Build 0)  -->
<svg version="1.1" id="Layer_1" xmlns="http://www.w3.org/2000/svg" xmlns:xlink="http://www.w3.org/1999/xlink" x="0px" y="0px"
	 viewBox="0 0 810 810" style="enable-background:new 0 0 810 810;" xml:space="preserve">
<path d="M562.27,256.32c-8.44,8.44-29.91-6.29-38.96-15.34c-17.95-17.79-24.85-41.26-8.74-41.26c8.44,0,21.32,6.6,32.21,17.64
	C561.5,232.09,568.56,250.03,562.27,256.32L562.27,256.32z M482.19,313.23c-3.99,5.83-11.66,13.5-19.48,12.58
	c-10.28-0.92-3.53-7.36-5.52-12.12c-3.99-9.97-20.25,11.5-15.95-9.97c1.99-10.28,31.6-36.82,40.65-45.41
	C495.39,274.73,493.85,296.05,482.19,313.23L482.19,313.23z M403.19,256.32c-6.44-6.29,0.61-24.24,15.34-38.96
	c11.35-11.2,31.29-23.01,38.96-15.34c6.44,6.44-0.61,24.24-15.34,38.96C427.43,255.71,409.64,262.77,403.19,256.32L403.19,256.32z
	 M802.8,474.46c-7.36-10.43-23.16,0.77-29.15-11.35c-2.15-4.45-1.53-9.66,0.46-14.11c7.06-15.19,8.28-27.61-5.22-36.97
	c-27.61-19.02-49.09,24.7-90.35,26.69c-8.28,0.46-16.11-3.53-21.63-9.51c-10.12-10.89-12.73-25.46-15.49-39.58
	c-14.57-74.86-34.98-148.49-61.36-219.97c-11.97-32.67-24.08-50.47-62.43-54.61c-61.21-6.44-102.62,28.99-135.3,76.55
	c-49.7,72.4-79.77,159.23-142.2,221.2c-17.33,17.18-44.95,36.82-70.26,23.47c-18.1-9.51-22.24-30.99-22.86-49.55
	c-0.77-25.16-4.14-45.87-18.87-68.11c-5.22-7.82-25-15.34-24.85-10.28c1.53,11.5,1.99,29.76-11.66,31.6
	c-8.44,1.23-27-5.98-30.83,11.2c-5.37,23.93,18.1,15.49,16.57,34.52c-0.46,6.29-3.99,12.12-8.9,16.11
	c-9.82,7.82-26.08,21.63-16.57,34.51c10.12,13.81,74.86,13.81,116.12,61.67c15.95,18.41,26.84,30.37,28.69,47.86
	c1.99,17.49-5.68,32.67-23.16,34.05c-7.36,0.61-15.03-1.84-22.09,0.46c-15.19,4.91-15.49,25.77-22.4,40.19
	c-7.52,15.8-26.69,25-43.72,21.02c-17.03-3.99-30.22-20.71-30.07-38.2c0.15-8.13,2.61-17.03-3.99-23.47
	C33.81,562.66-5,592.27,8.04,628.62c7.21,20.1,26.84,33.59,47.4,39.12c80.38,21.78,159.84-56.45,201.72-39.88
	c9.51,3.83,16.72,11.66,24.08,18.71c48.93,46.33,126.09,60.75,187.76,33.59c89.74-39.58,143.28-162.91,207.24-152.33
	c26.38,4.3,46.94,32.37,74.71,30.53c13.5-0.92,27.3-12.58,25.46-26.08c-1.99-14.73-12.43-22.55,8.59-29.91
	C799.73,497.31,810.62,485.35,802.8,474.46L802.8,474.46z"/>
</svg>
