<?xml version="1.0" encoding="utf-8"?>
<!-- Generator: Adobe Illustrator 24.1.2, SVG Export Plug-In . SVG Version: 6.00 Build 0)  -->
<svg version="1.1" id="Layer_1" xmlns="http://www.w3.org/2000/svg" xmlns:xlink="http://www.w3.org/1999/xlink" x="0px" y="0px"
	 viewBox="0 0 810 810" style="enable-background:new 0 0 810 810;" xml:space="preserve">
<path d="M509.64,185.3c-6.69,21.99-25.05,35.95-40.92,31.17c-16.06-4.97-23.52-26.77-16.83-48.76
	c6.69-21.99,25.05-35.95,41.11-30.98C508.87,141.51,516.33,163.31,509.64,185.3L509.64,185.3z M464.32,306.53
	c-2.1,11.47-4.21,24.67-6.31,36.14c-0.96,5.35-8.6,16.06-10.52,16.06c-3.25,0.38-5.16-10.9-11.86-13.77
	c-2.87-1.34-6.31-0.96-9.56-1.15c-11.28-0.57-6.88-14.34-15.68-17.02c-5.35-1.53-11.28,6.5-15.87,8.22
	C378.28,246.49,474.46,249.74,464.32,306.53L464.32,306.53z M365.85,230.81c-16.06-4.78-23.52-26.58-16.83-48.57
	c6.69-21.99,25.05-35.95,40.92-31.17c16.06,4.97,23.52,26.77,16.83,48.76C400.08,221.82,381.72,235.78,365.85,230.81L365.85,230.81z
	 M691.1,367.33c-46.08-8.22-86.81,28.49-124.29,55.07c0,0,0,0,0,0.19c21.42-17.78,37.86-42.26,47.99-68.45
	C658.4,241.9,623.03,17.99,472.93,5.76c-106.31-8.8-192.17,76.1-228.88,167.69c-26.77,66.73-31.74,135.18-27.15,206.31
	c-4.59-1.34-9.37-2.68-14.15-3.82c-83.18-19.7-73.04-84.9-113.58-98.86c-30.4-10.33-74.38,20.84-54.69,92.16
	c12.62,45.7,41.49,86.43,79.35,114.73c21.42,16.06,58.32,35.76,91.78,44.55c-15.11,49.52-41.49,94.46-77.63,131.74
	c-17.02,17.4-46.85,26.77-59.08,47.61c-6.88,11.86-6.5,28.68,3.82,37.67c4.78,4.21,10.9,6.31,17.02,8.03
	c38.62,10.9,79.93,12.62,119.31,4.78c39.77-7.84,89.68-28.87,129.26-4.78c15.49,9.18,27.53,24.86,45.13,28.49
	c30.21,6.31,57.75-26.2,79.73-24.86c16.83,0.96,79.73,41.87,105.74,46.85c9.37,1.91,64.25,1.15,73.62-1.34
	c30.59-7.84,46.27-43.98,42.45-75.34c-7.46-61.76-86.81-135.57-69.41-169.98c9.37-18.55,68.07-30.59,86.43-41.68
	c27.15-16.44,62.14-32.51,73.81-61.95C798.75,395.44,719.4,372.3,691.1,367.33L691.1,367.33z"/>
</svg>
