<?xml version="1.0" encoding="utf-8"?>
<!-- Generator: Adobe Illustrator 24.1.2, SVG Export Plug-In . SVG Version: 6.00 Build 0)  -->
<svg version="1.1" id="Layer_1" xmlns="http://www.w3.org/2000/svg" xmlns:xlink="http://www.w3.org/1999/xlink" x="0px" y="0px"
	 viewBox="0 0 810 810" style="enable-background:new 0 0 810 810;" xml:space="preserve">
<path d="M502.62,159.01c-4.57,26.66-17.67,46.69-29.03,44.64c-11.52-2.05-17.04-25.08-12.46-51.74
	c4.73-26.66,17.67-46.54,29.03-44.49C501.67,109.32,507.19,132.51,502.62,159.01L502.62,159.01z M424.06,250.51
	c-38.65-6.94-10.41-14.35-7.89-28.55c2.37-14.2,5.36-24.92,16.88-22.87c11.36,1.89,10.57,12.15,8.05,26.34
	C438.73,239.63,459.71,256.82,424.06,250.51L424.06,250.51z M393.93,176.21c-11.36-2.05-16.88-25.24-12.3-51.74
	c4.57-26.66,17.67-46.54,29.03-44.64c11.52,2.05,17.04,25.24,12.46,51.74C418.38,158.23,405.44,178.1,393.93,176.21L393.93,176.21z
	 M776.63,261.39c-8.05-4.26-21.77,2.52-29.5,4.89c-19.88,6.31-39.6,12.94-59.79,18.77c-41.49,11.83-95.28,29.03-138.19,15.3
	c-31.87-10.25-39.91-41.65-24.29-70.2c15.78-29.18,29.5-48.9,32.02-83.61c3.79-56-22.09-117.52-78.88-136.3
	C420.9-8.67,364.11,31.08,340.76,81.87c-40.07,86.45,9.31,185.2-70.2,192.77c-57.11,5.36-113.9-12.62-171,1.1
	c-38.81,9.31-101.91,52.53-52.53,91.65c32.02,25.4,76.04,20.67,72.72,74.62c-2.37,38.49-28.4,74.77-35.49,112.79
	c-7.73,40.86-4.57,85.34,46.54,69.57c33.13-10.1,67.83-37.54,85.34,10.73c14.2,39.44,23.66,153.18,67.04,152.39
	c20.98-0.32,43.07-40.38,62.15-36.12c11.2,2.37,12.46,35.81,39.28,49.53c16.72,8.36,29.81,5.05,41.33-8.68
	c15.78-18.93,15.46-36.76,50.32-33.29c15.78,1.74,29.34,9.62,45.59,8.2c28.55-2.37,46.85-30.76,73.67-39.75
	c15.93-5.36,32.97-11.04,34.55-29.82c0.63-6.47-9.47-19.72,0.47-33.13c17.35-23.19,58.53-21.45,78.09-40.38
	c24.92-24.45-17.51-62.31-31.23-81.4c-16.88-23.5-22.72-52.85-25.24-81.24c-1.42-16.25-2.84-35.81,2.21-51.74
	c5.52-17.98,16.09-18.77,33.6-21.93c13.09-2.52,36.91-2.21,46.38-14.04c8.83-11.04,9.47-29.5,17.04-42.43
	C758.33,319.6,799.34,273.54,776.63,261.39L776.63,261.39z"/>
</svg>
