<?xml version="1.0" encoding="utf-8"?>
<!-- Generator: Adobe Illustrator 24.1.2, SVG Export Plug-In . SVG Version: 6.00 Build 0)  -->
<svg version="1.1" id="Layer_1" xmlns="http://www.w3.org/2000/svg" xmlns:xlink="http://www.w3.org/1999/xlink" x="0px" y="0px"
	 viewBox="0 0 810 810" style="enable-background:new 0 0 810 810;" xml:space="preserve">
<path d="M628.28,234.8c-5.72,12.28-21.2,33.31-32.97,27.93c-19.18-8.92,5.89-71.84,29.27-71.84
	C640.23,190.89,635.18,219.99,628.28,234.8L628.28,234.8z M521.46,345.83c-9.93,6.9-17.5,13.96-28.26-3.03
	c-3.7-5.72-4.37-18.67-4.71-24.39c-1.35-15.48,1.18-30.62,6.06-45.42c22.04,13.63,49.63,17.33,74.02,8.92
	C559.98,307.64,544,330.19,521.46,345.83L521.46,345.83z M479.4,233.79c-19.35-8.92,5.89-71.84,29.27-71.84
	c18.84,0,10.6,47.44-13.29,67.12C489.33,233.96,483.61,235.81,479.4,233.79L479.4,233.79z M804.76,464.94
	c-3.87-17.66-27.42-18-39.53-19.51c-17.66-2.36-34.66-9.25-49.12-19.51c8.92-30.45,16.99-61.24,19.18-92.7
	c3.03-41.55,3.2-93.7-7.91-133.91C690.7,64.38,548.71,53.11,439.7,109.3c-31.8,16.49-66.96,18.67-60.73-27.08
	c6.73-49.63-32.64-57.2-44.92-42.23c-14.8,18,11.1,43.74,7.91,66.96c-1.68,12.28-11.78,22.88-11.1,35.33
	c1.85,36.67,55.52,16.82,62.92,23.55c2.19,1.85,2.19,5.22,2.02,7.91c-4.37,70.99-53.33,145.52-36.17,216.18
	c0.17,1.01,0.34,2.02,0.5,3.03c-30.95-2.86-35.33-21.87-58.21-46.6c-31.12-33.65-68.98,36-24.06,99.26
	c-30.45-16.82-96.4-53.83-125.16-20.86c-23.22,26.58,1.85,67.97,2.02,97.57c0.34,36.84-33.81,56.36-62.58,25.4
	c-9.76-10.26-16.15-23.38-25.07-34.49c-12.62-16.15-37.18-28.09-52.82-14.97c-14.97,12.28-9.42,36.67,1.68,52.49
	c34.49,48.96,112.21,68.98,157.8,30.11c11.27-9.59,23.89-32.64,38.52-29.61c39.37,8.24,26.75,119.44,92.86,172.94
	c38.69,31.29,90.34,43.07,137.61,50.13c59.39,9.08,117.93-12.28,155.95-59.05c41.22-50.81,65.95-116.75,85.8-181.69
	c24.39,3.87,47.44-7.07,68.3-18.51C769.6,505.99,809.3,485.97,804.76,464.94L804.76,464.94z"/>
</svg>
