<?xml version="1.0" encoding="utf-8"?>
<!-- Generator: Adobe Illustrator 24.1.2, SVG Export Plug-In . SVG Version: 6.00 Build 0)  -->
<svg version="1.1" id="Layer_1" xmlns="http://www.w3.org/2000/svg" xmlns:xlink="http://www.w3.org/1999/xlink" x="0px" y="0px"
	 viewBox="0 0 810 810" style="enable-background:new 0 0 810 810;" xml:space="preserve">
<path d="M530.09,187.85c-9.44-12.03-22.39-13.1-34.72-26.95c1.68,11.73-14.16,37.16-28.17,12.18c-7.46-13.25-5.63-34.11,6.7-35.94
	c-8.68-6.4-15.53-5.94-13.4-8.22c8.98-9.59,22.23-5.18,29.39,4.26c7.77,9.9,5.79,15.38,23.76,29.7c8.53,6.7,14.31,13.86,18.43,23.76
	C532.68,187.85,530.86,188.77,530.09,187.85L530.09,187.85z M471.47,283.03c-3.2,1.67-1.52-7.77-6.09-7.46
	c-10.2,0.3-8.22,2.59-7.61,11.73l-0.61,1.83c-5.48,1.52-29.85,5.63-29.39,0.91c0.91-8.98,2.13-9.75-5.18-11.88
	c-6.55-1.83-5.94-0.46-10.66,5.48l-1.52,0.15c-27.87-19.04-35.79-40.96-47.06-71.73c9.75,10.96,28.02,13.86,26.65,17.36l-2.89,11.12
	c0.15,2.59,5.94,4.72,9.14,5.94c1.68-4.87,3.35-11.88,5.33-10.81c12.79,6.09,22.23,8.38,27.87,10.81c0.46,0.15,0.91,0.61,0.76,1.22
	c-1.22,4.57-1.22,9.29-1.98,14.01c14.01,4.57,14.16,4.11,15.38-4.57c1.98-14.47-6.7-5.48,26.35-7.46c3.5-0.3-1.98,11.73,5.03,12.18
	c18.43,1.07,4.87-12.79,9.29-14.01c19.64-4.26,26.5-4.87,40.81-18.88C508.93,254.4,497.96,268.72,471.47,283.03L471.47,283.03z
	 M360.45,182.22c10.05-24.06,23.76-22.23,35.94-43.1c1.98-3.66,3.65-7.16,6.24-10.36c14.62-19.04,33.81-4.11,29.09-2.59
	c-5.33,1.68-9.59,3.96-13.1,6.55c12.49,1.83,14.16,22.69,6.85,35.79c-14.16,25.13-29.85-0.3-28.17-12.03
	c-12.33,13.71-25.28,14.77-34.87,26.95C361.67,184.35,359.99,183.44,360.45,182.22L360.45,182.22z M704.46,244.5
	c-8.83-16.45-31.22-19.8-49.64-16.6c-18.27,3.05-36.55,10.51-54.97,7.92c-41.12-5.63-54.97-151.67-68.98-190.05
	c-8.98-24.52-18.12-37.92-46.9-40.96c-45.84-4.87-76.9,21.62-101.27,57.26c-41.57,60.46-98.22,237.72-189.29,131.12
	c-12.03-14.01-24.37-28.78-41.57-35.63c-21.02-8.68-54.21-2.44-51.17,35.94c5.33,64.26,63.05,104.47,116.19,130.2
	c8.53,4.11,17.51,8.38,23.76,15.53c35.79,41.12-38.83,197.36-52.23,244.26c-6.55,22.84-13.1,46.14-10.96,69.75
	c2.13,23.6,14.77,47.67,36.85,56.5c36.4,14.62,85.13-15.69,113.76,11.12c22.23,20.56,15.23,63.35,41.27,78.73
	c24.37,14.47,53.3-7.61,73.25-27.72c19.8-19.95,50.41-40.66,73.4-24.37c5.63,3.96,9.75,9.59,15.53,13.25
	c31.37,20.1,103.71-34.87,43.25-168.12c-19.8-43.86-46.14-86.34-52.08-134.16c-5.79-44.92,8.68-137.66,64.26-147.26
	c15.84-2.74,31.68,3.81,47.66,4.87C681.46,319.43,720.3,273.89,704.46,244.5L704.46,244.5z"/>
</svg>
