<?xml version="1.0" encoding="utf-8"?>
<!-- Generator: Adobe Illustrator 24.1.2, SVG Export Plug-In . SVG Version: 6.00 Build 0)  -->
<svg version="1.1" id="Layer_1" xmlns="http://www.w3.org/2000/svg" xmlns:xlink="http://www.w3.org/1999/xlink" x="0px" y="0px"
	 viewBox="0 0 810 810" style="enable-background:new 0 0 810 810;" xml:space="preserve">
<path d="M259.37,246.99c-24.67-21.89-10.8-64.51,12.55-43.79C296,224.66,282.87,267.86,259.37,246.99L259.37,246.99z M270.61,366.53
	c-11.09,24.08-40.14-15.18-50.06-32.99c18.97-4.52,36.05-16.2,46.56-32.55C274.99,321.14,279.36,347.41,270.61,366.53L270.61,366.53
	z M190.62,283.19c-20.58,1.17-35.91-43.64-18.54-53.71c12.55-7.3,24.37,10.07,28.17,19.41
	C203.47,258.81,206.97,282.31,190.62,283.19L190.62,283.19z M794.88,565.32c-3.65-0.88-7.44,0.29-11.09,1.46
	c-35.61,12.11-78.96,27.59-107.13,2.63c-10.8-9.49-17.08-23.5-28.75-31.82c-24.37-17.37-63.05-2.19-129.46-39.85
	c-22.33-12.55-54.3-32.69-63.49-58.09c-0.88-2.19-4.52-23.5,0.88-22.62c57.51,9.78,124.21,16.93,166.53-23.21
	c13.43-12.55,22.33-35.76-6.86-42.03c-31.23-6.57-63.93-5.4-94.43,3.65c-18.24,5.55-36.63,13.72-55.61,11.09
	c-63.78-8.9-64.95-114.87-132.09-194.56c-29.48-34.88-71.37-61.89-117.06-63.49c-45.54-1.75-93.41,26.86-104.8,71.08
	c-17.37,66.85,48.02,140.55,16.49,201.86c-11.97,23.21-40.87,12.84-69.91,23.35c-18.39,6.71-46.41,22.33-52.98,53.42
	c-4.52,21.6,26.13,21.46,38.68,17.95c15.91-4.38,29.34-14.89,42.33-25.1c16.64,2.48,17.95,26.71,10.65,42.03
	c-7.15,15.33-18.54,31.96-11.68,47.44c6.86,15.47,29.63,21.16,32.11,37.95c2.34,15.76-14.74,26.42-28.02,35.18
	c-28.9,19.12-50.21,60.72-28.32,87.57c35.03-10.8,49.33-61.88,87.28-65.24c18.39-1.61,38.39,17.81,30.21,34.45
	c45.54,6.71,91.66-56.48,128.59-29.04c19.12,14.01,17.66,41.31,69.47,36.2c90.64-8.9,114.14-60.43,144.93-57.94
	c20.43,1.75,31.82,24.08,48.75,35.61c35.47,23.94,81.3-4.09,122.89-14.16c21.46-5.25,44.08-5.4,65.39-11.82
	C809.04,613.92,812.83,569.41,794.88,565.32L794.88,565.32z"/>
</svg>
