<?xml version="1.0" encoding="utf-8"?>
<!-- Generator: Adobe Illustrator 24.1.2, SVG Export Plug-In . SVG Version: 6.00 Build 0)  -->
<svg version="1.1" id="Layer_1" xmlns="http://www.w3.org/2000/svg" xmlns:xlink="http://www.w3.org/1999/xlink" x="0px" y="0px"
	 viewBox="0 0 810 810" style="enable-background:new 0 0 810 810;" xml:space="preserve">
<path d="M470,191.02c-18.1,34.61-48.63-5.15-32.65-38.51C451.9,121.8,485.09,151.09,470,191.02L470,191.02z M438.94,285.07
	c-0.71,10.83-2.48,41.88-17.04,21.65c-1.95-2.48-5.86-4.44-8.87-2.31c-10.29,7.45-9.58,45.08-10.47,58.74
	c-4.26-6.74-9.23-12.96-13.49-19.7c-13.31-20.76-14.55-41.7-14.73-65.13c23.07,2.66,46.14-2.66,64.42-16.5
	C439.3,269.46,439.3,277.27,438.94,285.07L438.94,285.07z M353.05,205.21c-26.62,0-26.8-66.37,0-66.37
	C379.85,138.84,379.85,205.04,353.05,205.21L353.05,205.21z M618.9,175.22c-16.68-49.87-39.75-100.27-80.92-133.1
	C459.53-20.35,336.19,3.79,264.85,74.07c-71.34,70.45-99.38,174.1-107.19,274.19c-8.34,106.66-11.36,213.49-4.61,320.33
	c1.06,53.06-3.37,142.33,50.05,137.36c83.05-7.99,55.72-150.49,92.64-225.21c33.36,65.66-15.26,186.87,50.76,199.65
	c71.87,13.67,58.39-137.54,113.22-188.47c10.47,56.79-33.36,164.69,23.43,167.88c61.23,3.37,37.98-112.87,80.57-165.22
	c11.71,61.4-26.09,188.83,28.39,169.66C663.44,739.03,682.78,365.82,618.9,175.22L618.9,175.22z"/>
</svg>
