<?xml version="1.0" encoding="utf-8"?>
<!-- Generator: Adobe Illustrator 24.1.2, SVG Export Plug-In . SVG Version: 6.00 Build 0)  -->
<svg version="1.1" id="Layer_1" xmlns="http://www.w3.org/2000/svg" xmlns:xlink="http://www.w3.org/1999/xlink" x="0px" y="0px"
	 viewBox="0 0 810 810" style="enable-background:new 0 0 810 810;" xml:space="preserve">
<path d="M359.1,201.18c-23.52,0-23.52-68.89,0-68.89C382.47,132.29,382.47,201.18,359.1,201.18L359.1,201.18z M347.18,251.9
	c-2.29,20.32-10.39-2.9-17.72,0c-3.21,1.37-5.96,11.91-5.5,19.4c-4.74-2.14-18.18-35.74-16.5-43.08
	c2.14-9.93,11.92-16.04,21.69-13.75C339.39,216.77,349.32,232.65,347.18,251.9L347.18,251.9z M288.22,201.18
	c-23.52,0-23.52-68.89,0-68.89C311.59,132.29,311.59,201.18,288.22,201.18L288.22,201.18z M622.45,568.72
	c-0.61-3.05-2.6-5.65-4.89-7.94c-14.51-14.51-37.27-15.28-56.98-20.62C437.62,507,485.12,340.19,482.68,247.32
	c-1.99-77.75-20.32-161.16-78.67-212.48c-14.21-12.53-30.86-22.91-49.34-27.34c-37.58-8.86-77.91,8.71-104.03,37.12
	c-26.27,28.41-40.33,65.84-49.19,103.57c-27.19,114.87-6.87,238.45,49.19,341.87c27.34,50.41,59.88,94.25,107.39,126.02
	c40.79,27.19,63.39,61.56,46.13,113.65c-9.17,27.34-3.36,75.16,25.36,75.46c12.07,0,20.62-59.27,26.43-73.48
	c8.55-20.77,26.12-62.32,33.15-65.07c10.85-4.28,36.97,43.23,58.66,65.07c22.15,22.15,47.2,16.65,42.31-12.83
	c-7.03-42.47-50.56-64-61.87-103.11c-15.43-53.16,61.41-11.61,87.22-31.77C620.01,580.33,623.83,574.52,622.45,568.72L622.45,568.72
	z"/>
</svg>
