<?xml version="1.0" encoding="utf-8"?>
<!-- Generator: Adobe Illustrator 24.1.2, SVG Export Plug-In . SVG Version: 6.00 Build 0)  -->
<svg version="1.1" id="Layer_1" xmlns="http://www.w3.org/2000/svg" xmlns:xlink="http://www.w3.org/1999/xlink" x="0px" y="0px"
	 viewBox="0 0 810 810" style="enable-background:new 0 0 810 810;" xml:space="preserve">
<path d="M584.55,199.59c-11.39-2.53-4.88,23.15-5.43,34.9c-0.18-2.53-7.96-6.69-9.22,6.33c-1.99,23.33-8.5,64.74-28.57,79.21
	c-11.21,7.96-26.94,8.86-38.88,2.17c-14.65-19.71-20.8-44.67-21.52-69.26c-0.9-36.35,16.46-119.35,23.51-158.78
	c4.52-25.14,9.04-51.72-0.18-75.41c-4.52-11.39-18.63-13.02-24.05,11.75c-7.23,34.18-18.81,67.63-34.54,98.92
	c-8.86,17.9-7.96,19.71-4.34,38.16c5.24,27.31-0.54,56.42-15.91,79.39c-18.99-26.4-24.23-60.04-28.93-92.23L379.84,41.18
	c-1.27-10.13-0.36-21.34-7.05-30.02c-4.88-6.33-15.55-9.04-21.16-3.26c-5.97,6.33-2.53,16.64-4.16,25.14
	c-1.08,5.43-4.34,10.31-5.43,15.73c-2.35,12.3,6.69,23.69,9.04,36.17c3.44,18.27-8.14,36.35-7.41,54.98
	c0.36,16.28,10.13,30.74,17,45.39c16.28,34,0.18,59.5-6.33,43.94c-10.67-25.68-21.52-51.18-32.19-76.86
	c-9.95-23.69-20.07-47.92-22.24-73.6c-2.89-33.09-10.85-24.78-17.54-32.37c-3.07-3.44-2.53-8.86-4.52-13.02
	c-3.62-7.96-17.54-7.6-20.8,0.54c-4.16,9.77,5.97,19.71,5.97,30.38c0,4.7-1.99,9.22-3.26,13.74c-6.15,25.14,16.82,48.65,17.54,74.51
	c0.54,23.33-5.24,20.07,9.77,38.88c18.63,23.33,20.62,55.16,20.8,84.81c-50.45-50.63-50.09-117.37-64.92-129.66
	c-2.89-2.53-6.87-3.8-9.58-6.51c-4.88-4.7-5.43-12.12-7.6-18.45c-5.24-14.83-23.33-16.64-20.8,7.41
	c1.08,10.31,3.44,43.94,7.23,51.72c2.35,4.88,6.33,8.86,9.22,13.56c7.6,12.48,6.15,28.39,10.67,42.32
	c5.61,16.82,19.35,29.12,30.56,42.68c27.13,33.27,39.42,75.95,51.18,117.36c15.73,55.7,25.5,74.32,34.18,134.54
	c4.7,45.39,0,91.14-0.36,136.53c0,15.19-9.4,130.02,7.23,136.17c6.51,2.53,21.88-1.99,28.93-2.71l83.01-7.78
	c20.8-1.99,12.48-13.74,13.38-43.04c0.72-25.5,1.81-51.18,1.63-76.49c-0.18-56.24,1.99-111.22,18.99-165.47
	c14.83-46.84,55.52-80.84,77.22-124.96C621.44,295.62,598.29,202.49,584.55,199.59L584.55,199.59z"/>
</svg>
