<?xml version="1.0" encoding="utf-8"?>
<!-- Generator: Adobe Illustrator 24.1.2, SVG Export Plug-In . SVG Version: 6.00 Build 0)  -->
<svg version="1.1" id="Layer_1" xmlns="http://www.w3.org/2000/svg" xmlns:xlink="http://www.w3.org/1999/xlink" x="0px" y="0px"
	 viewBox="0 0 810 810" style="enable-background:new 0 0 810 810;" xml:space="preserve">
<path d="M541.49,368.78c14.86-23.95,21.47-54.29,26.22-81.96l26.63-4.13c22.91-8.26,36.33-25.39,43.97-47.48
	c4.95-14.66-3.92-7.84,17.75-22.5c19.61-17.55,26.63-43.15,11.77-65.85c24.98-49.34-21.88-65.23-40.26-36.75
	c-5.57,8.67-4.95,17.75-7.64,27.25c-3.72,13.01-9.08,26.01-13.42,38.81c-23.74,69.57-32.41,52.85-69.36,64.82
	c-0.21-0.41-0.41-0.83-0.62-1.24c40.87-30.14,82.37-84.64,76.38-137.49c-1.03-9.5-5.57-16.1-4.34-24.98
	c1.24-9.91,7.02-16.72,4.54-27.25c-3.51-14.66-18.17-23.33-32.82-17.75c-14.86,5.78-15.69,23.12-33.86,45.62
	c-22.91,28.49,0.41,65.85-15.48,95.58c-7.43,13.83-33.86,27.87-49.96,28.9c-12.59,0.83-17.96,10.73-7.84-17.75
	c4.95-14.66,21.88-28.49,29.93-73.49c6.19-34.27-0.21-50.78,1.24-56.98c1.03-4.75,7.84-9.91,9.7-14.86
	c5.57-15.28-1.65-32.62-18.79-34.89c-21.47-2.68-30.14,18.99-42.53,30.97c-20.64,20.64-17.13,43.76-32,66.89
	c-13.21,20.85-8.05,35.71-10.94,58.63c-2.68,21.47-25.19,44.8-35.09,13.42c-13.01-42.11,21.88-65.44,31.17-86.5
	c3.51-8.26,2.89-16.31,5.57-24.57c2.48-8.05,8.67-12.39,8.05-22.09c-1.03-16.52-15.9-23.53-30.76-24.36
	c-26.63-1.65-39.84,9.08-50.37,30.14c-11.35,22.5-20.44,45.62-29.93,69.57c-15.48,39.02,26.84,42.73,2.89,93.52
	c-6.19,12.8-7.23,23.53-3.51,33.03c-7.43-0.62-14.86-0.41-22.71,1.24c-1.24-7.43-5.78-12.59-14.45-15.28
	c9.29-19.2,3.92-33.24,7.43-51.2c2.48-13.42,6.4-26.42-5.37-37.16c-22.5-20.64-61.52,14.66-63.58,37.78
	c-0.41,5.16,4.13,13.01,3.3,16.93c-2.68,15.07-39.22,46.24-26.42,67.3c7.43,12.39,26.63,18.58,41.91,23.33
	c-9.08,30.14,8.67,46.86,36.54,61.31c46.04,23.95,68.74,63.38,74.52,113.95c4.95,43.15,2.48,87.53,1.24,131.29
	c-19.61-0.83-38.81,3.72-60.49,10.53c-14.86,4.75-31.59,6.81-45.42,14.66c-9.5,5.37-11.77,13.21-18.37,20.02
	c-18.58,18.58-99.92,48.1-77.83,87.32c11.97,21.47,68.33,49.96,92.9,59.87c8.88,3.51,19.41,4.34,27.87,8.05
	c0.41,0.21,7.23,7.23,14.45,9.5c15.9,4.95,34.68-2.48,50.37-3.72c30.97-2.48,56.15-2.06,77.41-23.74
	c30.97,36.13,88.56,39.84,119.32,2.06c33.86,23.12,85.88,9.29,90.83-29.52c28.9,9.7,41.08-8.26,46.04-35.51
	c6.61-35.71-30.55-56.56-62.55-61.52c3.51-22.09-22.3-34.47-44.18-39.43c-2.89-22.3-36.95-28.69-60.49-22.91l-3.3-153.18
	c-0.41-10.32-1.45-17.75-4.54-23.12C506.6,405.52,526.83,392.52,541.49,368.78L541.49,368.78z"/>
</svg>
