<?xml version="1.0" encoding="utf-8"?>
<!-- Generator: Adobe Illustrator 24.1.2, SVG Export Plug-In . SVG Version: 6.00 Build 0)  -->
<svg version="1.1" id="Layer_1" xmlns="http://www.w3.org/2000/svg" xmlns:xlink="http://www.w3.org/1999/xlink" x="0px" y="0px"
	 viewBox="0 0 810 810" style="enable-background:new 0 0 810 810;" xml:space="preserve">
<path d="M483.08,287.93c-5.93,10.43-21.04,15.82-33.08,14.56c-11.87-1.26-60.78-4.67-71.56-9.89
	c-28.59-13.49-54.84-33.26-72.1-40.82c0-3.96,0-8.09,0-12.05c26.25-22.84,9.35-68.69,37.76-73.72
	c54.3-9.53,117.41,39.56,137.37,87.93C486.14,264.73,488.83,277.68,483.08,287.93L483.08,287.93z M621.89,488.6
	c-0.9-10.79-1.98-134.86,0.54-145.11c2.16-8.99,9.35-16.18,11.33-25.17c18.52-83.07,10.25-91.34-27.51-159.67
	c-10.61-19.24-17.44-10.61-27.51-52.32c-3.6-15.1-14.03-66.71-21.04-77.14c-10.07-15.1-47.11-26.61-61.85-24.81
	c-24.45,3.24-28.95,32.73,2.7,42.08c11.69,3.6,24.63,4.32,34.34,11.69c20.32,16,15.1,39.2,4.5,62.57
	c-18.7-38.3-65.45-78.94-78.94-91.52c-18.88-17.26-89.01-25.89-124.61-2.16c25.71,39.92,62.39,10.61,87.21,25.71
	c39.38,23.55,43.33,34.7,67.25,68.33c-36.32-25.89-75.34-47.83-116.16-65.63c-22.12-9.71-24.81-6.29-43.33,0.18
	c-18.16,6.29-38.3,4.67-57,8.99c-30.93,7.01-57.54,30.93-68.15,60.95c7.01,12.05,26.25,14.56,36.14,4.49
	c13.49-13.67,5.93-28.41,35.24-31.29c27.69-2.52,55.74-5.21,83.07,0c27.33,5.03,54.3,18.7,68.87,42.26
	c-26.97,9.89-58.26,7.37-83.43-6.83c-9.71-5.57-20.32-13.85-32.19-9.17c-12.77,4.86-7.55,16.9-8.63,23.56
	c-1.62,11.33,0.18,30.93-8.27,36.86c-12.23,8.63-30.03,31.83-31.47,46.93c-1.26,13.31,16.36,16.9,32.19,13.67c0,0.9,0,1.8,0,2.7
	c-8.63,0.18-28.23,17.62,0,44.59c0,56.1,0,112.02,0,168.12c-35.42,7.19-31.65,54.12-31.65,54.12l-33.08-36.68l-62.75,51.25
	l-2.16,14.92l17.26,1.44l47.83-53.4l28.23,36.86l-1.44,10.43l-53.58-1.26l-24.45,75.7l7.19,14.03l11.69-7.55l18.7-69.59l39.92-0.9
	l-27.87,44.77l31.83,67.97l15.82,2.34l3.42-14.56l-40.46-56.46l31.29-44.23c42.43,28.59,67.43,1.98,67.43,1.98l39.92,7.37
	l-22.66,49.09l0.54,18.7l15.82-3.42l15.64-72.28l-29.67-4.67l38.12-12.77l16,79.48l15.82,10.61l2.16-13.67l-29.49-83.43l-44.23,6.83
	l32.01-40.82l31.65,52.86l13.67,1.98l2.34-15.46l-50.17-53.76l-34.34,41c5.03-56.28-38.66-59.52-45.13-59.52
	c0-52.68,0-105.55,0-158.23c28.23,20.86,73,37.58,101.77,36.68c35.96-1.08,71.74-18.88,106.99-10.97
	c20.86,4.49,23.73,16,23.02,35.96L519.4,802c0,0,16.18-0.54,25.35-1.26c22.84-1.44,82.17,12.23,95.3-6.65
	c3.06-4.49,3.06-10.25,2.88-15.82C641.31,651.32,634.3,615,621.89,488.6L621.89,488.6z"/>
</svg>
