<?xml version="1.0" encoding="utf-8"?>
<!-- Generator: Adobe Illustrator 24.1.2, SVG Export Plug-In . SVG Version: 6.00 Build 0)  -->
<svg version="1.1" id="Layer_1" xmlns="http://www.w3.org/2000/svg" xmlns:xlink="http://www.w3.org/1999/xlink" x="0px" y="0px"
	 viewBox="0 0 810 810" style="enable-background:new 0 0 810 810;" xml:space="preserve">
<g>
	<path d="M804.84,695.95c-2.8-64.73-84.57-67.91-132.64-74.27l-60.53-8.14c-13.48-2.29-13.74-9.66-14.24-21.75
		c-2.29-48.45,19.08-95.25,7.88-141.03c-4.07-16.91-17.8-32.43-5.72-47.94c16.28-20.73,17.55-48.58,10.17-73
		c-12.21-40.95-34.08-47.56-14.24-62.19c4.58-3.43,10.3-4.96,14.88-8.9c25.18-22.64,15.9-57.48,27.6-85.59
		c8.65-20.98,24.67-14.5,42.09-15.9c8.01-0.64,17.42-3.94,20.73-12.21c7.5-18.57-23.91-32.81-36.5-38.15
		c-22.13-9.54-45.27-2.67-61.81,14.24c-25.94,26.45-21.49,59.13-44.26,63.46c-6.99,1.4-17.8-4.07-24.93-4.58
		c-29-2.29-53.29,25.43-72.36,43.49c-17.68,16.79-44.76,37.64-41.46,65.11c1.65,14.63,11.45,26.83,13.86,41.33
		c2.29,13.99-11.32,24.93-24.42,26.07c-8.9,0.64-17.17,1.53-25.82,4.07c-62.57,19.33-89.02,96.27-93.98,101.1
		c-1.27,0.51-2.29,1.53-3.05,2.92c-10.81,19.84-28.87,56.21-56.72,58.25c-25.31,1.91-35.1-28.49-76.43-34.08
		c-70.58-9.66-112.8,46.29-146.88,98.05c-2.16,3.43-0.64,9.16,4.07,9.28c37.01,1.53,73.89,3.05,110.89,4.58
		c34.21,1.4,69.56-0.51,100.97,15.01c31.79,15.77,61.93,31.79,95.38,44c77.19,28.36,102.76,47.31,188.34,36.24
		c37.01-4.71,78.97-18.19,115.09-4.32c28.36,10.81,49.6,19.84,80.5,14.12c26.96-5.09,71.73-30.65,93.34-4.07
		c2.92,3.56,10.17,2.67,10.3-2.8C805.22,697.61,805.09,696.84,804.84,695.95z M206.11,569.54l-12.72-11.57l-15.01,8.52l7.12-15.77
		l-12.72-11.57l17.17,1.91l7.12-15.77l3.43,16.91l17.17,1.91l-15.01,8.52L206.11,569.54z M561.05,212.82l7.76-17.04l3.82,18.44
		l18.69,2.03l-16.41,9.28l3.82,18.44l-13.86-12.72l-16.41,9.41l7.76-17.17l-13.86-12.72L561.05,212.82z M529,329.95l4.58,22.64
		l23.02,2.54l-20.09,11.45l4.71,22.64l-17.17-15.64l-20.09,11.45l9.54-20.98l-17.04-15.64l23.02,2.54L529,329.95z M487.29,236.61
		l5.21-11.45l2.54,12.34l12.46,1.4l-10.94,6.23l2.54,12.34l-9.28-8.52l-10.94,6.23l5.21-11.45l-9.28-8.52L487.29,236.61z
		 M464.01,471.24l-9.28-8.52l-11.06,6.23l5.21-11.45l-9.28-8.52l12.59,1.4l5.21-11.45l2.42,12.34l12.59,1.4l-10.94,6.23
		L464.01,471.24z M425.48,290.02l1.4,0.25l9.28-20.47l4.45,22l22.26,2.42l-19.46,11.06l4.58,22l-13.23-12.08
		C431.2,306.93,427.01,298.67,425.48,290.02z M378.55,407.02l7.12-15.77l3.43,16.91l17.17,1.91l-15.01,8.52l3.43,16.91l-12.72-11.57
		l-15.01,8.52l7.12-15.77l-12.72-11.57L378.55,407.02z M330.48,597.9l-13.74-12.46l-16.15,9.16l7.63-16.91l-13.73-12.59l18.44,2.16
		l7.76-16.91l3.69,18.19l18.44,2.04l-16.15,9.16L330.48,597.9z M263.08,518.42c13.73-12.72,22.76-29.63,31.79-46.04
		c33.57,2.29,66.64,8.14,99.32,16.02c-5.21,17.3-10.3,34.59-15.52,51.89C339.51,531.9,302.76,531.01,263.08,518.42z M420.78,654.75
		l-9.67-8.77l-11.32,6.36l5.34-11.83l-9.54-8.78l12.97,1.53l5.34-11.83l2.54,12.72l12.97,1.4l-11.32,6.49L420.78,654.75z
		 M450.15,603.12l-14.37,8.14l6.87-15.01l-8.77-7.88c9.28,2.67,18.57,5.47,27.85,8.27l-2.67,1.4l3.31,16.28L450.15,603.12z
		 M391.65,557.59c7.63-25.43,15.13-50.74,22.76-76.18c25.43,7.5,50.74,15.13,76.18,22.76c-7.63,25.31-15.13,50.74-22.76,76.18
		C442.52,572.72,417.09,565.22,391.65,557.59z M538.54,651.7l-13.73-12.59l-16.15,9.16l7.63-16.91l-13.73-12.46l18.57,2.04
		l7.63-16.91l3.69,18.19l18.44,2.03l-16.15,9.28L538.54,651.7z M586.74,602.74c-24.67-7.76-49.98-13.35-74.52-21.24
		c-8.01-2.67-16.15-5.34-24.16-8.01c5.34-17.93,10.68-35.86,16.02-53.67c28.49,9.03,56.72,18.95,83.93,31.41
		C585.97,566.87,584.7,586.84,586.74,602.74z M566.77,471.37l6.61,31.67l-23.91-21.75l-28.1,15.9l13.35-29.38l-23.91-21.75
		l32.17,3.56l13.35-29.5l6.49,31.67l32.05,3.69L566.77,471.37z"/>
	<rect x="414.8" y="509.63" transform="matrix(0.2858 -0.9583 0.9583 0.2858 -195.8093 802.7358)" width="51.62" height="46.19"/>
</g>
</svg>
