<?xml version="1.0" encoding="utf-8"?>
<!-- Generator: Adobe Illustrator 24.1.2, SVG Export Plug-In . SVG Version: 6.00 Build 0)  -->
<svg version="1.1" id="Layer_1" xmlns="http://www.w3.org/2000/svg" xmlns:xlink="http://www.w3.org/1999/xlink" x="0px" y="0px"
	 viewBox="0 0 810 810" style="enable-background:new 0 0 810 810;" xml:space="preserve">
<path d="M513.48,535.64c-24.29-0.34-47.74-6.24-70.86-13.33c6.92-24.97,14.51-49.94,22.61-74.57
	c53.65,14.34,109.49,10.63,159.59-18.56c8.6,42.35-3.88,65.63,15.69,66.98c9.45,0.51,18.56,1.18,27.5,2.36
	C618.08,516.57,564.77,536.31,513.48,535.64L513.48,535.64z M319.13,469.67c9.28-23.62,32.22-82.33,45.21-101.39
	c22.27,7.59,61.24,27.16,84.35,37.96c-12.15,32.05-22.44,64.61-31.04,97.68C382.57,501.73,342.41,496.16,319.13,469.67
	L319.13,469.67z M102.01,258.12c42.51-31.21,94.47-35.6,145.93-30.2c27.16,61.75,33.91,92.96,84.01,142.22
	c-13.66,30.54-26.65,61.24-39.31,92.28C211.84,413.66,152.79,337.24,102.01,258.12L102.01,258.12z M777.67,547.95
	c-18.39-29.02-44.2-53.65-76.59-65.8c-12.99-4.72-33.57-7.09-48.08-8.27c0.34-17.38-3.88-54.32-10.97-68.66
	c-15.01-33.74-45.04-52.13-64.78-82.5c-28.51-43.36,9.11-84.69,43.69-110.5c45.04,50.61,80.81,107.97,105.95,170.9
	c4.39,11.14,23.28,10.97,22.78-3.21c-5.57-117.59,11.81-224.88-89.75-308.56c-83.85-69.17-198.4-92.11-292.37-29.69
	c-60.06,39.98-97.34,98.36-122.48,162.63c-60.9-6.24-117.42,3.21-166.68,43.02c-0.84,0.67-1.52,1.52-2.02,2.53
	c-20.08,17.38-36.95,38.97-49.09,64.78C1.63,368.79-9,452.8,44.31,495.15c13.33,10.46,27.5,12.99,43.19,18.39
	c27.33,9.45,32.39,25.47,41,50.44c33.74,96.5,111.35,39.98,156.22,102.07c17.38,23.96,30.03,52.97,58.37,65.8
	c41.16,18.56,83.34-12.99,124.67-1.35c36.78,10.46,58.88,47.91,91.94,65.29c51.96,27.5,95.15-12.99,130.07-20.75
	c25.47-5.74,47.74,10.29,78.28-28.01C812.76,690.68,816.31,609.19,777.67,547.95L777.67,547.95z"/>
</svg>
