<?xml version="1.0" encoding="utf-8"?>
<!-- Generator: Adobe Illustrator 24.1.2, SVG Export Plug-In . SVG Version: 6.00 Build 0)  -->
<svg version="1.1" id="Layer_1" xmlns="http://www.w3.org/2000/svg" xmlns:xlink="http://www.w3.org/1999/xlink" x="0px" y="0px"
	 viewBox="0 0 810 810" style="enable-background:new 0 0 810 810;" xml:space="preserve">
<path d="M586.41,603.59c-46.99,5.28-94.67,5.96-142.17,5.11c-2.89-24.86-4.94-49.89-5.96-74.75c36.61-0.34,73.04-0.34,109.48,1.36
	c3.23,14.47,9.02,28.09,11.07,42.74c0.68,4.43,5.96,6.13,9.53,5.45c7.83-1.36,15.66-2.72,23.33-4.26
	C589.64,587.25,587.94,595.42,586.41,603.59L586.41,603.59z M358.6,601.21c-0.17-19.24-1.53-40.01,1.53-58.91
	c15.32-0.34,30.65,1.02,45.8,2.04c0.85,17.88,2.04,35.59,4.26,53.29C393.5,602.91,375.45,607,358.6,601.21L358.6,601.21z
	 M325.22,604.44c-41.37-2.55-82.07-7.32-122.42-16.17c-18.56-4.09-22.13-8.68-25.37-21.45c7.32,1.87,14.64,3.58,21.79,5.45
	c4.43,1.02,8.17-1.36,9.7-5.45c5.96-16.69,18.22-32.52,27.41-48.18c30.48,4.94,60.27,9.88,90.41,12.77
	C324.03,555.41,324.71,580.26,325.22,604.44L325.22,604.44z M801.96,456.99c-2.72-1.53-6.3-1.7-9.02,1.19
	c-62.83,65.89-89.22,80.02-178.78,100.46l-41.54,8.34l-11.75-43.08c-6.81-30.14-10.05-61.64-15.32-91.77
	c-1.36-8.17-10.56-5.11-14.98-3.41c-15.15-69.13-46.82-132.47-80.02-194.78c-12.43-22.99-24.35-48.36-50.74-57.89
	c-52.95-18.73-105.56,30.82-146.6,50.23c-38.14,18.22-88.54,13.11-110.84-27.24c-12.94-22.99,3.23-66.06,29.29-76.11
	c10.9-4.09,19.07,0.51,25.2,10.05c6.64,10.73,5.45,10.22-4.77,13.28c-5.45,1.53-12.6-0.34-17.54,3.23
	c-18.05,12.6,34.05,53.29,62.49,17.54c22.31-27.75,4.43-66.06-25.54-78.32c-34.39-14.13-75.94,2.21-100.63,27.58
	c-24.86,25.71-25.37,64.19-10.73,95.86c24.52,52.44,113.06,69.98,164.65,85.81c47.5,14.64,32.01,55.85,17.37,89.22
	c-17.37,39.67-35.24,80.02-56.02,118.16l-29.29,50.23l-59.76-16.52c-35.42-11.24-91.09-25.71-110.84-60.1
	c-3.41-6.13-12.09-4.43-14.13,1.87c-25.03,76.96,35.41,131.61,91.09,174.01c28.26,21.45,60.61,43.59,94.33,55.17
	c18.39,6.47,30.82,3.41,39.33-8c2.72,9.19,6.13,16.52,18.56,20.26c25.54,7.66,58.57,3.06,84.96,2.38
	c63.51-1.19,126.68-7.32,189.5-17.2c4.94-0.85,5.96-7.49,7.32-11.92c16.35,10.39,40.35,2.72,58.57-2.55
	c36.95-10.73,73.89-23.67,105.05-46.65c58.23-43.25,83.09-114.42,105.05-180.48C807.24,461.59,805.03,458.36,801.96,456.99
	L801.96,456.99z"/>
</svg>
