<?xml version="1.0" encoding="utf-8"?>
<!-- Generator: Adobe Illustrator 24.1.2, SVG Export Plug-In . SVG Version: 6.00 Build 0)  -->
<svg version="1.1" id="Layer_1" xmlns="http://www.w3.org/2000/svg" xmlns:xlink="http://www.w3.org/1999/xlink" x="0px" y="0px"
	 viewBox="0 0 810 810" style="enable-background:new 0 0 810 810;" xml:space="preserve">
<path d="M557.69,456.49c-27.6,18.45-57.36,30.42-88.78,36.91c-0.5-27.43-0.83-54.86-1.16-82.29c29.59-9.98,57.85-26.6,81.63-47.05
	c8.48-7.31,11.47-12.64,23.11-11.64c7.81,0.67,16.13,3.49,23.94,4.99c18.62,3.49,35.08,8.65,51.2,17.79
	C619.53,404.12,591.43,434.21,557.69,456.49L557.69,456.49z M318.95,532.8c-0.67-46.22-1.16-92.43-1.83-138.49
	c46.22-0.67,92.27-1.33,138.49-1.83c0.67,46.22,1.16,92.27,1.83,138.49C411.22,531.47,365.17,532.13,318.95,532.8L318.95,532.8z
	 M121.28,422.91c22.44-15.13,44.89-30.09,67.5-45.22c2.49-1.83,12.63-10.97,15.79-10.81c1.5,0.17,16.62,12.3,21.94,15.3
	c24.77,13.63,51.54,23.44,78.97,29.93c0.33,25.6,0.66,51.2,1,76.81C241.81,475.61,178.47,451.17,121.28,422.91L121.28,422.91z
	 M744.05,445.68c-62.68-13.96-39.23-93.1-111.05-101.41c-40.07-4.65-75.31,3.16-100.58-36.08c-22.78-35.58-41.89-74.15-62.51-110.89
	c-17.95-32.09-33.91-68.66-58.85-95.93c-22.78-24.77-53.7-31.59-84.62-41.23C270.07,42.7,225.02-22.81,165.84,25.4
	C104.49,75.28,62.6,152.25,40.82,226.9c-1.5,4.82,2.99,8.15,7.31,7.32c58.85-10.47,89.94-81.63,137.65-88.94
	c17.95-2.83,27.76,12.47,42.89,18.62c7.31,2.99,14.96,4.16,22.11,7.98c5.98,3.33,15.13,11.97,13.63,20.28
	c-0.33,1.83-5.15,4.32-6.15,5.99c-12.14,21.45-14.8,19.95-14.46,45.05c0.5,42.39-3.82,43.06-22.61,81.46
	c-1.99,4.16-4.49,8.48-6.15,12.8c-2.66,6.82-1.83,16.63-10.14,17.12l-10.31,3.16c-7.98,3.49-15.96,7.31-23.61,11.47
	c-24.6,12.97-44.89,29.76-64.01,49.04l-13.3,13.96C57.77,471.95,8.07,521.99,4.91,578.85c-2.49,47.21,48.54,99.25,94.93,80.46
	c-4.65,36.41-1.33,75.31,24.94,103.41c22.78,24.6,59.68,35.41,89.28,15.96c13.96-9.31,17.95-20.95,25.44-34.75
	c1.66-3.32-4.82-14.3,17.12-8.15c33.91,9.48,63.01,74.15,122.03,68.99c32.25-2.83,55.86-21.28,70.82-48.71
	c7.65-13.96,13.96-41.56,48.05-26.93c24.94,10.81,39.07,42.23,82.79,47.88c57.85,7.65,106.9-38.57,102.58-98.42
	c-1-13.13-6.32-28.26,0.17-41.06C698,608.11,794.76,590.49,804.07,518C809.72,474.78,782.95,453.66,744.05,445.68L744.05,445.68z"/>
</svg>
