<?xml version="1.0" encoding="utf-8"?>
<!-- Generator: Adobe Illustrator 24.1.2, SVG Export Plug-In . SVG Version: 6.00 Build 0)  -->
<svg version="1.1" id="Layer_1" xmlns="http://www.w3.org/2000/svg" xmlns:xlink="http://www.w3.org/1999/xlink" x="0px" y="0px"
	 viewBox="0 0 810 810" style="enable-background:new 0 0 810 810;" xml:space="preserve">
<g>
	<path d="M773.11,591.37c-33.81-16.47-141.7-49.92-141.7-49.92l-412.85,31.53c0,0-274.3,78.82-195.3,125.06
		c24.17,14.36,60.26,42.21,106.32,35.38c68.14-9.98,198.11-23.3,274.3-20.14c60.08,2.63,184.44,32.58,239.79,19.79
		c44.32-10.16,143.98-20.67,162.02-82.32C810.59,634.46,816.02,611.87,773.11,591.37z"/>
	<polygon points="370.24,484.88 230.29,497.66 220.3,559.85 368.31,542.16 	"/>
	<polygon points="474.99,475.94 478.14,533.75 619.84,527.79 591.29,465.78 	"/>
	<polygon points="463.42,477.52 386.18,484.18 385.65,540.4 461.67,533.75 462.37,511.33 438.55,518.33 434.7,497.84 462.9,492.06 	
		"/>
	<path d="M518.6,271.01c-0.7-12.26-8.93-13.49-13.66-24.87c10.51-3.85,17.69-7.18,8.93-40.29c0,0,19.09-2.1,25.05-11.56
		c15.94-25.92,62.01-46.94,90.38-35.73c28.38,11.21,49.57,35.56,66.91,60.61c1.75,2.63,3.68,5.43,3.68,8.58
		c0,6.31-9.28,16.82-28.55,0.35c8.41,21.54,42.56,18.74,41.51,9.11c-10.16-46.07-42.39-76.02-74.09-107.55
		c-76.37-76.02-173.23-72.69-246.8,6.66c-34.33,36.96-56.75,83.2-77.07,129.44c-30.65,70.41-57.8,142.58-80.75,215.97
		c117.01-11.21,234.19-22.25,351.2-33.46C553.63,393.09,522.98,334.59,518.6,271.01z"/>
</g>
</svg>
