<?xml version="1.0" encoding="utf-8"?>
<!-- Generator: Adobe Illustrator 24.1.2, SVG Export Plug-In . SVG Version: 6.00 Build 0)  -->
<svg version="1.1" id="Layer_1" xmlns="http://www.w3.org/2000/svg" xmlns:xlink="http://www.w3.org/1999/xlink" x="0px" y="0px"
	 viewBox="0 0 810 810" style="enable-background:new 0 0 810 810;" xml:space="preserve">
<path d="M414.71,620.28v16.37H373v-19.19c-2.11,0-4.05,0-5.28,0c-38.55,0.35-69-5.1-106.84-13.03
	c-9.68-1.94-14.96-14.43-10.21-15.67c8.45-2.11,42.95,6.16,52.1,7.75c23.23,4.22,46.82,6.34,70.23,6.51v-19.89h41.72v20.77
	c44-2.11,76.57-8.27,118.81-23.41c1.76,4.58,3.52,9.15,5.28,13.91C497.62,607.78,457.66,616.41,414.71,620.28L414.71,620.28z
	 M285.34,508.68c16.19-0.88,33.27,2.64,49.46,3.34c31.68,1.06,63.72,0,94.7-6.86c22.35-5.1,45.76-13.03,67.06-5.28
	c12.85,4.58,7.22,15.31-2.64,22.35c-16.9,11.79-33.8,23.76-50.69,35.73c-0.18-5.63-1.76-11.27-4.58-16.19
	c6.86-1.94,14.08-3.87,19.54-8.62c5.46-4.58,8.63-12.85,5.46-19.19c-23.41,11.44-49.11,18.13-75.16,19.54
	c-35.2,2.11-69.7-15.49-105.08-12.32C254.19,523.82,272.14,509.39,285.34,508.68L285.34,508.68z M239.4,150.31
	c-0.18-10.03-2.82-14.43-11.62-16.72c17.07-7.39,20.95-12.85,31.16,2.64c1.23,1.76,1.94,3.34,1.76,5.1
	C254.01,145.21,246.62,148.02,239.4,150.31L239.4,150.31z M214.58,158.76c-3.17-5.63-9.33-8.8-16.37-12.15
	c7.57-3.52,15.31-6.86,22.88-10.21c5.1,2.46,13.73-0.88,13.55,15.31C227.96,153.66,221.09,155.77,214.58,158.76L214.58,158.76z
	 M191.35,144.5c-2.29-1.23-4.93-12.15-27.46-10.56c7.92-5.63,15.84-10.91,24.29-15.67c19.71-3.34,22.53,8.1,28.69,14.96
	C208.42,136.93,199.8,140.63,191.35,144.5L191.35,144.5L191.35,144.5z M158.08,132.53c-1.58-7.57,1.23-18.31-11.09-23.23
	c8.98-2.64,37.32-7.39,39.25,4.75C176.39,119.68,167.06,125.85,158.08,132.53L158.08,132.53z M198.57,107.19
	c-2.64,1.41-5.28,2.82-7.92,4.4c-0.53-2.29-1.76-4.05-3.34-5.46C191,106.31,194.87,106.84,198.57,107.19L198.57,107.19z
	 M238.52,113.17c2.29,2.46,3.7,5.63,3.87,9.15c-6.87,2.82-13.55,5.63-20.42,8.62c-2.29-1.76-9.33-16.02-23.76-18.31
	c2.82-1.41,5.63-2.99,8.45-4.4C217.22,109.83,227.96,111.76,238.52,113.17L238.52,113.17z M260.7,115.11
	c-4.58,1.76-9.15,3.7-13.73,5.46c-0.35-2.46-1.06-4.58-2.11-6.51C250.14,114.58,255.42,114.93,260.7,115.11L260.7,115.11z
	 M264.92,138.52c-1.76-6.16-6.69-12.32-12.15-15.31c9.68-3.7,17.95-7.57,27.11-8.8C279.53,124.79,273.37,132.53,264.92,138.52
	L264.92,138.52z M107.92,482.28c-5.63,6.51-23.41-8.63-17.95-15.14C95.59,460.63,113.37,475.59,107.92,482.28L107.92,482.28z
	 M121.29,469.61c11.79-10.03,20.24,0,8.45,10.03C117.95,489.67,109.32,479.64,121.29,469.61L121.29,469.61z M763.58,529.1
	c-7.92,6.69-15.84,13.2-24.29,19.36c-54.04,38.9-127.79,48.76-190.45,25.7c7.22-6.69-19.01-47.35-24.11-55.8
	c-23.94-39.96-27.28-53.16-39.43-99.45c-12.5-48.05-33.09-93.99-60.55-135.18c-21.12-31.68-30.28-34.15-62.66-43.83
	c-36.79-10.91-71.11-29.57-100.33-54.39c42.24-2.29,82.9-24.11,108.43-57.73c14.61-19.71,3.17-30.45-19.19-35.2
	c-64.95-13.73-130.08-27.46-195.03-41.19c-47.52,32.92-89.77,73.4-124.8,119.34c-22.53,29.57-23.06,45.94-6.34,81.5
	c16.02,34.32,38.55,63.37,80.44,52.28v112.47c-26.4,4.58-23.76,38.9-23.76,38.9l-23.59-26.23l-45.06,36.79L11.28,477l12.32,1.06
	l34.5-38.37l20.24,26.58l-1.06,7.39l-38.55-0.88l-17.6,54.57l5.28,9.86l8.27-5.28l13.55-49.99l28.69-0.7l-20.07,32.21l22.71,48.76
	l11.62,1.76l2.29-10.56l-29.04-40.48l22.53-31.86c30.45,20.59,48.4,1.58,48.4,1.58l28.69,5.1l-16.37,35.38l0.53,13.38l11.27-2.46
	l11.27-51.92l-21.3-3.34l27.28-9.15l11.44,57.03l11.44,7.74l1.58-9.86l-21.12-59.85l-31.68,4.75l22.88-29.22l22.71,37.84l9.86,1.58
	l1.76-11.09l-36.08-38.72l-24.64,29.4c3.52-40.48-27.63-42.6-33.44-42.77V302.57c46.82-17.43,47.35-75.86,17.43-102.62
	c-9.33-8.27-23.59-13.73-34.15-7.04c-8.1,5.1-20.24,29.57-26.05,39.6c10.91,5.63,20.59,11.79,30.1,5.81
	c-1.23,0.7,23.76-23.06,23.41-11.62c-2.64,76.57-59.85,52.8-66.53,19.36c-4.05-20.59,4.93-41.36,14.79-60.02
	c15.84-30.1,36.79-60.9,67.77-73.75c7.22,1.06,12.85,3.87,14.79,12.5c0.7,3.34,1.06,7.04,1.41,10.56c-2.64,1.94-5.1,3.87-7.57,5.98
	c-2.46,1.94,0.88,5.1,3.17,3.34c2.64-2.11,5.11-4.05,7.57-5.98c8.98,0.88,25.35-2.64,29.22,7.92c-7.74,3.52-15.67,7.04-23.41,10.56
	c-2.82,1.41-0.35,5.46,2.46,4.05l23.94-10.56c7.74-0.35,16.72,2.82,20.59,10.21c-22.71,12.32-25.35,30.28-14.43,52.45
	c26.58,53.68,69.7,52.1,80.09,68.82c3.17,5.11,3.7,11.44,4.22,17.43c3.52,44.71,6.86,89.42,9.68,134.3
	c1.06,19.71,1.76,41.01-9.15,57.38c-11.09,16.55-15.31,15.31-36.96,24.29c6.16,40.84,8.62,65.3-23.23,91.35
	c-16.19,13.2-38.9,14.79-60.02,13.9C106.51,618.52,53,603.73,5.3,577.86c-1.94,19.36,12.32,36.26,25.87,50.52
	c23.06,24.64,49.81,48.58,79.38,66.36c33.44,20.07,70.94,30.45,106.31,45.94c38.2,16.55,80.97,14.61,121.63,15.67
	c92.76,1.94,120.04,4.75,208.93-24.82c70.23-23.23,138.53-52.63,203.83-87.66c20.59-10.91,24.82-16.72,29.57-39.25
	c8.1-36.79,16.19-73.58,24.29-110.54C791.21,505.87,777.49,517.48,763.58,529.1L763.58,529.1z"/>
</svg>
