<?xml version="1.0" encoding="utf-8"?>
<!-- Generator: Adobe Illustrator 24.1.2, SVG Export Plug-In . SVG Version: 6.00 Build 0)  -->
<svg version="1.1" id="Layer_1" xmlns="http://www.w3.org/2000/svg" xmlns:xlink="http://www.w3.org/1999/xlink" x="0px" y="0px"
	 viewBox="0 0 810 810" style="enable-background:new 0 0 810 810;" xml:space="preserve">
<g>
	<path d="M765.88,603.76c14.37-12.68,20.62-29.58-1.86-37.19c-62.55-21.13-127.46-30.94-193.23-29.25
		c21.81-13.52,33.47-37.53,32.29-63.56l-69.99,32.96c-18.93,8.96-27.22,4.9-34.49-17.58l-56.46-177.17
		c32.8-16.91,69.48-44.29,61.03-79.79c-5.07-20.96-25.53-35.67-29.42-55.96c31.61-6.09,71-16.57,99.57-42.43
		c26.2-23.67,43.45-66.1,25.86-101.43C583.64,1.26,554.73,2.95,526.5,7.34c-17.92,2.87-28.06,7.95-39.73,26.54
		c-12.51,20.12-16.06,45.64,2.7,58.15c14.37,9.47,53.59,5.92,57.65-12.51c4.06-19.1-26.88-28.74-34.99-5.58
		c-8.96,0-16.23-11.83-7.78-26.54c12.17-21.3,53.42-43.11,61.54-7.78c6.25,27.56-6.26,58.83-29.75,74.55
		c-23.16,15.38-53.42,15.89-80.98,19.27c-37.53,4.73-62.21,17.75-73.37,38.88c-10.82,20.79-6.59,45.64-5.41,68.47
		c1.01,16.74-0.51,46.49-20.96,59.17l-20.12-25.02c-16.06,62.04-66.44,99.91-80.64,158.4c-9.13,37.19,14.88,91.63-1.86,123.41
		c-17.58,33.98-54.94,12-91.96,16.9c11.5,9.64,25.7,23.67,37.7,31.11c-31.78-3.89-63.9-4.4-95.68-1.18
		c-21.13,2.03-44.8,6.26-60.52,22.65c-15.38,16.23-16.57,47.5,3.72,58.49c7.95,4.23,16.9,4.56,25.7,5.75
		c27.72,4.23,52.74,20.96,78.1,32.97c-26.03,31.11-61.2,59-103.12,81.48c242.76-30.77,486.19-58.83,730.47-84.19
		c-28.23-22.15-56.46-44.12-84.53-66.27C719.05,640.78,743.57,623.87,765.88,603.76z M236.07,604.77
		c-5.75-0.68-13.02-2.54-18.43-3.21l1.69-8.62c24.34,4.06,50.72,8.45,72.69,5.41c11.33-1.52,29.92-4.06,32.96,2.54
		C298.62,616.6,265.65,608.49,236.07,604.77z M430.65,588.37c1.35,4.56,7.95,2.54,16.06,2.87c2.54,0.17,4.23,0.17,5.58,0.17
		l-0.34,18.93c-36.51,6.59-75.74,12.68-115.8,14.37c-2.54-26.88-4.56-49.19,6.76-59c5.41-4.73,92.13-10.82,108.7-11.16l1.01,21.13
		c-3.55,0.34-16.4,0.17-19.1,2.03C430.65,579.58,429.8,585.5,430.65,588.37z M566.23,552.36c-30.77,11.67-74.55,37.36-103.29,26.03
		c1.69-9.64,32.8-9.97,41.42-12.34c19.1-5.24,37.36-12.68,58.66-22.32l3.21,5.75C566.23,549.66,566.91,552.03,566.23,552.36z"/>
	<path d="M427.27,572.82c12.68-2.54,19.44,3.38,17.07-9.13c0-0.51-0.68-1.01-1.18-1.01c-1.01,0-94.67,4.9-97.37,13.02
		c-2.87,9.64-2.54,17.24-0.51,39.9l1.35,1.01c29.25-2.03,51.9-5.07,78.1-8.62c25.7-3.38,17.75,0.51,18.43-12.17
		c0.17-2.54-12.68-0.85-19.1-0.68C421.35,571.64,421.35,574,427.27,572.82z"/>
</g>
</svg>
