<?xml version="1.0" encoding="utf-8"?>
<!-- Generator: Adobe Illustrator 24.1.2, SVG Export Plug-In . SVG Version: 6.00 Build 0)  -->
<svg version="1.1" id="Layer_1" xmlns="http://www.w3.org/2000/svg" xmlns:xlink="http://www.w3.org/1999/xlink" x="0px" y="0px"
	 viewBox="0 0 810 810" style="enable-background:new 0 0 810 810;" xml:space="preserve">
<path d="M454.28,593.92c4.51-24.31,9.75-48.33,15.87-72.21c28.24-5.82,56.92-17.91,87.5-36.11l17.03,67.99
	C532.46,576.01,493.15,589.26,454.28,593.92L454.28,593.92z M432.3,599.6c-27.22,0.73-58.53-0.73-78.33-19.22
	c5.39-18.78,18.63-65.81,27.37-81.38c17.62,4.22,49.06,16.45,67.55,23C439.72,555.92,435.06,582.13,432.3,599.6L432.3,599.6z
	 M329.37,580.96c-33.34-10.34-68.43-25.62-106.72-45.71l24.31-79.78c38.29,25.19,72.36,43.39,104.24,55.03
	C343.49,533.94,336.21,557.38,329.37,580.96L329.37,580.96z M620.4,530.88c-3.49,2.47-31.01,19.51-31.01,19.51
	c-18.93-77.74-35.81-171.21-19.65-249.68c4.22-20.38,10.63-40.91,7.86-61.58c-2.62-20.53-18.2-41.49-39.02-41.64
	c61.29-0.44,122.73,5.1,183.15,16.6c-38.58-41.49-80.07-85.02-134.67-100.31c-45.42-12.81-93.9-4.22-140.35,4.37
	c-42.66,8.01-52.99,14.12-85.02,45.13c-26.35,25.48-53.28,51.83-68.43,85.17c-7.13-7.28-14.27-14.41-21.4-21.55
	c-10.48,96.82-35.96,191.3-61.29,285.35c-4.22,15.72-7.42,19.95-22.27,24.75C130.21,555.92,66,566.55,5,563.78
	c50.96,40.91,160.44,117.93,225.95,133.07c35.96,8.3,90.12,5.53,129.57,4.95c64.2-1.02,129.43-2.04,191.3-19.51
	C671.79,648.08,771.08,548.79,805,428.68C747.64,455.47,708.48,468.13,620.4,530.88L620.4,530.88z"/>
</svg>
