<?xml version="1.0" encoding="utf-8"?>
<!-- Generator: Adobe Illustrator 24.1.2, SVG Export Plug-In . SVG Version: 6.00 Build 0)  -->
<svg version="1.1" id="Layer_1" xmlns="http://www.w3.org/2000/svg" xmlns:xlink="http://www.w3.org/1999/xlink" x="0px" y="0px"
	 viewBox="0 0 810 810" style="enable-background:new 0 0 810 810;" xml:space="preserve">
<path d="M667.21,475.17c-9.79,10.67-25.71,17.31-38.12,27.98c-1.22-9.62-2.97-19.06-5.42-28.33c6.47,2.27,13.81,2.45,19.93-1.92
	c16.09-11.72,2.62-33.57,5.25-45.64c1.92-9.09-11.89-12.07-13.99-2.97c-3.15,14.86,6.82,32.35,0.35,37.07
	c-5.25,3.67-20.98-4.2-20.63-23.43c0.52-33.4,42.14-36.9,57.88-13.64C682.43,438.98,680.15,461.36,667.21,475.17L667.21,475.17z
	 M470.66,396.48c-61.55,13.46-145.49-0.87-201.27-29.03c79.56,12.59,186.41,32.7,263.53,0C515.6,382.49,493.4,391.76,470.66,396.48
	L470.66,396.48z M195.07,443.17c-3.67,8.39-3.67,11.89-8.92,15.91c-3.5,2.62-8.57,4.2-11.37,2.27c-6.47-4.72,3.5-22.21,0.35-37.07
	c-2.1-9.09-15.91-6.12-13.99,2.97c2.62,12.07-10.84,33.92,5.25,45.64c5.25,3.67,11.54,4.2,17.31,2.8c-2.1,8.39-3.67,16.96-4.9,25.53
	c-11.72-9.27-26.75-15.91-36.02-26.06c-19.41-20.98-14.51-59.63,17.84-65.23C183.18,405.93,198.22,422.89,195.07,443.17
	L195.07,443.17z M684.35,416.42c-19.59-28.85-69.42-30.08-81.66,7.34c-9.27-16.09-20.63-30.95-34.1-44.42
	c15.56-4.9,29.73-5.77,40.74,6.99c2.97-26.06-11.37-45.64-36.2-54.21c-14.16-6.12-34.1-11.37-58.23-15.39
	c16.79-23.26,5.95-30.6,6.3-47.91c0.7-39.17,67.15-44.24,30.08-71c-25.36-18.36-1.57-29.38-3.85-50.54
	c-2.45-22.91-39.52-26.58-45.12-48.09c-3.67-13.99,8.04-27.28,12.07-41.62c9.09-32.35-23.96-61.03-44.77-50.01
	c-7.17,3.85-12.59,14.86-4.55,24.13c2.1-14.86,20.98-12.77,26.06-4.37c5.95,10.14-0.7,23.78-10.14,29.55
	c-20.63,12.42-47.74-0.17-70.47,3.85c-24.83,4.72-41.44,29.55-7.87,58.41c15.74,13.29,30.6,22.56,48.96,31.3
	c16.79,7.87,37.95,19.24,33.92,41.09c-0.52,3.67-2.27,8.39-6.99,11.72c-13.29-63.48-103.7-70.65-102.3-26.93
	c0.35,9.44,5.07,12.77,10.84,18.01c-3.85-5.6-7.87-9.44-5.25-17.31c10.32-29.73,63.83-1.57,63.3,27.98
	c-0.17,19.76-22.38,32.7-43.19,34.8c-28.5,2.8-57.88-6.3-86.38-1.05c-39.35,7.34-68.9,42.32-59.28,82.19
	c-32.7,7.17-49.31,14.69-60.15,27.98c-9.44,11.89-12.07,23.78-10.67,37.42c15.56-18.19,34.62-8.22,50.01-3.5
	c-11.19,11.72-20.98,24.66-29.03,38.47c-13.99-35.32-61.9-32.88-80.79-4.9c-13.64,20.11-10.84,49.66,6.65,68.37
	c10.67,11.37,43.02,29.03,44.77,34.27c0.52,1.22-11.02,98.63,70.3,176.09c-1.75,25.88-7.87,37.6-15.04,61.38
	c-2.97,10.49,4.2,15.04,12.59,9.62c13.99-9.27,27.98-27.63,40.39-41.79c31.83,19.59,68.72,31.48,108.07,33.22
	c1.4,9.27,5.77,48.79,18.54,47.56c7.17-0.7,8.57-13.81,10.67-22.56l7.34-26.23c35.32-4.02,68.2-16.26,96.7-34.62
	c12.59,13.99,42.32,54.03,53.51,45.47c5.77-4.37,0.17-16.44-2.62-24.83c-6.64-20.11-10.14-32.18-11.02-53.51
	c73.44-75.54,63.48-164.73,64-167c2.45-7.34,36.72-25.88,47.21-37.07C695.19,466.08,697.99,436.53,684.35,416.42L684.35,416.42z"/>
</svg>
