<?xml version="1.0" encoding="utf-8"?>
<!-- Generator: Adobe Illustrator 24.1.2, SVG Export Plug-In . SVG Version: 6.00 Build 0)  -->
<svg version="1.1" id="Layer_1" xmlns="http://www.w3.org/2000/svg" xmlns:xlink="http://www.w3.org/1999/xlink" x="0px" y="0px"
	 viewBox="0 0 810 810" style="enable-background:new 0 0 810 810;" xml:space="preserve">
<g>
	<path d="M733.86,413.01l-25.29-67.07l-59,30.85c-11.84-22.6-27.26-43.4-45.73-62.05c18.83-5.74,35.69-6.99,49.14,8.61
		c1.79-16.32-1.43-31.02-12.91-45.19c-8.25-10.04-19.19-17.04-30.67-20.09c-40.53-17.57-119.97-29.41-213.41-29.41
		c-22.06,0-43.4,0.72-63.66,1.97c2.15-10.22-1.08-29.23,0.18-34.97c6.28-33,41.25-40.35,18.11-121.95
		c-7.89-27.8-18.65-38.02-35.69-39.99c33.89,42.5,27.08,93.97,10.22,136.83c-3.77,9.5-7.53,19.55-9.5,29.77
		c-0.72,3.95-1.61,21.52,1.97,31.38c-81.95,6.28-143.29,22.42-159.25,42.68c-13.63,15.6-18.65,29.05-16.32,48.96
		c11.12-12.91,27.98-15.42,43.76-10.04c5.02,1.97,10.4,3.95,16.32,5.74c-16.68,17.4-30.49,36.94-41.43,57.92l-59.18-31.02
		l-25.29,67.07c-4.3,11.66,1.97,12.37,18.47,28.33c11.3,10.76,24.75,23.67,37.84,32.82c-7.53,88.41,27.62,171.08,89.85,226.86
		c-16.86,23.85-17.04,57.39,11.66,71.19c2.33-18.11,6.99-33.18,16.14-49.32c22.24,15.24,46.63,27.44,72.81,35.69
		c-3.05,19.01,3.77,37.12,22.42,46.09c1.97-13.99,4.66-24.93,10.58-38.02c43.04,7.89,86.44,5.38,127.86-6.99l8.79,33.54
		c18.47-8.79,25.46-26.36,22.6-45.19c15.42-6.81,29.95-14.88,43.58-24.21c10.94,17.4,16.68,34.07,19.37,54.16
		c29.41-14.17,29.41-49.68,8.07-75.5c63.3-55.95,99.17-139.16,91.46-228.29c21.34-15.06,36.05-32.82,52.19-46.27
		C736.01,422.87,736.37,420.18,733.86,413.01z M135.07,454.07c-8.97-6.28-18.11-15.06-25.29-22.06
		c-10.94-10.22-14.53-10.58-12.01-17.57l16.32-43.22l39.45,20.62C144.76,411.57,138.66,432.37,135.07,454.07z M396,315.09
		c-92.54,0-191.17-10.04-191.17-28.69c0-12.02,41.43-20.44,95.58-24.93c-12.91,11.84-7.71,32.1,8.43,32.1
		c17.4,0,20.8-22.95,6.81-33.18c45.37-3.05,94.51-3.41,140.42-1.08c-11.84,9.15-5.2,27.98,9.68,27.98
		c13.99,0,20.98-17.04,10.94-26.9c61.51,4.12,110.47,12.91,110.47,26C587.17,305.05,488.72,315.09,396,315.09z M713.06,419.46
		l-37.84,34.43c-3.59-21.52-9.68-42.5-18.47-62.05l39.45-20.62C698.35,377.32,714.14,415.87,713.06,419.46z"/>
	<path d="M396,262.37c-12.02,0-12.02,18.47,0,18.47C408.19,280.84,408.19,262.37,396,262.37z"/>
	<path d="M385.6,89.49c-1.26,28.51-11.84,68.86,8.07,92.18c1.61-25.64-0.36-30.13,6.28-57.92c1.97-8.79,4.12-17.75,4.84-27.08
		c1.97-31.74-13.63-60.43-32.82-92l-2.15,1.25C381.3,32.1,386.85,60.98,385.6,89.49z"/>
	<path d="M441.73,210.9c30.67,13.63,1.61-40.17,0.9-47.16c-1.61-18.29,21.7-49.5-7.17-102.04c-4.84,28.51-14.35,59.36-14.88,86.98
		C420.39,162.3,423.8,203.01,441.73,210.9z"/>
	<path d="M490.33,206.95c7.71-8.79,8.97-18.83,11.3-29.95c6.1-28.51-4.84-58.82-13.09-83.39l-6.46,78.37
		C481,185.07,479.75,198.7,490.33,206.95z"/>
	<path d="M357.62,263.26c-28.51,0-28.51,43.58,0,43.58C386.32,306.84,386.32,263.26,357.62,263.26z"/>
	<path d="M425.59,276.89c-20.62,0-20.62,31.38,0,31.38C446.39,308.28,446.39,276.89,425.59,276.89z"/>
</g>
</svg>
