<?xml version="1.0" encoding="utf-8"?>
<!-- Generator: Adobe Illustrator 24.1.2, SVG Export Plug-In . SVG Version: 6.00 Build 0)  -->
<svg version="1.1" id="Layer_1" xmlns="http://www.w3.org/2000/svg" xmlns:xlink="http://www.w3.org/1999/xlink" x="0px" y="0px"
	 viewBox="0 0 810 810" style="enable-background:new 0 0 810 810;" xml:space="preserve">
<g>
	<path d="M293.46,277.13c34.69,0,34.69-53.86,0-53.86S258.6,277.13,293.46,277.13z"/>
	<path d="M362.3,268.24c0,29.81,36.08,24.75,36.08,2.96C398.38,241.23,362.3,246.28,362.3,268.24z"/>
	<path d="M344.35,232.16c11.68,0,11.68-17.95,0-17.95C332.85,214.21,332.85,232.16,344.35,232.16z"/>
	<path d="M431.33,268.24c0,17.78,17.95,13.07,17.95,2.96C449.28,253.25,431.33,257.96,431.33,268.24z"/>
	<path d="M413.37,217.17c11.5,0,11.5-17.95,0-17.95C401.7,199.22,401.7,217.17,413.37,217.17z"/>
	<path d="M380.43,121.31c34.69,0,34.69-54.03,0-54.03C345.57,67.27,345.57,121.31,380.43,121.31z"/>
	<path d="M509.24,223.27c0-34.16-53.86-38.52-53.86,2.96C455.38,260.23,509.24,264.76,509.24,223.27z"/>
	<path d="M314.37,187.19c23.18,0,23.18-35.91,0-35.91C291.19,151.29,291.19,187.19,314.37,187.19z"/>
	<path d="M368.4,208.28c23.18,0,23.18-36.08,0-36.08C345.22,172.2,345.22,208.28,368.4,208.28z"/>
	<path d="M440.39,133.33c-23.18,0-23.18,35.91,0,35.91C463.4,169.24,463.57,133.33,440.39,133.33z"/>
	<path d="M434.29,40.26c29.98,0,24.92-35.91,2.96-35.91C407.45,4.35,412.5,40.26,434.29,40.26z"/>
	<path d="M715.79,174.64c-12.72-37.65-63.62-17.95-85.41-1.92c-42.88,31.72-75.65,82.44-108.59,125.67
		c-70.94-4.01-141.88-1.92-213-0.35c-37.47,0.87-74.78,0.87-112.25,1.05c-25.27,0.35-53.51-0.35-77.91,7.49
		c-50.55,16.04-1.39,68.15,28.06,86.98c-23.53,47.24-43.75,99.35-49.68,151.47c-7.49,66.93,32.77,132.29,86.45,172.38
		c-4.01,11.85-14.47,40.44-13.42,50.02c1.39,13.6,16.38,22.66,27.54,27.71c30.33,13.77,46.19-15.34,61.18-40.61
		c32.42,9.24,66.76,13.07,100.22,16.56c55.43,5.58,115.56,6.97,169.07-11.16c4.36,5.93,8.89,11.85,12.9,18.13
		c4.88,7.67,9.41,18.48,17.78,23.18c12.55,6.97,30.85,0.87,42.18-5.58c13.77-7.67,19.35-17.43,16.04-32.59
		c-3.49-16.04-8.02-32.07-12.9-48.11c69.72-64.32,82.97-168.37,54.03-256.22c-8.89-27.02-26.84-47.93-48.11-66.06
		c25.45-9.41,58.22-25.97,56.65-52.29c-1.57-29.63-41.48-38-79.48-40.44c29.81-29.98,51.24-75.47,82.79-83.66
		c10.81-2.96,21.96-2.27,31.9-8.19C713.87,200.79,720.49,188.41,715.79,174.64z"/>
</g>
</svg>
