<?xml version="1.0" encoding="utf-8"?>
<!-- Generator: Adobe Illustrator 24.1.2, SVG Export Plug-In . SVG Version: 6.00 Build 0)  -->
<svg version="1.1" id="Layer_1" xmlns="http://www.w3.org/2000/svg" xmlns:xlink="http://www.w3.org/1999/xlink" x="0px" y="0px"
	 viewBox="0 0 810 810" style="enable-background:new 0 0 810 810;" xml:space="preserve">
<g>
	<path d="M368.2,273.97c21.93,0,21.93-33.37,0-33.37C346.42,240.6,346.42,273.97,368.2,273.97z"/>
	<path d="M457.49,228.24c21.78,0,21.94-33.21,0-33.21C435.55,195.03,435.55,228.24,457.49,228.24z"/>
	<path d="M419.18,245.85c0-15.45-23.63-15.45-23.63,0S419.18,261.3,419.18,245.85z"/>
	<path d="M384.11,193.64c-15.45,0-15.45,23.48,0,23.48C399.56,217.12,399.56,193.64,384.11,193.64z"/>
	<path d="M384.88,158.73c0,15.45,23.48,15.45,23.48,0C408.36,143.28,384.88,143.13,384.88,158.73z"/>
	<path d="M419.95,79.49c15.45,0,15.45-23.48,0-23.48C404.5,56.01,404.5,79.49,419.95,79.49z"/>
	<path d="M394.92,342.25c15.45,0,15.45-23.48,0-23.48C379.32,318.77,379.32,342.25,394.92,342.25z"/>
	<path d="M452.7,278.14c-18.07-18.07-45.26,9.42-27.34,27.34C443.43,323.4,470.62,296.06,452.7,278.14z"/>
	<path d="M433.23,337.77c0,15.45,23.48,15.45,23.48,0C456.71,322.16,433.23,322.16,433.23,337.77z"/>
	<path d="M642.24,456.55c-14.83-6.02-33.98,0.46-41.71,14.98c-9.73-11.28-21.93-19.46-35.99-25.18
		c60.4-11.12,46.96-25.49-12.98-34.45c9.11,21.32-9.73,42.33-8.5,51.59c0.15,1.54,3.09,15.14,7.11,2.16
		c5.1-17.15,21.16-6.02,22.55-1.54c1.24,3.55-1.85,5.71,0.15,12.05c5.25,15.76-16.99,15.76-21.63,17.61
		c-7.11,2.78-16.68,15.14-27.34,6.64c-6.03-4.79-10.2,4.17-18.69-2.78c-9.11-7.41-0.31-22.55,11.59-14.98
		c5.41,3.4,7.41,0.15,7.11-0.62c-2.47-7.11-0.62-23.02-4.63-31.51c-3.86-7.88-7.88-4.63-18.54-2.32
		c-23.63,5.25-16.99,13.75-27.81,24.1c-11.59,10.97-28.89-6.02-40.16-2.32c3.24,19.31-26.26,27.34-31.36,4.63
		c-1.24-5.1-1.85-5.87-6.49-6.18c-9.27-0.46-53.91-3.86-58.55-1.08c-13.9,8.03,11.89,32.44-1.85,43.25
		c-4.79,3.86-11.59,1.85-15.91-1.7c-16.68-13.75-9.11-42.94-24.56-54.53c-11.12-8.5-33.06-3.4-41.55-20.08
		c-6.95-13.59,7.41-20.39,17.3-23.63c-59.16,7.72-88.2,21.94-28.89,34.29c-11.74,6.02-21.94,14.21-30.12,25.64
		c-7.72-13.75-26.72-19.93-41.09-14.06c-18.69,7.88-31.98,39.08,7.11,58.55c4.94,2.47,10.19,5.1,13.75,8.19
		c-2.63,14.83-4.02,31.98-4.02,51.75c0,37.38,21.78,71.52,57.62,97.01c-46.81,15.14-27.81,32.59,20.54,43.1
		c-7.72,14.83-15.91,29.04-25.95,43.25c-7.72,11.12-7.72,19.31,5.41,22.24c8.5,1.85,16.99,3.71,25.49,5.72
		c2.47-17.76,5.25-36.46,16.07-50.67c2.63-3.24,7.41-9.27,10.81-14.98c29.04,4.02,71.98,7.26,110.91,6.8
		c2.47,19.77,3.86,39.08,3.09,59.78c-0.46,13.59,4.02,20.39,16.68,15.6c8.03-3.09,16.22-6.02,24.41-9.11
		c-23.79-50.05-10.2-50.82-14.06-66.73c39.24-1.24,74.3-4.94,101.33-10.04c9.27,17.61,17.61,35.22,24.41,54.84
		c4.33,12.67,10.97,17.46,21.16,8.5c6.33-5.71,12.98-11.59,19.46-17.3c-12.98-12.36-26.57-25.49-31.67-42.63
		c-1.08-3.55-2.01-7.57-3.4-10.97c36.46-12.05,33.52-26.72-2.93-38c34.6-25.49,56.23-59.32,59.01-96.39
		c1.39-20.54,0.62-37.85-2.01-52.98c10.19-7.88,32.9-12.98,36.92-33.83C662.32,475.56,654.59,461.81,642.24,456.55z M193.03,489.92
		c-10.35-2.01-1.7-14.21-10.81-15.91c-13.59-2.47-8.5,29.81,13.44,28.11c-0.77,2.63-1.54,5.25-2.32,8.03
		c-3.71-2.32-7.57-4.33-10.97-6.02c-39.7-19.31-6.64-50.51,14.21-31.82C207.39,481.89,199.98,491.31,193.03,489.92z M647.8,485.9
		c-2.32,12.51-18.38,17.61-27.81,23.48c-0.62-2.47-1.39-4.79-2.16-7.11c20.85-0.15,24.87-30.74,11.89-28.27
		c-9.27,1.7-0.62,13.9-10.97,15.91c-6.95,1.54-14.21-8.19-3.55-17.61C630.34,458.87,650.73,470.92,647.8,485.9z"/>
	<path d="M319.23,309.19c2.93-12.82,2.93-25.33,12.2-36.61c4.02-4.79,9.11-8.96,12.51-14.21c8.34-12.51,6.49-29.97-2.16-42.17
		c-12.2-17.3-25.8-22.09-15.91-45.26c6.18-14.52,14.37-28.27,24.41-40.63c-13.75,5.87-26.57,14.37-34.91,26.57
		c-8.34,12.2-11.74,28.42-6.49,42.17c3.86,10.04,11.89,18.38,12.82,29.04c1.08,12.51-7.88,23.33-12.36,35.07
		C305.02,274.28,301.93,307.8,319.23,309.19z"/>
	<path d="M496.26,241.37c-17.15,7.11-31.67,23.48-24.87,41.24c2.32,6.02,7.11,11.12,7.72,17.46c1.08,11.89-11.28,17.3-9.27,37.54
		l10.35-1.39c2.93-10.35,8.03-11.59,12.36-17.92c4.94-7.57,3.71-18.07-1.39-25.33c-7.41-10.5-15.45-13.13-9.58-27.19
		C485.29,256.98,490.23,248.79,496.26,241.37z"/>
	<path d="M439.1,102.97c-8.65,3.55-16.68,8.96-21.78,16.53c-14.52,21.16,2.93,33.98,3.86,44.49c0.77,7.72-4.79,14.52-7.72,21.94
		c-2.63,6.8-4.48,27.81,6.18,28.58c1.85-7.88,1.85-15.76,7.72-22.71c2.47-3.09,5.56-5.72,7.88-8.96c5.1-7.72,3.86-18.69-1.54-26.26
		c-7.72-10.97-16.07-13.75-9.89-28.27C427.67,119.19,432.77,110.54,439.1,102.97z"/>
	<path d="M476.64,175.88c2.01-8.96,2.16-17.92,8.65-25.8c2.93-3.55,6.49-6.33,8.96-10.2c5.72-8.8,4.48-21.16-1.7-29.81
		c-8.5-12.05-18.23-15.6-11.28-31.98c4.48-10.35,10.35-20.08,17.3-28.89c-20.24,8.65-37.23,27.96-29.2,48.81
		c2.63,6.95,8.34,12.98,8.96,20.54c0.93,8.81-5.56,16.53-8.65,24.87C466.6,151.16,464.44,174.95,476.64,175.88z"/>
	<path d="M374.53,131.08c2.01-9.11,2.16-17.92,8.65-25.95c2.93-3.4,6.49-6.33,8.96-10.04c5.72-8.8,4.48-21.32-1.7-29.97
		c-8.65-12.2-18.23-15.45-11.28-31.98c4.48-10.35,10.35-20.08,17.3-28.73c-20.08,8.5-37.23,27.8-29.2,48.66
		c2.63,7.11,8.34,12.98,8.96,20.54c0.93,8.8-5.56,16.53-8.8,24.87C364.49,106.36,362.33,130,374.53,131.08z"/>
	<path d="M510.42,488.02c-0.28,0-0.54,0.07-0.73,0.26c-0.63,0.59-0.87,2.05-0.25,3.13c1.1,1.92,4.35,1.23,5.71,0.84
		c1.5-0.42,2.83-0.65,4.04-0.74c-2.13-0.33-4.32-1.2-6.46-2.6C512.35,488.66,511.27,488.02,510.42,488.02z"/>
	<path d="M271.61,417.89c-8.67,2.95-13.42,6.58-13.36,10.22c0.07,4.58,7.17,9.68,12.03,11.16c3.91,1.14,7.47,1.87,10.91,2.58
		c16.83,3.45,25.89,6.67,31.93,37.09l0.18,0.84c2.04,9.81,3.81,18.29,10,23.42c2.22,1.77,5.46,2.53,6.75,1.57
		c1.43-1.07,1.82-5.44-1.74-14.27c-4.38-10.96-4.59-19.7-0.61-25.29c3.35-4.7,9.28-6.85,17.65-6.46l5.21,0.15
		c35.63,0.98,49.41,2.09,52.65,4.25c3.86,2.56,4.78,6.69,5.46,9.69c0.19,0.82,0.36,1.61,0.6,2.33c1.7,5.2,6.65,6.58,10.66,5.29
		c3.72-1.2,6.91-4.94,4.71-11.79l-0.83-2.58l2.4-1.25c10.4-5.42,19.29-1.82,26.44,1.08c8.91,3.63,13.82,5.61,20.09-6.37
		c7.51-14.3,15.35-16.09,26.18-18.57c1.86-0.43,3.85-0.88,5.98-1.44c6.9-1.83,15.51-4.13,21.16,7.76c2.9,6.1,3.31,13.41,3.71,20.49
		c0.26,4.6,0.5,8.94,1.44,12.32c0.9,3.49-0.61,7.32-3.74,9.56c-1.54,1.1-3.29,1.74-5.14,1.93c2.92,0.44,4.81,1.81,6.35,2.93
		c2.25,1.64,3.74,2.72,11.63-2.9c7.81-5.52,11.33-5.99,15.4-6.53c1.77-0.24,3.6-0.48,6.13-1.2c4.74-1.37,4.57-2.33,3.76-6.96
		c-0.5-2.82-1.12-6.32-0.11-10.22c0.02-0.07,0.1-0.43-0.77-1.08c-1.83-1.37-5-1.66-5.81-1.22c-0.08,0.18-0.72,1.7-1.19,2.81
		c-1.79,4.25-4.25,10.07-9.02,11.43c-1.64,0.47-4.23,0.57-7.28-1.56l-0.74-0.52l-5.08-12.04c-0.64-4.87,1.83-10.86,4.7-17.79
		c5.75-13.92,12.26-29.69-3.63-40.53c-4.57-3.12-16.61-13.21-17.36-22.26c-0.24-3.01,0.75-5.69,2.9-7.74
		c1.56-1.48,2.6-2.62,3.3-3.49c-4.84-0.26-14.24,0.26-17.42,0.92c-6,1.27-10.22,0.9-13.26-1.17c-3.98-2.71-4.8-7.56-5.59-12.25
		c-0.94-5.56-1.91-11.31-7.56-15.18c-6.23-4.33-12.63,1.12-21.69,9.89c-4.67,4.52-9.09,8.79-13.66,10.54
		c-4.89,1.87-8.16,1.02-11.04,0.28c-3.62-0.95-7.01-1.81-15.73,3.09c-9.26,5.22-16.41,6.67-21.83,4.41
		c-6.77-2.82-8.86-10.39-10.54-16.47c-0.73-2.64-1.72-6.26-2.72-6.95c-1.13-0.78-2.91-1.19-4.78-1.61
		c-5.68-1.28-14.24-3.22-11.51-19.62c0.49-3.01,0.62-7.15-1.57-9.72c-1.56-1.84-4.23-2.77-7.93-2.77c-0.03,0-0.06,0-0.1,0
		c-6.78,0-31.21,9.45-35.25,20.83c-0.56,1.58-2.28,6.39,5.68,12.69c9.01,7.19,9.56,13.15,8.45,16.89
		c-1.77,5.91-8.59,9.15-14.17,9.67c-6.94,0.78-13.43-6.6-19.59-13.73c-2.64-3.05-7.06-8.17-8.68-8.34
		c-2.95,0-11.95,4.53-14.68,10.73c-1.54,3.47-0.75,6.85,2.4,10.31c5.31,5.63,7.55,16.27,5.29,25.24
		C285.83,408.86,280.03,415.08,271.61,417.89z"/>
</g>
</svg>
