<?xml version="1.0" encoding="utf-8"?>
<!-- Generator: Adobe Illustrator 24.1.2, SVG Export Plug-In . SVG Version: 6.00 Build 0)  -->
<svg version="1.1" id="Layer_1" xmlns="http://www.w3.org/2000/svg" xmlns:xlink="http://www.w3.org/1999/xlink" x="0px" y="0px"
	 viewBox="0 0 810 810" style="enable-background:new 0 0 810 810;" xml:space="preserve">
<g>
	<path d="M753.99,97.39c-14.41-42.33-71.58-20.17-95.96-1.99c-32.58,24.16-60.28,58.07-85.99,92.64
		c18.17,16.84,7.98,34.57,33.24,51.86c48.76,33.46,0.67,89.09,3.1,107.49l15.73,36.57c12.63,27.7,22.16,48.76,40.11,74.24
		c18.84,27.04,22.16,35.24,17.95,66.93c-1.99,15.07-4.88,54.52-11.97,64.94c-16.4,24.16-53.41-0.22-31.69-32.36
		c28.59-42.11-7.53-91.53-25.93-116.8c-23.49-32.36-35.24-48.53-37.45-86.21c-2.88-49.42-14.18-39.89-38.12-34.57
		c-41,9.09-29.92,24.38-47.65,41.22c-19.72,18.62-49.42-11.52-69.15-3.77c6.43,32.36-43.22,45.65-51.19,8.42
		c-1.99-9.31-3.77-11.08-11.97-11.52l-85.32-3.77c-42.11-1.99-13.52,41-11.97,57.18c1.99,21.5-17.29,28.15-32.36,15.96
		c-27.92-22.83-14.85-72.91-41.66-93.3c-19.72-14.63-56.29-5.54-70.7-33.69c-11.3-21.94,11.97-33.02,27.92-38.34
		c11.08-3.77,16.62-7.76,15.51-21.05c-25.27,0.22-52.3,0.66-76.02,8.2c-56.74,17.95-1.55,76.68,31.69,97.96
		c-26.37,52.97-49.2,111.7-55.85,170.43c-8.42,75.13,36.79,148.71,97.07,193.7c-4.43,13.3-16.18,45.65-15.07,56.29
		c2.22,19.5,46.98,53.63,74.91,21.72c9.31-10.64,17.29-23.49,24.82-36.35c36.57,10.64,75.13,14.85,112.81,18.62
		c62.05,6.43,130.31,7.76,190.15-12.63c4.88,6.87,9.97,13.52,14.41,20.61c5.54,8.64,10.64,20.61,20.17,25.93
		c17.29,9.75,74.02-3.77,65.38-43c-3.99-17.95-9.09-35.9-14.41-53.85c78.01-72.03,93.3-188.82,60.72-288.33
		c-9.97-30.36-30.36-53.85-54.08-74.02c28.37-10.64,65.38-29.25,63.61-58.95c-1.77-33.24-46.54-42.77-89.54-45.43
		c33.69-33.69,57.84-84.88,93.08-94.19c12.19-3.1,24.82-2.44,35.9-9.31C752,126.65,759.31,112.91,753.99,97.39z"/>
	<path d="M246.7,311.7c39.01,0,39.01-60.73,0-60.73C207.69,250.98,207.47,311.7,246.7,311.7z"/>
	<path d="M324.26,301.51c0,31.91,40.34,31.25,40.34,0C364.6,274.69,324.26,275.36,324.26,301.51z"/>
	<path d="M304.1,261.17c12.85,0,12.85-20.39,0-20.39C291.02,240.78,291.02,261.17,304.1,261.17z"/>
	<path d="M401.83,301.51c0,20.17,20.17,14.85,20.17,3.32C422,284.89,401.83,289.99,401.83,301.51z"/>
	<path d="M381.44,244.33c13.08,0,13.08-20.39,0-20.39C368.59,223.94,368.59,244.33,381.44,244.33z"/>
	<path d="M344.43,136.4c39.01,0,39.01-60.73,0-60.73C305.43,75.68,305.65,136.4,344.43,136.4z"/>
	<path d="M489.37,250.98c0-38.34-60.72-43.22-60.72,3.32C428.65,292.64,489.37,297.74,489.37,250.98z"/>
	<path d="M270.19,210.64c26.15,0,26.15-40.56,0-40.56C244.26,170.09,244.26,210.64,270.19,210.64z"/>
	<path d="M330.91,234.14c26.15,0,26.15-40.56,0-40.56C304.98,193.58,304.98,234.14,330.91,234.14z"/>
	<path d="M412.03,149.92c-26.15,0-26.15,40.34,0,40.34C437.96,190.25,437.73,149.92,412.03,149.92z"/>
	<path d="M405.16,45.31c31.91,0,31.25-40.34,0-40.34C378.34,4.98,378.78,45.31,405.16,45.31z"/>
</g>
</svg>
