<?xml version="1.0" encoding="utf-8"?>
<!-- Generator: Adobe Illustrator 24.1.2, SVG Export Plug-In . SVG Version: 6.00 Build 0)  -->
<svg version="1.1" id="Layer_1" xmlns="http://www.w3.org/2000/svg" xmlns:xlink="http://www.w3.org/1999/xlink" x="0px" y="0px"
	 viewBox="0 0 810 810" style="enable-background:new 0 0 810 810;" xml:space="preserve">
<path d="M452.96,457.04c5.38-18.52,37.04-118.48,107.53-138.6l-6.97,54.76l57.75-20.31C601.72,376.59,557.11,469.39,452.96,457.04
	L452.96,457.04z M535.4,617.74c-15.13,12.74-31.66,23.5-49.38,31.86v-11.55h-85.23v33.65c-87.82,4.78-159.31-38.83-203.12-109.32
	c27.88,8.16,56.75,15.93,86.22,22.1v31.66l85.23,19.71v-38.03c78.46,7.17,155.72-2.19,219.05-46.4
	C574.63,575.92,558.3,598.43,535.4,617.74L535.4,617.74z M236.31,318.45c70.49,20.11,102.16,120.08,107.33,138.6
	c-103.95,12.35-148.55-80.45-158.31-104.15l57.95,20.31L236.31,318.45z M359.97,498.66c4.18-1,22.3,12.15,41.22,12.55
	c18.12,0.4,38.43-12.15,41.42-10.95c3.78,1.59-0.4,48.19-42.22,47.79c-22.9-0.2-41.82-19.52-41.42-43.01
	C359.17,500.05,359.97,498.86,359.97,498.66L359.97,498.66z M635.77,274.24c-3.78-2.19-7.57-3.98-11.35-5.58
	c-11.35-13.34-23.9-24.89-37.24-34.05c-31.86-21.71-65.91-27.88-98.57-17.92C410.55,100.39,465.51,8.59,456.75,4.01
	c-1.79-1-3.78,0.4-11.75,8.76c-22.7,24.29-76.07,4.98-62.73,32.46c17.72,36.24,33.45,98.17-12.74,165.08
	c-24.89-10.75-50.78-12.55-75.67-4.58c-47,14.93-84.03,35.25-111.51,61.53C81.58,309.68,37.97,383.96,45.94,498.86
	c3.78,56.55,38.43,128.04,92.4,190.97c47.99,55.76,102.95,94.59,135.41,92.2c9.76-0.6,19.32-3.58,28.68-8.56
	c49.78,46.4,87.82,36.44,140.79-9.36c11.35,8.96,23.1,14.54,37.84,14.54c72.48,0,235.57-115.3,269.03-230
	C785.52,426.57,749.27,339.35,635.77,274.24L635.77,274.24z"/>
</svg>
