<?xml version="1.0" encoding="utf-8"?>
<!-- Generator: Adobe Illustrator 24.1.2, SVG Export Plug-In . SVG Version: 6.00 Build 0)  -->
<svg version="1.1" id="Layer_1" xmlns="http://www.w3.org/2000/svg" xmlns:xlink="http://www.w3.org/1999/xlink" x="0px" y="0px"
	 viewBox="0 0 810 810" style="enable-background:new 0 0 810 810;" xml:space="preserve">
<g>
	<path d="M750.78,526.72c-12.76-88.34-50.84-182.4-119.76-241.99c-29.89-25.7-64.35-41.32-98.81-42.27
		c-47.41-43.41-85.87-98.43-83.2-165.64c0.57-13.52,18.47-57.31,6.28-68.73c-14.09-13.52-21.9,11.8-57.88,16.37
		c-8.19,0.95-19.23,0.19-26.27,5.33c-20.56,14.85,8.38,56.55,10.28,76.73c5.9,64.92-43.22,100.91-88.34,136.32
		c-36.18-3.05-73.3,10.85-105.48,36.75C59.84,382.4,9.01,632.58,125.72,748.53c50.45,50.26,133.66,52.55,189.82,11.23
		c60.55,62.07,138.23,58.26,196.11-6.47c56.74,47.22,134.99,66.64,190.58,4.95C756.68,697.69,761.63,603.07,750.78,526.72z
		 M374.18,207.43c35.79-45.89,44.17-99.58,19.99-151.74c-1.33-2.86-2.29-4.57-3.05-5.52c3.24,2.28,28.56-3.05,32.56-4.19
		c-4.76,24.37-0.95,56.17,2.48,74.82c9.52,49.31,37.7,90.82,72.54,125.85c-14.85,4-29.51,11.23-43.41,22.09
		c-31.23-13.14-64.54-12.19-95.39,2.47c-10.28-8.57-20.94-15.04-31.99-19.8C344.86,238.65,360.85,224.56,374.18,207.43z
		 M699.56,717.31c-41.51,71.59-115.57,62.64-171.55,15.61c7.43-10.47,14.09-21.51,19.8-32.56c7.81-14.85-14.66-28.18-22.66-13.33
		c-63.59,121.28-165.64,121.66-229.04,0c-7.81-14.85-30.46-1.71-22.66,13.33c7.04,13.52,15.61,27.04,25.13,39.6
		c-55.78,41.7-134.61,23.61-172.88-32.18c-78.25-114.24-31.03-301.2,61.88-392.97c41.51-41.32,99.39-64.16,148.32-29.13
		c-21.89,16.37-39.98,38.84-54.26,62.26c-8.76,14.47,13.9,27.61,22.66,13.14c21.89-35.6,53.5-70.64,97.67-75.02
		c45.69-4.57,82.25,27.23,107,62.26c9.71,13.52,32.37,0.57,22.66-13.33c-14.28-19.99-31.42-38.65-51.22-52.36
		c51.6-32.94,109.86-4.38,150.22,38.27c48.93,51.6,77.68,121.28,91.01,190.39C734.6,577.94,734.6,656.76,699.56,717.31z"/>
	<path d="M564.77,390.4l-99.2,141.46l182.21-48.55C549.91,479.69,564.77,390.4,564.77,390.4z"/>
	<path d="M260.71,390.4c0,0,14.85,89.3-83.01,92.91l182.21,48.55L260.71,390.4z"/>
	<path d="M256.33,590.31c172.5,198.58,307.87,0,307.87,0C464.81,639.24,362.38,640.77,256.33,590.31z"/>
</g>
</svg>
