<?xml version="1.0" encoding="utf-8"?>
<!-- Generator: Adobe Illustrator 24.1.2, SVG Export Plug-In . SVG Version: 6.00 Build 0)  -->
<svg version="1.1" id="Layer_1" xmlns="http://www.w3.org/2000/svg" xmlns:xlink="http://www.w3.org/1999/xlink" x="0px" y="0px"
	 viewBox="0 0 810 810" style="enable-background:new 0 0 810 810;" xml:space="preserve">
<g>
	<path d="M693.79,310.64c-19.68-17.54-42.67-35.27-68-45.99c-34.88-38.78-80.86-64.5-133.28-53.58
		c-24.55-38.58-39.56-82.03-37.41-130.16c0.78-16.56,3.9-32.54,7.6-48.52c1.75-7.4,7.02-18.71,0.58-25.14
		c-11.5-11.5-27.67,13.44-46.18,18.12c-10.13,2.73-23.77,0.19-33.32,5.46c-23.58,13.05,5.07,57.09,7.41,77.55
		c4.48,37.61-6.43,68.59-25.14,95.67c-62.16-19.29-129.19,13.83-177.12,53.97c-0.97,0.58-1.75,1.56-2.14,2.34
		c-21.24,8.96-41.7,21.04-58.65,33.32c-62.55,45.79-86.32,118.08-83.01,193.49c3.7,81.84,51.05,157.44,105.41,216.09
		c38.58,41.7,93.14,93.92,152.18,72.68c48.52,43.45,95.09,33.71,142.63-7.6c56.31,31.96,129.38-18.12,174-51.64
		c66.05-49.69,122.95-114.96,139.71-197.77C774.85,440.02,754.78,364.81,693.79,310.64z M585.65,255.11
		c-17.15-0.78-35.27,2.53-51.25,8.38c-10.33-10.72-19.87-22.02-28.84-33.71C535.77,226.27,562.46,236.98,585.65,255.11z
		 M378.91,224.32c32.73-45.79,42.87-99.96,24.94-153.15c-5.46-15.98-14.42-20.85,5.46-23.97c8.77-1.56,19.48-2.73,28.84-6.43
		c-7.4,28.25-4.87,63.52-0.39,89.83c9.74,54.95,39.36,102.1,76.77,142.05c-17.93,9.35-34.29,21.82-49.3,35.46
		c-34.49-7.99-74.04-12.86-107.17-7.99l-27.47-25.33C348.71,259.98,365.27,243.41,378.91,224.32z M352.42,221.79l-40.92,40.14
		c-21.43-12.08-44.82-18.71-69.76-16.37C275.84,225.68,314.81,213.8,352.42,221.79z M731.79,542.51
		c-20.07,66.64-75.02,121.59-129.97,161.73c-36.05,26.11-94.31,67.61-140.29,48.91c15.2-15.39,28.84-31.76,39.94-45.6
		c8.38-10.33-6.24-24.94-14.61-14.61c-26.5,32.93-62.74,77.36-105.61,88.66c-50.08,13.06-89.63-45.01-111.26-81.25
		c-6.82-11.3-24.55-0.97-17.93,10.52c9.35,15.39,20.85,32.93,34.49,48.52c-50.08,9.94-100.54-46.57-130.16-80.47
		c-44.04-50.27-84.18-113.99-90.02-181.99c-9.94-114.96,42.67-188.23,148.28-223.88c46.96-15.78,86.32,0.39,119.83,32.35
		c-23.97,7.21-46.18,20.07-67.81,40.53c-9.74,9.16,4.87,23.77,14.42,14.61c47.93-45.21,100.74-47.74,162.7-35.85
		c33.9,6.43,68.98,16.17,93.72,41.7c9.16,9.55,23.77-4.87,14.61-14.61c-17.54-17.93-39.56-29.42-63.13-37.02
		c31.37-25.92,71.32-46.96,112.43-36.83c35.85,8.96,72.29,38.58,96.45,65.66C747.96,399.49,753.03,472.95,731.79,542.51z"/>
	<path d="M223.81,483.28c0,7.4-2.73,13.83-7.41,18.9c44.04,30.4,60.6-16.56,26.11-69.56c-20.65-31.76-50.27-49.49-65.86-39.16
		c-14.22,9.16-12.08,38,3.7,67.03C198.68,447.81,223.81,460.87,223.81,483.28z"/>
	<path d="M622.87,393.45c-15.78-10.33-45.21,7.4-65.86,39.16c-34.29,52.61-18.51,99.96,25.92,69.56
		c-22.41-24.55,9.16-60.21,36.05-41.7C634.95,431.45,636.9,402.61,622.87,393.45z"/>
	<path d="M512.19,575.44h-49.69V562h-42.87v39.56h-49.69V562h-38.39v21.24h-49.88V562h-67.61c30.4,36.44,59.23,62.55,86.51,80.47
		v-14.03h49.88v38.97c27.28,9.35,52.61,10.91,75.8,7.4v-30.2h49.69v13.64c63.13-32.35,99.57-96.26,99.57-96.26h-63.33V575.44z"/>
</g>
</svg>
