<?xml version="1.0" encoding="utf-8"?>
<!-- Generator: Adobe Illustrator 24.1.2, SVG Export Plug-In . SVG Version: 6.00 Build 0)  -->
<svg version="1.1" id="Layer_1" xmlns="http://www.w3.org/2000/svg" xmlns:xlink="http://www.w3.org/1999/xlink" x="0px" y="0px"
	 viewBox="0 0 810 810" style="enable-background:new 0 0 810 810;" xml:space="preserve">
<path d="M578.97,680.51c-0.42,0.21-44.62,24.19-73.6,24.6c-3.34-0.42-10.84-18.97-15.64-34.4l-39.61,3.54l2.92,47.12l-128.64-10.63
	l3.75-46.91l-52.96-7.71l-19.81,33.15c-10.01-15.01-46.29-73.6-40.24-137.4c13.34,21.89,57.34,83.19,136.98,95.7l3.96,42.12
	l56.5-6.25l2.92-36.9l78.81-11.05l4.17,40.24l74.23-19.6l-8.13-43.37c15.01-2.29,76.94-12.3,109.67-32.53
	C656.74,607.33,625.26,648.2,578.97,680.51L578.97,680.51z M226.61,427.61c28.98-12.93,38.57-11.47,60.05-37.95
	c8.97-11.05,18.14-27.52,34.82-18.97c17.51,8.76,24.6,46.5,24.39,64.84c-16.05-36.9-71.51-25.44-71.51,14.8
	c0,34.19,42.53,50.66,65.26,24.39l-9.17,34.4c-37.74-14.59-71.51-32.53-104.04-57.55C208.89,438.03,208.05,435.95,226.61,427.61
	L226.61,427.61z M487.02,397.58c10.01-28.15,28.98-38.99,50.66-11.05c22.52,28.98,28.98,26.27,59.42,39.61
	c19.39,8.76,23.14,10.01,3.13,25.44c-32.53,25.02-66.09,42.95-104.04,57.55l-9.38-34.61c22.93,26.48,65.68,10.01,65.68-24.19
	c0-40.24-55.67-51.71-71.72-14.8C480.77,422.81,482.85,409.67,487.02,397.58L487.02,397.58z M778.71,457.84
	c-9.38-73.81-38.57-132.6-104.46-170.97c-61.09-35.44-138.03-49.21-205.16-26.27c-3.75-7.92-8.76-13.76-17.1-17.1
	c-18.97-7.3-15.85,4.38-35.03-15.85c-13.34-13.97-16.68-17.72-15.85-36.49c1.67-39.41,34.4-83.82,62.34-109.04
	c18.14-16.47,40.45-27.1,65.05-21.27c13.14,2.92,25.44,8.34,33.15,20.85c-1.25-1.88,6.05,24.39,8.34,26.48
	c9.17,8.76,30.65,11.47,37.32-1.67c10.01-19.6-21.68-63.59-34.4-76.1c-57.96-56.5-153.25-3.34-188.48,52.96
	c-29.19,46.49-26.27,89.65-27.94,141.57c-0.63,20.64-23.98,19.18-36.49,41.49c-95.7-26.69-191.4-16.26-248.53,74.85
	c-36.9,59-55.67,134.9-36.28,202.87C54.6,611.5,98.59,668.63,149.88,715.33c54.83,50.04,113.01,81.52,187.65,87.78
	c85.07,7.3,157,4.17,235.6-31.9c60.88-28.15,133.02-64.84,173.47-120.3C787.89,594.4,787.26,524.35,778.71,457.84L778.71,457.84z"/>
</svg>
