<?xml version="1.0" encoding="utf-8"?>
<!-- Generator: Adobe Illustrator 24.1.2, SVG Export Plug-In . SVG Version: 6.00 Build 0)  -->
<svg version="1.1" id="Layer_1" xmlns="http://www.w3.org/2000/svg" xmlns:xlink="http://www.w3.org/1999/xlink" x="0px" y="0px"
	 viewBox="0 0 810 810" style="enable-background:new 0 0 810 810;" xml:space="preserve">
<path d="M588.29,657.64c-27.67,26.1-82.22,53.57-183.87,38.46c-204.48,7.65-213.7-102.43-213.7-102.43
	c23.74,41.6,102.83,38.07,102.83,38.07l-7.46-38.07l68.09,38.07l-10.4-38.07l67.51,27.87v0.98l60.24-25.12l-10.4,38.46l68.09-38.27
	l-7.26,37.29c1.18,0,75.16,3.14,101.85-34.15C620.87,611.14,611.84,635.66,588.29,657.64L588.29,657.64z M183.26,416.47
	c42.78-10.2,62.99-41.6,64.56-79.87l83.6,119.31L183.26,416.47z M416.58,472.98l23.35,84.77c0,0-30.22-34.73-63.38,2.35
	L416.58,472.98z M549.24,336.6c1.77,38.27,21.98,69.66,64.56,79.87l-148.16,39.44L549.24,336.6z M736.84,479.66
	c-38.66-149.34-142.27-252.16-231.56-230.58C389.11,119.76,454.46,8.1,445.43,3.2c-1.77-0.98-3.73,0.39-11.58,8.63
	c-22.17,23.94-74.96,4.91-61.81,31.99c21.59,44.35,40.23,127.16-55.73,209.97c-47.88-19.43-101.45-0.79-148.75,45.92
	c-43.76,43.37-78.3,107.34-97.14,179.95c-22.57,86.93-10.99,179.75,30.42,242.15c32.77,49.26,70.45,64.95,120.1,64.95
	c38.66,0,67.51-11.97,90.46-33.36c61.03,69.27,142.07,64.95,199.96-7.26c89.09,85.95,191.92,62.6,228.03-62.01
	C756.66,624.68,755.68,552.07,736.84,479.66L736.84,479.66z"/>
</svg>
