<?xml version="1.0" encoding="utf-8"?>
<!-- Generator: Adobe Illustrator 24.1.2, SVG Export Plug-In . SVG Version: 6.00 Build 0)  -->
<svg version="1.1" id="Layer_1" xmlns="http://www.w3.org/2000/svg" xmlns:xlink="http://www.w3.org/1999/xlink" x="0px" y="0px"
	 viewBox="0 0 810 810" style="enable-background:new 0 0 810 810;" xml:space="preserve">
<path d="M602.44,505.54c-26.47,0-47.98,26.68-47.98-25.39c0-52.07,21.52-94.24,47.98-94.24c26.47,0,47.98,42.17,47.98,94.24
	C650.42,532.22,628.9,505.54,602.44,505.54L602.44,505.54z M582.43,622.16c-29.91,51.64-81.76,90.16-140.08,103.28
	c-103.5,23.67-203.77-36.36-244-131.9c25.39,8.61,60.03,19.37,96.61,28.62l-2.8,18.94l60.03,9.04l2.15-14.85
	c30.12,5.59,58.74,8.82,81.76,7.96v16.35h60.68v-25.82c45.19-12.69,86.93-37.01,115.12-74.23
	C602.22,580.64,594.04,602.15,582.43,622.16L582.43,622.16z M162.2,480.15c0-52.07,21.52-94.24,47.98-94.24
	c26.68,0,48.2,42.17,48.2,94.24c0,52.07-21.52,25.39-48.2,25.39C183.71,505.54,162.2,532.22,162.2,480.15L162.2,480.15z
	 M746.82,326.3c-23.88-6.89-46.91,6.24-64.77,23.88c-27.54-61.11-79.18-86.93-136.2-49.92c-27.76-35.5-62.4-60.89-100.92-71.87
	c-58.31-120.28-7.96-208.72-17-213.66c-2.15-1.08-4.3,0.65-12.91,10.33c-24.31,27.97-81.98,5.81-67.78,37.01
	c17.64,38.52,33.35,101.56-2.58,171.06c-35.29,13.56-66.7,39.16-91.88,73.59c-55.51-35.5-106.94-10.97-134.48,48.84
	C37.18,292.95-18.76,418.61,16.1,576.12c18.07,82.19,68.21,181.6,126.95,181.6c17,0,30.98-8.82,41.96-23.02
	c33.78,35.5,80.47,57.67,123.51,29.26c60.25,40.67,130.82,39.59,190.21-2.58c46.48,23.88,93.81-6.67,125.23-44.54
	c19.37,27.33,46.69,33.35,74.88,16.57c40.67-24.1,78.32-91.66,96.18-172.35C820.19,447.01,798.67,341.58,746.82,326.3L746.82,326.3z
	"/>
</svg>
