<?xml version="1.0" encoding="utf-8"?>
<!-- Generator: Adobe Illustrator 24.1.2, SVG Export Plug-In . SVG Version: 6.00 Build 0)  -->
<svg version="1.1" id="Layer_1" xmlns="http://www.w3.org/2000/svg" xmlns:xlink="http://www.w3.org/1999/xlink" x="0px" y="0px"
	 viewBox="0 0 810 810" style="enable-background:new 0 0 810 810;" xml:space="preserve">
<path d="M529.84,611.55V599h-46.45v29.99c-24.89,7.45-52.92,12.74-83.1,13.72v-24.5h-46.65v22.54c-20.78-2.55-42.34-7.25-64.68-14.9
	V603.9H242.5v2.35c-21.36-10.98-43.32-24.5-65.46-41.55h148.57v19.21h46.45V564.7h49.2v19.21h46.45V564.7h138.57
	C606.28,564.7,577.66,589.79,529.84,611.55L529.84,611.55z M353.63,338.91c0,0-80.75,193.45-154.06,9.02L353.63,338.91z
	 M583.74,338.91c0,0-80.75,193.45-154.25,9.02L583.74,338.91z M707.81,471.99c-7.84-72.91-44.69-174.83-97.61-229.52
	c-84.08-87.02-171.11-79.97-174.25-81.34l-53.9-54.88c-24.7-19.8-60.37-26.26-80.56-50.18c-4.7-5.49-8.43-13.52-4.7-19.21
	c7.06-10.78,31.16,0.98,38.81-6.08l15.48-26.26c-21.36,4.12-34.89,0-55.08,0.39c-56.84,1.18-64.09,52.14-21.17,81.73
	c24.3,16.86,88.79,40.96,46.45,61.94l-20.78,10.39c-14.7-0.2-29.6,0.78-43.9,5.68c-39.59,15.68-73.31,44.3-96.83,79.38
	c-45.86,67.62-60.96,160.92-61.15,241.67c-0.59,116.82,32.54,207.76,133.48,267.93c17.84,11.17,37.24,19.21,56.84,26.85
	c20.38,6.86,40.96,12.54,62.13,16.46c40.77,9.8,36.26,7.84,67.42,6.27c23.52-1.37,30.58,0,56.84-5.29
	c72.91-14.5,141.12-52.53,184.63-113.68C702.52,624.68,717.41,543.53,707.81,471.99L707.81,471.99z"/>
</svg>
