<?xml version="1.0" encoding="utf-8"?>
<!-- Generator: Adobe Illustrator 24.1.2, SVG Export Plug-In . SVG Version: 6.00 Build 0)  -->
<svg version="1.1" id="Layer_1" xmlns="http://www.w3.org/2000/svg" xmlns:xlink="http://www.w3.org/1999/xlink" x="0px" y="0px"
	 viewBox="0 0 810 810" style="enable-background:new 0 0 810 810;" xml:space="preserve">
<g>
	<path d="M539.53,373.98c0,7.2,0,14.4,0,21.6c10.8,1.15,24.71-4.09,22.09-17.35C559.49,367.11,545.74,366.62,539.53,373.98z"/>
	<path d="M425.79,390.51c10.15-19.31-24.38-27.49-24.22,2.29c0.16,4.91,0.33,10.15,0.65,15.38
		C407.95,404.75,420.55,400.49,425.79,390.51z"/>
	<path d="M802.35,682.14c-15.06-2.78-29.29-1.96-43.04,2.62c11.95-15.87,25.37-30.44,40.1-43.7c2.78-2.62-0.16-8.18-3.76-6.71
		c-23.89,10.15-45.17,25.53-69.06,35.51c-9.82-23.73,2.78-23.4,7.04-32.57c4.09-8.84,1.96-20.78,3.76-30.28
		c3.11-16.53,10.31-22.58,22.42-32.4c14.57-11.78,46.97-51.39,32.4-70.7c-0.98-1.31-2.62-2.45-4.42-1.8
		c-26.51,8.67-41.08,34.2-58.1,54.5c-13.42,16.04-33.55,26.18-44.51,43.2c1.96-17.18,10.15-34.04,6.06-51.72
		c-0.98-3.76-6.71-3.6-7.69,0c-6.06,22.75-21.77,35.68-35.19,52.04c10.8-107.85,24.88-278.21-52.86-365.28
		c-19.64-21.93-45.17-38.62-72.83-46.15l8.35-89.85l50.9,4.58l2.95-31.42l-50.9-4.75l4.26-45.82l-31.42-2.95l-4.26,45.82l-50.9-4.58
		l-2.95,31.42l50.9,4.75l-8.35,88.37c-111.78-1.15-183.95,158.91-209.97,248.75c21.44,35.68,38.62,73.32,55.48,111.61
		c11.78,27,23.08,51.39-1.96,74.3c-6.22-1.96-12.44-3.6-18.66-4.75c2.62-2.13,5.07-4.09,7.53-6.22
		c24.06-22.42-3.27-60.55-13.91-84.28c-30.28-68.41-84.28-177.07-165.78-190.66c-47.95-7.86-85.1,20.62-98.85,65.46
		c-19.47,63.99-7.36,143.52,15.22,205.22c28.31,76.75,42.22,65.46,51.55,79.21c-30.28-7.53-60.22-18.49-88.21-32.57
		c-2.62-1.31-7.2,0.98-5.73,4.58c15.38,37.8,43.86,67.26,80.68,83.63c-20.13,3.76-40.59,7.36-60.39,12.6
		c-29.62,7.53-38.13,25.2-30.28,26.68c36.99,7.53,74.63,15.22,112.43,11.62c27.33-2.45,54.33-10.15,81.01-17.67
		c8.18,2.95,17.02,4.09,25.69,4.26c22.58,0.65,45.66-1.8,68.08-3.44c89.19-5.73,183.29-13.91,271.67,2.45
		c68.9,12.77,105.07,9.16,158.42-40.59c18.98-17.67,46.15-48.77,74.95-44.84C805.14,690.33,807.43,683.12,802.35,682.14z
		 M192.09,547.29l-22.58,9.49l-33.71-79.86l-36,15.22l-9.49-22.58l36-15.22l-13.75-32.4l22.58-9.66l13.75,32.57l36-15.22l9.66,22.58
		l-36.17,15.22L192.09,547.29z M440.68,457.61c-12.11-13.26-25.37-25.53-37.64-38.79c1.64,15.87,4.42,32.08,8.02,46.48
		c1.8,6.55-8.35,9.33-10.15,2.78c-3.11-12.44-10.31-68.08-9.66-80.19c2.29-43.7,56.95-25.69,47.3,1.47
		c-3.93,10.96-14.57,19.31-25.2,24.88c11.46,12.11,23.57,23.57,34.69,36C452.63,455.32,445.1,462.68,440.68,457.61z M506.14,457.12
		c-11.46,0.33-22.75,0.65-34.04,0.98c-6.87,0.33-6.87-10.15,0-10.47c2.78,0,5.73-0.16,8.67-0.16c4.58-5.56-1.31-66.93-2.45-76.75
		c-2.95,0.16-5.89,0.49-9,0.82c-6.55,0.98-9.33-9-2.78-9.98c11.95-1.8,23.73-2.13,35.68-0.65c6.55,0.82,6.71,11.46,0,10.64
		c-4.42-0.65-8.84-0.98-13.42-0.98c1.47,12.76,5.24,64.32,3.11,76.43c4.75-0.16,9.49-0.16,14.24-0.33
		C512.85,446.32,512.85,456.95,506.14,457.12z M562.76,400.17c-6.55,5.4-15.06,7.04-23.24,6.06c0,14.89,0,29.79,0,44.68
		c0,6.87-10.64,6.87-10.64,0l0.49-80.85c7.04-13.58,34.37-18,41.9,3.11C574.55,382.82,570.46,393.78,562.76,400.17z"/>
</g>
</svg>
