<?xml version="1.0" encoding="utf-8"?>
<!-- Generator: Adobe Illustrator 24.1.2, SVG Export Plug-In . SVG Version: 6.00 Build 0)  -->
<svg version="1.1" id="Layer_1" xmlns="http://www.w3.org/2000/svg" xmlns:xlink="http://www.w3.org/1999/xlink" x="0px" y="0px"
	 viewBox="0 0 810 810" style="enable-background:new 0 0 810 810;" xml:space="preserve">
<path d="M335.41,193.97c0-23.2,30.43-23.01,30.24,0.19C365.65,217.75,335.03,217.18,335.41,193.97L335.41,193.97z M283.11,234.67
	c-9.89,0-5.9-10.27-5.71-22.44c0-7.42,5.14-14.45,12.55-14.45c7.23,0.19,19.78,21.11,19.59,28.53
	C309.55,231.82,300.61,234.67,283.11,234.67L283.11,234.67z M274.55,149.28c0.19-23.2,30.43-23.01,30.24,0.38
	C304.6,172.86,274.17,172.48,274.55,149.28L274.55,149.28z M625.26,224.97c7.42,13.5,28.72,14.26,40.13,4.18
	c59.53-52.3-41.08-136.74-98.52-106.5c-47.93,25.29-60.29,86.92-49.26,136.17c19.97,88.63,116.2,145.68,89.39,243.63
	c-11.79,43.36-35.75,83.3-68.09,114.68c-15.4,14.83-68.09,58.96-60.48,7.8c14.64-96.23,15.6-203.69-87.87-244.01
	c-10.46-4.18-21.87-7.61-30.43-15.02c-16.55-14.45-18.07-38.99-18.45-60.86c11.98-2.85,21.11,8.18,38.42,2.66
	c2.47,8.56,3.99,17.5,4.76,26.82c0.57,10.46,17.12,10.65,16.36,0c-0.76-12.17-3.04-23.96-6.66-35.37c2.28-1.9,4.37-4.18,6.28-6.66
	c6.66,10.08,12.17,20.92,16.17,32.52c3.42,10.08,19.4,5.71,15.98-4.37c-5.71-16.17-13.5-31-23.58-44.5
	c1.14-3.61,2.09-7.42,2.66-11.03c14.26,0.95,27.96,5.52,40.51,13.31c9.13,5.71,17.31-8.56,8.37-14.26
	c-14.83-9.32-31.19-14.26-47.93-15.4c-0.19-8.94-1.14-18.07-2.28-27.01c65.23-3.99,98.71-77.03,66.95-96.23
	c-13.88-8.37-31.38,0-47.55,2.47c-28.34,4.37-60.67-14.45-66.76-36.9c-7.23-26.25,13.31-47.93-6.28-73.03
	c-9.13-11.79-26.25-17.88-39.75-11.79C288.63,19,294.71,74.92,274.55,82.9c-9.7,3.8-42.79-11.79-71.89,19.21
	c-6.66-5.13-13.31-10.08-19.97-15.21c-8.56-6.28-16.74,7.99-8.37,14.26c6.28,4.75,12.36,9.51,18.64,14.07
	c-4.18,7.61-7.04,15.79-8.75,24.53c-9.7-1.14-19.21-1.52-29.1-1.14c-10.46,0.57-10.46,17.12,0,16.55c9.32-0.38,18.26,0,27.2,0.95
	c-0.19,6.47,0.19,12.74,1.14,19.02c-18.07,0.19-35.94,0.95-54.01,2.47c-10.46,0.95-10.65,17.5,0,16.55
	c19.21-1.71,38.61-2.47,57.82-2.47c22.63,73.41,76.08,76.84,46.6,153.1c-9.51,24.53-23.77,47.74-27.96,73.79
	c-5.13,31.95,5.33,64.09,8.75,96.23c4.76,44.5-30.24,146.44-26.63,191.14c2.66,30.05,25.1,36.14,52.3,41.27
	c1.14,73.03,54.39,63.9,57.44,36.52c0.76-7.8-1.14-15.79-3.04-23.77c6.85,1.33,13.88,1.71,20.92,1.52
	c7.23,56.87,53.44,48.12,56.49,22.25c1.14-10.08-2.47-20.54-4.75-31c64.47-16.74,92.43-47.93,146.25-71.32
	c81.78-35.56,156.9-129.71,152.91-221.95c-2.47-55.72-184.86-269.3-59.53-301.07c17.31-4.37,37.09,7.04,41.84,24.34
	C653.59,199.87,642.37,219.84,625.26,224.97L625.26,224.97z"/>
</svg>
