<?xml version="1.0" encoding="utf-8"?>
<!-- Generator: Adobe Illustrator 24.1.2, SVG Export Plug-In . SVG Version: 6.00 Build 0)  -->
<svg version="1.1" id="Layer_1" xmlns="http://www.w3.org/2000/svg" xmlns:xlink="http://www.w3.org/1999/xlink" x="0px" y="0px"
	 viewBox="0 0 810 810" style="enable-background:new 0 0 810 810;" xml:space="preserve">
<path d="M252.04,201.23c-5.18-0.21-9.75-0.41-13.89-0.83c13.27-5.6,10.37-35.25-3.32-35.25c-12.65,0-16.38,26.54-4.77,34.42
	c-55.57-7.26-32.55-34.42-32.55-34.42h89.58L252.04,201.23z M138.82,198.12c9.95-9.54,5.39-32.97-6.43-32.97
	c-12.86,0-16.38,27.37-4.35,34.63c-5.6,0.62-12.03,1.24-19.49,1.45l-35.04-36.08h89.58C163.08,165.15,183.61,189.41,138.82,198.12
	L138.82,198.12z M741.18,380.59c-30.9-31.72-84.81-41.47-120.89-15.76c-38.77,27.78-21.77,103.26,23.64,102.64
	c17.21-0.21,23.22-13.69,18.25-21.56c-0.83,0-1.45,0-2.07,0c5.39,9.12-13.68,15.97-24.88,8.29c-7.05-4.77-8.5-15.14-5.39-23.22
	c18.87-50.39,105.96-45.2,95.8,49.97c-10.57,100.77-111.14,174.17-211.91,184.34c-2.9,0.21-22.39-48.73-23.64-54.12
	c-17.42-81.07,46.45-100.77-102.64-278.89c-5.39-6.43-69.67-82.32-72.78-78.79c20.94-22.81,13.06-59.09,1.24-87.71
	c-11.82-28.61-26.75-59.92-16.17-88.95c8.29-23.43,32.76-47.28,19.7-68.63c-50.39,21.98-93.1,68.43-148.05,68.01
	C123.06,75.78,83.46,38.88,49.66,4.25c4.98,37.32,18.66,86.26,8.71,123.17C48,165.98,24.78,189.62,39.71,233.16
	c11.82,34.01,8.5,24.88-0.62,55.57c-6.64,21.98-1.24,45.41,4.35,67.6c23.43,89.78,52.87,177.91,88.12,263.75
	c23.64,57.23,3.32,60.34-24.67,92.27c-12.03,13.48-18.87,36.29-5.39,48.11c19.7,17.21,53.7-10.37,74.85,4.56
	c6.43,4.56,9.95,11.82,14.72,18.04c18.25,24.26,57.64,28.41,80.45,8.71c17.21-14.72,34.21-42.09,54.33-31.93
	c6.01,3.11,9.95,9.12,15.76,12.44c21.36,12.44,42.3-16.59,65.11-25.71c30.07-12.23,75.27,7.26,90.82-21.15
	c7.88-14.1,5.18-23.85,27.37-19.49c109.27,21.77,228.71-105.96,247.78-201.96C781.19,460.63,771.86,412.11,741.18,380.59
	L741.18,380.59z"/>
</svg>
