<?xml version="1.0" encoding="utf-8"?>
<!-- Generator: Adobe Illustrator 24.1.2, SVG Export Plug-In . SVG Version: 6.00 Build 0)  -->
<svg version="1.1" id="Layer_1" xmlns="http://www.w3.org/2000/svg" xmlns:xlink="http://www.w3.org/1999/xlink" x="0px" y="0px"
	 viewBox="0 0 810 810" style="enable-background:new 0 0 810 810;" xml:space="preserve">
<g>
	<path d="M652.67,156.52c-54.82-46.69-109.46-93.39-164.09-140.08C470.06,0.75,449.64,5.66,425.82,5.66L314.29,6.23l-3.78,2.46
		c-45.56,44.05-91.12,88.09-136.68,132.14c-10.21,10.02-20.79,15.88-19.28,30.63c1.51,15.31,7.18,31.38,10.59,46.5l132.52,579.23
		c1.13,4.54,5.67,7.75,10.21,7.75c56.33,0,112.86,0,169.38,0c4.54,0,8.89-3.21,10.02-7.75l168.06-630.46
		C656.26,163.32,655.51,158.98,652.67,156.52z M487.64,714c-6.05,23.25-12.29,46.69-18.53,69.95c-51.04,0-101.89,0-152.93,0
		L175.34,168.62c48.96-47.26,97.92-94.71,146.89-141.97c32.89,0,65.79,0,98.68,0c12.29,0,34.78,4.35,47.07,0.38
		c2.65,2.84,7.56,5.67,9.83,7.75c51.99,44.24,103.78,88.47,155.58,132.9C584.8,349.72,536.22,531.96,487.64,714z"/>
	<path d="M422.42,57.65c-11.72,0-86.2-1.13-91.31,0.94l-3.97,2.65c-37.05,37.62-77.32,73.35-111.91,113.05
		c-15.69,18.15,0.57,53.69,5.1,74.86l107.75,503.8c1.13,5.29,6.62,9.07,11.72,9.07c34.78,0,69.57,0,104.35,0
		c5.29,0,10.4-3.78,11.72-9.07L601.25,189.6c0.95-4.16,0-9.07-3.21-11.91c-41.78-37.05-83.18-74.67-125.33-111.16
		C458.15,53.87,441.32,57.65,422.42,57.65z M511.27,312.48h-81.29v180.16h-50.85V312.48h-81.48v-50.85h81.48v-73.35h50.85v73.35
		h81.29V312.48z"/>
	<polygon points="420.91,197.16 388.01,197.16 388.01,270.51 306.72,270.51 306.72,303.4 388.01,303.4 388.01,483.56 420.91,483.56 
		420.91,303.4 502.19,303.4 502.19,270.51 420.91,270.51 	"/>
</g>
</svg>
