<?xml version="1.0" encoding="utf-8"?>
<!-- Generator: Adobe Illustrator 24.1.2, SVG Export Plug-In . SVG Version: 6.00 Build 0)  -->
<svg version="1.1" id="Layer_1" xmlns="http://www.w3.org/2000/svg" xmlns:xlink="http://www.w3.org/1999/xlink" x="0px" y="0px"
	 viewBox="0 0 810 810" style="enable-background:new 0 0 810 810;" xml:space="preserve">
<path d="M398.22,157.14c-11.67,30.6-42.75,0.79-32.02-31.08C375.66,97.82,408.47,120.7,398.22,157.14L398.22,157.14z M366.19,261.57
	c-2.05-2.37-5.99-2.05-8.05,0c-7.41,7.41-3.94,40.07-3.16,49.69c0.47,7.89,1.1,4.73-2.05,0c-3-4.89-7.57-9.15-11.2-13.72
	c-13.88-17.2-16.88-35.02-19.09-55.84c20.35,0.47,40.07-6.47,54.74-20.19c1.42,8.05,2.21,16.09,2.37,24.29
	C379.92,257.47,380.39,277.5,366.19,261.57L366.19,261.57z M299.46,179.22c-14.2,4.1-21.45-16.56-22.56-26.82
	c-3.79-37.86,31.24-41.17,35.34-3.79C312.87,158.72,311.61,175.91,299.46,179.22L299.46,179.22z M643.05,171.81
	c-47.96,24.77-160.75,98.12-182.36,8.52c-7.1-29.34-4.73-60.73-13.57-89.76C430.87,37.25,373.77-0.46,318.24,5.7
	c-55.37,5.99-103.01,55.06-107.43,110.58c-2.84,35.65,10.1,70.67,13.41,106.33c3.16,35.65-7.89,77.77-40.86,91.5
	c-18.14,7.57-38.49,4.89-57.9,7.41c-57.42,7.57-100.8,67.36-107.75,121.79c33.13,4.26,58.68-26.03,85.82-45.75
	c29.66-21.61,68.94-21.14,83.29,12.78c8.05,18.77,7.57,42.75,23.98,54.9c14.99,11.36,36.28,6.15,54.9,9.78
	c47.48,9.31,61.68,71.93,52.53,119.58c-9.31,47.64-31.39,96.39-17.04,142.77c11.99,39.28,51.9,68.31,93.07,67.68
	c70.36-1.1,112.64-80.3,85.5-117.05c-9.62-13.09-30.76-17.83-42.44-6.63c21.93,5.99,26.5,39.6,9.94,55.21
	c-16.56,15.46-44.64,12.94-62.47-1.1c-21.14-16.72-29.82-47.48-20.35-72.72c9.47-25.08,36.28-42.59,63.1-41.17
	c11.67,0.63,23.19,4.42,34.86,3.79c27.13-1.42,47.64-26.66,54.42-53c6.94-26.19,3.63-53.79,4.1-80.93
	c0.79-61.68,28.55-130.93,87.55-149.39c20.19-6.47,43.7-6.63,59.79-20.51c21.45-18.46,20.03-51.43,27.13-78.88
	c11.52-44.33,51.59-79.66,96.86-85.82C747.48,129.85,689.59,147.83,643.05,171.81L643.05,171.81z"/>
</svg>
