<?xml version="1.0" encoding="utf-8"?>
<!-- Generator: Adobe Illustrator 24.1.2, SVG Export Plug-In . SVG Version: 6.00 Build 0)  -->
<svg version="1.1" id="Layer_1" xmlns="http://www.w3.org/2000/svg" xmlns:xlink="http://www.w3.org/1999/xlink" x="0px" y="0px"
	 viewBox="0 0 810 810" style="enable-background:new 0 0 810 810;" xml:space="preserve">
<path d="M548.8,237.6c-7.42,7.42-26.19,0.47-41.97-15.31c-38.03-38.03-11.36-64.54,26.51-26.67
	C549.27,211.57,556.21,230.34,548.8,237.6L548.8,237.6z M491.52,273.27c-4.73,10.41-16.88,15.94-28.4,15.94
	c-11.52,0.16-22.41-4.1-33.14-8.36c-17.52-6.79,0.32-27.93,11.05-33.61C461.38,236.5,507.93,236.97,491.52,273.27L491.52,273.27z
	 M386.58,237.6c-7.42-7.26-0.47-26.04,15.46-41.97c37.87-37.87,64.54-11.36,26.51,26.67C412.78,238.08,394,245.02,386.58,237.6
	L386.58,237.6z M802.38,438.32c-7.89-11.05-24.46,0.79-30.77-11.99c-2.21-4.73-1.74-10.1,0.47-14.83
	c7.42-16.1,8.52-29.67-5.84-39.61c-12.62-8.52-30.61-4.26-43.08,4.26c-19.88,13.57-52.55,38.66-75.11,14.2
	c-10.57-11.52-13.41-26.83-16.41-41.66c-15.31-79.21-36.92-157.17-64.85-232.75c-12.62-34.4-25.41-53.33-65.96-57.75
	c-64.85-6.79-108.72,30.61-143.12,80.95c-52.55,76.69-84.42,168.37-150.38,233.85c-10.73,10.73-24.14,23.2-39.45,26.83
	c-12.31,3-33.14-0.95-41.82-10.89c-17.36-19.88,3.16-64.7-6.47-98.78c-7.73-27.46-29.98-26.83-36.77-16.73
	c-6,9.15,0.79,27.93-10.73,33.14c-6.31,2.84-13.25-1.58-19.88-3.47c-9.78-2.68-31.72,2.84-33.29,15.62
	c-1.26,11.05,17.36,11.99,16.25,25.56c-0.63,6.79-4.26,12.94-9.47,17.2c-10.41,8.21-27.61,22.88-17.52,36.45
	c13.89,18.94,39.92-7.89,126.87,59.8c31.88,24.77,38.66,68.8,34.56,107.78c-4.89,47.02-31.88,116.3-24.46,144.38
	c2.68,9.94,9.94,19.41,20.04,21.62c20.36,4.26,35.82-20.04,56.33-22.72c23.2-3.16,40.4,21.46,62.96,27.46
	c34.87,9.47,67.69-26.98,84.89-27.93c12.47-0.79,50.65,21.14,61.23,27.46c17.2,10.26,38.03,22.25,55.54,12.62
	c16.1-8.84,21.3-32.82,39.13-37.56c24.46-6.31,61.07,32.35,66.91-18.15c3.79-32.03,7.42-64.38,3.63-96.26
	c-1.74-14.36-5.05-28.72-3.79-43.08c3-36.14,39.92-64.7,76.37-58.54c28.09,4.58,49.86,34.24,79.06,32.19
	c14.36-0.95,28.88-13.25,26.98-27.61c-2.05-15.46-13.1-23.83,9.15-31.4C799.22,462.62,810.58,449.84,802.38,438.32L802.38,438.32z"
	/>
</svg>
