<?xml version="1.0" encoding="utf-8"?>
<!-- Generator: Adobe Illustrator 24.1.2, SVG Export Plug-In . SVG Version: 6.00 Build 0)  -->
<svg version="1.1" id="Layer_1" xmlns="http://www.w3.org/2000/svg" xmlns:xlink="http://www.w3.org/1999/xlink" x="0px" y="0px"
	 viewBox="0 0 810 810" style="enable-background:new 0 0 810 810;" xml:space="preserve">
<path d="M430,176.05c-31.41,0-31.41-47.61,0-47.61S461.41,176.05,430,176.05L430,176.05z M383.37,4.28h-8.1
	c-41.33,0.99-82.5,34.39-88.61,75.72c-5.46,37.69,13.06,75.72,5.62,113.08c-11.57,58.03-39.68,70.92-83.82,95.39
	c-54.23,29.92-79.52,69.11-120.85,115.4c-7.11,7.94-27.94,32.9-15.54,43.48c14.05,12.07,72.91-18.52,106.3,13.06
	c21.66,20.5,28.93,54.56,17.69,82.17c-6.12,15.21-17.36,28.1-23.15,43.65s-5.62,41.83,10.75,44.14c30.92,4.3,26.78-61,56.71-69.77
	c22.81-6.61,41,19.01,50.75,40.67c23.15,51.42,22.32,144.99,66.46,155.74c30.92,7.61,38.36-34.55,60.67-47.61
	c7.27,23.81,14.55,47.78,21.99,71.75c2.31,7.44,4.96,15.71,11.57,20.17c12.07,8.27,29.43-1.98,35.54-15.38
	c9.75-21.16,1.82-64.81,36.87-81.34c14.88-6.94,39.35-1.98,55.71-0.5c72.41,6.78-62.33-133.42-18.52-185.5
	c15.04-18.02,39.18-24.8,59.35-36.87c20-12.07,38.02-36.37,28.11-57.53c-5.29-11.08-16.86-18.35-20.83-29.92
	c-7.11-20.67,16.2-41.5,38.02-40.67c21.82,0.66,36.37,34.55,57.53,28.77c42.82-11.9-13.06-88.61-50.92-111.92
	c-72.08-44.47-196.24-29.76-192.77-86.13c2.98-45.46,25.29-105.48-6.61-145.65C452.64,12.55,415.28,4.94,383.37,4.28L383.37,4.28z
	 M416.6,308.15c-10.75,12.73-42.32-73.57-42.32-89.44c0-21.82,26.62-30.09,36.21-18.85c6.12,7.11,6.94,22.15,2.98,46.13
	C411.48,258.06,423.55,300.21,416.6,308.15L416.6,308.15z M351.47,176.05c-31.41,0-31.41-47.61,0-47.61S382.88,176.05,351.47,176.05
	L351.47,176.05z"/>
</svg>
