<?xml version="1.0" encoding="utf-8"?>
<!-- Generator: Adobe Illustrator 24.1.2, SVG Export Plug-In . SVG Version: 6.00 Build 0)  -->
<svg version="1.1" id="Layer_1" xmlns="http://www.w3.org/2000/svg" xmlns:xlink="http://www.w3.org/1999/xlink" x="0px" y="0px"
	 viewBox="0 0 810 810" style="enable-background:new 0 0 810 810;" xml:space="preserve">
<path d="M529.44,231.95c-13.22-25.93,48.6-57.35,61.65-31.6C604.31,226.11,542.66,257.71,529.44,231.95L529.44,231.95z
	 M505.06,178.2c-17.17,8.76-35.37,7.04-40.87-3.95c-13.22-25.76,48.42-57.18,61.65-31.42C531.33,153.64,522.06,169.44,505.06,178.2
	L505.06,178.2z M480.16,279.51c-15.11-1.2-39.15-7.04-49.63-17.34c-18.89-18.37-11.85-47.39-5.67-69.89
	c17,37.95,57.53,63.19,94.27,79.68C507.12,277.97,493.55,280.54,480.16,279.51L480.16,279.51z M778.77,489.7
	c-3.95-60.62-71.09-99.6-127.41-103.89c-25.59-1.89-50.83,8.24-76.24,3.43c-5.32-0.86,7.9-20.61,11.33-25.59
	c16.66-24.38,38.81-55.12,54.43-81.22c18.72-31.08,30.39-76.76,31.25-112.13c1.2-46.71-1.37-77.27-34.17-114.02
	c-30.05-33.66-80.02-42.07-122.78-36.23c-57.53,7.73-102.86,37.61-138.75,81.91c-21.98,27.47-44.13,54.95-66.28,82.42
	c-10.13,12.53-18.03,19.23-35.89,16.14c-27.3-4.46-47.39-29.02-57.87-54.78c-17-42.24-19.58-122.78-76.76-139.61
	c-21.29-6.35-45.33,0.34-63.02,14.08c-36.58,28.16-60.79,95.99-27.47,105.43c12.71,3.78,24.9-5.84,36.58-12.19
	c17.17-9.44,45.68-4.98,30.22,23.87c-21.46,40.18-58.9,71.78-72.12,115.39c-12.02,39.84,28.16,42.59,46.36,32.45
	c16.48-9.1,27.65-25.59,42.93-36.92c15.11-11.16,39.32-15.45,51.17-0.69c8.76,11.16,5.84,28.16-2.23,39.84
	c-7.9,11.85-19.75,20.26-30.05,30.05c-30.57,29.36,9.27,44.99,21.12,37.43c-74.01,43.62-86.03,84.31-63.88,162.96
	c22.32,78.82,62.16,161.41,137.37,193.87c79.16,34.34,178.59,3.43,221,19.06c13.05,4.81,24.9,15.11,27.82,28.68
	c2.4,12.02-3.43,29.88,7.56,38.98c27.3,22.67,43.79-33.83,37.26-52.2c-15.28-42.76-70.75-53.4-103.37-76.93
	c-72.29-52.37-54.26-165.54-2.58-183.05c15.45-5.15,35.2,0.86,41.38,15.97c5.5,13.39-1.03,28.33-5.49,42.24
	c-12.71,40.52,17.51,57.87,46.71,29.36c16.48-15.8,27.99-36.23,44.3-52.2c16.31-15.8,40.53-27.13,61.82-18.89
	c-12.36,21.64-24.9,43.44-37.26,65.08c-4.81,8.24-9.62,16.83-9.96,26.44c-2.06,43.96,56.15,7.04,67.48-7.9
	c21.12-27.99,26.96-72.12,60.27-82.77c24.38-7.73,4.64,40.01,22.32,53.4C751.13,576.07,780.66,521.29,778.77,489.7L778.77,489.7z"/>
</svg>
