<?xml version="1.0" encoding="utf-8"?>
<!-- Generator: Adobe Illustrator 24.1.2, SVG Export Plug-In . SVG Version: 6.00 Build 0)  -->
<svg version="1.1" id="Layer_1" xmlns="http://www.w3.org/2000/svg" xmlns:xlink="http://www.w3.org/1999/xlink" x="0px" y="0px"
	 viewBox="0 0 810 810" style="enable-background:new 0 0 810 810;" xml:space="preserve">
<path d="M406.54,258.43c-11,9.73-23.69,6.2-24.82-9.31c-2.26-30.74,33.42-50.48,36.66-22.14
	C419.66,238.55,414.44,250.26,406.54,258.43L406.54,258.43z M326.03,347.27c-6.91,4.79-11.42,10.01-18.61-0.85
	c-2.82-4.23-3.38-14.38-3.67-18.75c-0.99-11,0.56-21.72,3.67-32.29c16.22,9.02,35.53,11.84,53.44,7.05
	C353.81,320.48,342.1,336.13,326.03,347.27L326.03,347.27z M308.54,201.75c3.38-8.46,11.7-21.15,22.56-19.88
	c22.7,2.54,7.19,54.15-14.52,51.75C302.06,231.92,304.88,210.91,308.54,201.75L308.54,201.75z M689.69,146.47
	c-8.6-1.55-14.52,13.11-22.84,13.11c-8.32-5.92-0.28-21.29-7.47-28.62c-5.22-5.36-15.09-1.55-18.47,5.08
	c-6.35,11.7,2.26,34.55-9.73,36.1c-8.46,0.99-22.84-39.48-32.86-10.15c-7.9,23.27,51.19,36.38,10.72,120
	c-14.95,30.88-36.1,59.51-68.39,71.07c-43.85,15.51-64.16-11.42-52.74-46.11c7.47-22.98,21.01-41.03,20.02-66.28
	c-3.1-77.84-95.75-155.96-172.46-145.24c-52.88,7.33-103.78,50.48-110.13,105.19c-3.1,27.07,23.97,79.39,3.38,101.53
	c-22,23.83-53.44-28.91-65.57-59.08c-12.27-30.04-16.22-56.69-7.19-87.85c9.31-32.43,24.68-67.4,57.53-75.44
	c11.84-2.82,36.38-5.64,30.32-23.55c-6.63-20.16-41.6,4.79-40.05-12.27c0.71-8.32,8.6-21.72,5.08-29.89
	c-7.76-18.19-28.48-3.67-35.68,6.49c-8.88,12.55-16.08,15.37-26.23,1.27c-8.88-12.41-32.43-21.57-29.33,2.82
	c1.69,12.97,17.77,20.45,23.97,31.02c11.42,19.18-2.68,42.59-12.55,62.75c-28.77,58.52-19.32,139.32,23.69,188.53
	c39.62,45.41,35.53,60.49,39.06,112.81c1.69,25.66,20.31,46.96,27.92,71.49c7.76,24.82,3.38,53.16-11.56,74.45
	c-16.64,23.69-46.53,43.01-44,71.77c2.68,30.32,42.02,50.2,38.78,80.38c-3.24,30.32-52.6,47.1-54.43,69.1
	c-1.13,12.41,14.52,19.46,26.93,18.33c25.24-2.4,46.25-22.56,55.56-46.25c9.31-23.55,8.6-49.92,5.22-75.02
	c-1.69-11.42-0.28-27.92,11.42-28.63c7.76-0.42,13.11,7.33,17.77,13.54c20.73,27.5,61.06,38.07,92.64,24.25
	c40.89-22.98,63.88-59.65,88.55-99.7c19.6-31.87,38.92-64.44,48.23-100.68c9.31-36.1-11.56-84.18-6.2-95.04
	c5.92-12.27,79.53,13.54,135.93-54.71c16.08-19.46,25.95-46.67,32.71-71.07c8.74-30.6,14.24-50.76,31.3-87
	C692.52,176.79,707.04,149.43,689.69,146.47L689.69,146.47z"/>
</svg>
