<?xml version="1.0" encoding="utf-8"?>
<!-- Generator: Adobe Illustrator 24.1.2, SVG Export Plug-In . SVG Version: 6.00 Build 0)  -->
<svg version="1.1" id="Layer_1" xmlns="http://www.w3.org/2000/svg" xmlns:xlink="http://www.w3.org/1999/xlink" x="0px" y="0px"
	 viewBox="0 0 810 810" style="enable-background:new 0 0 810 810;" xml:space="preserve">
<path d="M454.28,593.97c4.51-24.31,9.75-48.34,15.87-72.36c28.24-5.82,56.92-17.76,87.5-35.96l17.03,67.84
	C532.46,576.07,493.15,589.31,454.28,593.97L454.28,593.97z M452.68,400.2l16.31-35.23l-28.68-5.24c0,0-17.91,19.07-48.48-1.46
	l-22.42,31.74l29.12,40.62l-2.47,10.48l-11.5-1.75l-22.86-48.77l20.09-32.17L353.1,359l-13.54,50.08l-8.3,5.39l-5.24-10.05
	l17.47-54.45l38.58,0.87l1.16-7.42l-20.38-26.5l-34.36,38.29l-12.37-1.02l1.6-10.63l44.99-36.83l23.73,26.35
	c-0.58-7.13-0.58-42.37,34.5-39.31c0,0,32.47,2.48,28.83,42.66l24.6-29.41l36.11,38.58l-1.6,11.06l-9.9-1.46l-22.71-37.85l-23,29.26
	l31.88-4.8l20.96,59.84l-1.46,9.9l-11.36-7.72l-11.5-57.07l-27.37,9.17l21.26,3.35l-11.36,51.97l-11.21,2.47L452.68,400.2z
	 M432.3,599.51c-27.22,0.87-58.53-0.58-78.33-19.22c5.39-18.64,18.63-65.66,27.37-81.24c17.62,4.22,48.92,16.31,67.55,23
	C439.72,555.83,435.06,582.04,432.3,599.51L432.3,599.51z M329.37,580.87c-33.34-10.19-68.43-25.48-106.72-45.57l24.31-79.78
	c38.29,25.04,72.36,43.38,104.24,55.03C343.49,533.85,336.21,557.29,329.37,580.87L329.37,580.87z M620.4,530.93
	c-3.49,2.47-31.01,19.51-31.01,19.51c-18.93-77.89-35.81-171.36-19.65-249.68c4.22-20.38,10.63-40.91,7.86-61.58
	c-2.62-20.67-18.2-41.64-39.02-41.64c61.29-0.44,122.73,5.1,183.15,16.6c-38.58-41.64-80.07-85.02-134.67-100.46
	c-45.42-12.67-93.9-4.08-140.35,4.51c-42.51,7.86-52.99,14.12-85.02,45.13c-26.35,25.48-53.28,51.83-68.43,85.17
	c-7.13-7.28-14.27-14.41-21.4-21.69c-10.48,96.82-35.96,191.45-61.29,285.5c-4.22,15.58-7.42,19.8-22.27,24.75
	C130.21,555.98,66,566.6,5,563.84c50.96,40.91,160.44,117.93,225.95,133.07c35.96,8.3,90.12,5.39,129.57,4.8
	c64.2-0.87,129.43-1.89,191.3-19.51C671.79,648.13,771.08,548.84,805,428.73C747.64,455.52,708.48,468.19,620.4,530.93L620.4,530.93
	z"/>
</svg>
