<?xml version="1.0" encoding="utf-8"?>
<!-- Generator: Adobe Illustrator 24.1.2, SVG Export Plug-In . SVG Version: 6.00 Build 0)  -->
<svg version="1.1" id="Layer_1" xmlns="http://www.w3.org/2000/svg" xmlns:xlink="http://www.w3.org/1999/xlink" x="0px" y="0px"
	 viewBox="0 0 810 810" style="enable-background:new 0 0 810 810;" xml:space="preserve">
<path d="M441.47,449.35l15.99,33.55l-86.74-1.43l-0.65-30.56L441.47,449.35z M362.41,458.97l-17.43,2.21l1.95,10.92l14.69-2.99
	l-1.04,11.7l-46.55,1.17l1.69-29.52l47.33-1.04L362.41,458.97z M303.5,482.25l-90.9,4.55l7.54-32.38l85.69-2.21L303.5,482.25z
	 M595.83,248.31c72.04-4.55,141.22-55.14,211.18-36.8c-4.94-15.47-21.46-23.93-37.19-27.7c-77.37-18.47-158.26,35.76-235.89,18.07
	c-13.39-2.99-26.4-8.19-39.92-10.79c-61.64-12.22-113.91,24.71-161.12,56.7c-12.87,8.71-28.74,12.22-40.83,21.72
	c-22.11,17.56-25.36,49.41-37.97,74.77c-11.83,23.93-33.03,43.56-38.88,69.7c-4.42,19.64,0.39,40.83-6.37,59.82
	c-8.71,24.19-33.94,38.36-58.78,44.73c-24.84,6.37-50.97,7.28-75.16,15.73c-23.41,8.32-89.6,49.67-60.73,80.88
	c26.92,29.13,92.07,5.72,122.5-2.47c154.61-41.48,317.16-0.91,472.95,9.49c16.12,1.04,34.59,0.91,45.25-11.18
	c14.56-16.38,4.16-43.04-11.31-58.65c-33.94-34.33-85.56-44.34-133.81-43.56c-12.87,0.13-26.79,0.65-37.06-6.89
	c-10.4-7.41,4.29-19.77-0.65-31.6c-3.64-8.58-18.08-4.81-20.68-13.78c-2.6-8.97-1.04-18.73-2.99-27.83
	c-2.21-11.18-9.23-20.68-14.69-30.69c-20.94-38.23-20.03-103.12,13-135.89C481.65,227.38,551.61,251.17,595.83,248.31L595.83,248.31
	z"/>
</svg>
