<?xml version="1.0" encoding="utf-8"?>
<!-- Generator: Adobe Illustrator 24.1.2, SVG Export Plug-In . SVG Version: 6.00 Build 0)  -->
<svg version="1.1" id="Layer_1" xmlns="http://www.w3.org/2000/svg" xmlns:xlink="http://www.w3.org/1999/xlink" x="0px" y="0px"
	 viewBox="0 0 810 810" style="enable-background:new 0 0 810 810;" xml:space="preserve">
<path d="M475.08,547.65c-2.82-20.09-6.48-40.02-8.47-60.27c20.92-7.8,41.84-16.27,62.6-24.91c14.78,22.75,35.53,43.17,58.94,57.45
	C552.12,534.04,513.43,540.84,475.08,547.65L475.08,547.65z M423.77,542.67c-1.33,8.8-14.78,22.25-25.24,19.26
	c-6.64-1.99-5.98-20.26-6.81-26.23c-1.66-13.28-3.49-26.57-5.31-40.02c15.77-3.49,27.4-10.63,33.21-0.66
	C426.1,506.31,425.76,530.38,423.77,542.67L423.77,542.67z M218.38,605.6c9.13-14.94,27.73-50.14,37.03-57.78
	c10.79-9.13,33.54-8.63,47.16-11.46c12.79-2.66,25.4-5.65,38.02-8.8l7.14,48.82C304.88,587.5,262.05,598.63,218.38,605.6
	L218.38,605.6z M306.38,360.52c64.26-2.16,126.19-9.96,188.96-24.57c3.32,20.59,6.81,41.01,12.12,61.1
	c-70.57,18.6-145.95,22.25-218.68,29.39C294.92,404.52,300.73,382.61,306.38,360.52L306.38,360.52z M290.27,111.29
	c17.1-25.74,33.54-51.8,49.31-78.21c18.43,8.3,31.71,22.25,44.5,37.69c-22.08,27.23-44,54.79-67.74,80.53
	C309.2,137.03,301.4,122.42,290.27,111.29L290.27,111.29z M455.65,193.65c7.97,19.43,14.78,39.19,20.59,59.28
	c-49.31,11.95-99.13,19.26-149.94,21.42c2.32-19.76,3.32-39.52,2.49-59.44C371.14,207.93,413.31,200.63,455.65,193.65L455.65,193.65
	z M707.37,532.54c-35.2-13.28-74.22-14.11-107.43-33.37c-70.07-41.01-75.55-134.16-88.83-205.06
	c-15.44-81.86-51.81-166.37-104.44-231.3c-19.59-24.74-38.52-44.5-68.91-54.79c-1.33-0.5-2.66-0.66-4.15-0.5
	c-13.95-4.32-29.22-6.31-46.49-4.98C229.34,6.69,177.7,44.38,161.09,100.5c-14.61,49.15-1.33,119.38,51.81,140.14
	c46.82,18.6,96.47-40.35,55.96-77.87c-7.8-7.14-18.6-10.29-26.57-17.1c-24.91-21.92,12.79-33.71,30.05-20.26
	c7.31,5.65,15.61,18.76,19.76,27.56c11.79,28.39,11.96,66.42,10.96,91.99c-2.32,50.14-16.27,101.62-29.22,150.27
	c-42.01,157.07-65.59,205.39-188.79,337.4c-4.15,4.48-4.48,11.79,0,16.11c90.99,89.33,232.46,47.49,337.56,11.46
	c110.75-38.02,217.35-93.48,295.55-182.31C733.27,560.6,730.45,541.51,707.37,532.54L707.37,532.54z"/>
</svg>
