<?xml version="1.0" encoding="utf-8"?>
<!-- Generator: Adobe Illustrator 24.1.2, SVG Export Plug-In . SVG Version: 6.00 Build 0)  -->
<svg version="1.1" id="Layer_1" xmlns="http://www.w3.org/2000/svg" xmlns:xlink="http://www.w3.org/1999/xlink" x="0px" y="0px"
	 viewBox="0 0 810 810" style="enable-background:new 0 0 810 810;" xml:space="preserve">
<path d="M548.35,445.87c-14.19,16.79-53.56,46.17-78.75,40.37c0-69.75,66.16-68.35,100.13-96.94
	C568.94,409.9,561.94,429.68,548.35,445.87L548.35,445.87z M409.84,668.73c-62.36,3.6-112.93-27.58-144.1-77.15
	c89.34,25.98,194.87,46.17,272.62-5.2C509.97,631.75,470.4,665.33,409.84,668.73L409.84,668.73z M239.55,389.31
	c29.78,25.18,104.53,31.58,100.13,96.94c-25.18,5.8-64.76-23.78-78.75-40.37C247.35,429.68,240.35,409.9,239.55,389.31
	L239.55,389.31z M409.84,503.83c23.18,0,42.37,18.99,42.37,42.37c0,5-1,6.4-0.8,6.4c-4.2,1.2-23.18-11.79-41.57-11.79
	c-18.19,0-38.77,13.19-41.57,11.99C364.67,551,368.27,503.83,409.84,503.83L409.84,503.83z M766.8,491.04
	c-34.18-56.96-85.34-108.53-132.51-128.12c-47.17-57.36-95.94-71.55-152.3-73.15c-6.6,0-12.59,1.4-17.59,4.2
	c-24.78-72.15-67.95-54.16-85.74-108.33c-2.2-6.8-4-13.59-5.4-20.79c-8.99-29.78,4-46.57,38.97-50.37c5.8,3,12.59-2,10.99-8.39
	c-5.6-22.78-11.19-45.37-16.99-67.96c-1-4-5.4-6.2-9.19-5.2c-65.36,17.59-100.53,53.16-90.54,124.32
	c8.99,64.56,52.37,96.54,54.56,136.71c-5.2-3.2-11.39-4.8-18.19-4.6c-44.97,1.2-84.94,10.39-123.12,42.97
	c-38.37,11.19-73.95,35.78-108.93,86.74c-27.18,20.19-51.37,44.77-67.56,71.95C-8.48,576.79-13.68,660.53,64.67,703.1
	c36.18,19.59,69.15,27.18,98.73,4.2c23.58,41.57,74.55,58.16,110.73,58.16c28.38,0,46.57-12.39,60.16-33.38
	c43.97,62.56,110.33,51.37,154.9-6.2c24.78,43.77,61.36,46.17,108.33,31.98c19.19-5.8,44.17-17.79,61.36-42.77
	c26.38,12.99,55.76,4.8,86.34-11.99C823.77,660.53,818.37,576.79,766.8,491.04L766.8,491.04z"/>
</svg>
