<?xml version="1.0" encoding="utf-8"?>
<!-- Generator: Adobe Illustrator 24.1.2, SVG Export Plug-In . SVG Version: 6.00 Build 0)  -->
<svg version="1.1" id="Layer_1" xmlns="http://www.w3.org/2000/svg" xmlns:xlink="http://www.w3.org/1999/xlink" x="0px" y="0px"
	 viewBox="0 0 810 810" style="enable-background:new 0 0 810 810;" xml:space="preserve">
<path d="M586.35,581.41l-81.11,66.52l-66.3-66.52l-88.4,66.52l-81.11-81.11h-88.62l81.11-44.2l103.21,80.89l73.81-66.3l66.3,66.3
	l81.11-66.3l44.2,66.3L586.35,581.41z M236.17,297.53l103.21,66.3H199.26L236.17,297.53z M431.86,420.7l-39.05,71.45l-13.09-71.45
	H431.86z M575.41,297.53l36.69,66.3H472.2L575.41,297.53z M314.7,145.61c-14.81,4.72-17.81-17.81-1.5-31.33
	C326.5,122.44,325.86,141.97,314.7,145.61L314.7,145.61z M221.79,55.49c5.58-2.79,32.4,1.72,16.95,10.73
	c-8.8,5.15-16.74,0.86-23.82-6.01C216.64,58.5,218.79,56.78,221.79,55.49L221.79,55.49z M774.11,466.83
	c-5.36-56-22.53-110.72-53.64-158.14c-25.75-58.58-69.09-113.3-131.53-134.54c-29.4-10.08-59.22-10.73-87.33-3.86
	c-23.39-15.66-48.49-25.11-74.03-28.54c3.86-10.73,11.16-21.03,18.24-28.54c25.75-27.25,51.07-10.3,65.23-22.74
	c11.8-10.51,5.36-29.18-3.43-39.48c-34.12-39.48-92.27,7.94-113.72,41.84c0.86-8.37,1.29-18.24-6.22-22.96
	c-7.08-4.29-16.31-3.43-23.17,0.43c-15.23-18.67-56.86-41.63-17.17-60.51c3-1.5,1.07-5.36-1.5-5.58
	c-16.52-1.93-33.26,23.6-13.73,47.64c2.79,3.43,19.96,17.17,25.11,25.75c-4.51,7.94-1.5,16.31,4.29,13.3
	c6.22-3.22,8.37-7.08,7.72-11.16c6.87-6.87,12.87-4.72,18.02,6.44l-4.08,27.04c-2.57,5.79-4.72,11.37-6.44,17.38
	c-14.38-24.46-42.27-40.98-65.02-25.96c-26.39-12.45-59.22,4.51-84.11-12.87c-6.44-4.51-15.45-14.16-15.66-22.96
	c16.74,16.52,34.55,7.3,40.34-3.43c10.94-20.81-28.97-26.18-44.2-12.45c-5.36-6.65-10.51-13.52-15.02-17.17
	c-12.66-9.44-29.4-12.02-39.48,1.93c-2.15,3,2.36,6.22,4.72,3.86c15.88-16.31,31.11,2.36,45.28,18.24
	c-4.94,13.09,5.58,28.75,15.45,36.91c25.96,21.46,58.36,6.01,85.62,13.73c-12.02,13.3-18.24,40.55-0.86,45.7
	c17.17,4.72,44.2-25.32,16.74-46.13c29.83-12.23,53.21,26.82,53.64,30.25c-0.21,1.07-0.43,2.15-0.64,3.22
	c-21.46,4.29-42.27,12.87-62.01,25.75c-19.53-4.29-39.91-4.94-60.94-1.29c-55.36,9.66-99.13,47.85-130.03,93.13
	C88.97,293.46,66.65,335.08,53.13,378c-37.34,117.8-16.95,272.3,80.25,357.48c48.71,42.7,112.65,57.51,174.02,34.55
	c57.51,42.06,125.53,45.92,188.18,7.51c75.96,33.04,155.35,6.01,207.49-56.22C761.23,652.01,782.47,555.67,774.11,466.83
	L774.11,466.83z"/>
</svg>
