<?xml version="1.0" encoding="utf-8"?>
<!-- Generator: Adobe Illustrator 24.1.2, SVG Export Plug-In . SVG Version: 6.00 Build 0)  -->
<svg version="1.1" id="Layer_1" xmlns="http://www.w3.org/2000/svg" xmlns:xlink="http://www.w3.org/1999/xlink" x="0px" y="0px"
	 viewBox="0 0 810 810" style="enable-background:new 0 0 810 810;" xml:space="preserve">
<path d="M441.89,443.67c0,0,81.24-194.63,155.19-9.07L441.89,443.67z M443.67,689.38v-42.59h-57.19v44.57
	c-27.21-0.59-52.85-3.16-76.12-7.69v-49.3h-56.99v32.54c-94.26-39.64-57.78-102.54,62.71-124.04v38.85h56.99v-45.16
	c27.61-1.18,54.43-0.39,81.24,2.96v42.2h56.99v-31.16C648.16,589.2,606.75,673.6,443.67,689.38L443.67,689.38z M365.78,434.6
	l-155.19,9.07C210.58,443.67,291.83,249.04,365.78,434.6L365.78,434.6z M746.36,584.86c-10.06-94.46-40.62-189.7-95.24-267.99
	c-22.87-32.93-51.07-65.67-89.33-80.26c-14-5.32-31.75-6.9-44.76-1.77c-15.97-13.21-36.48-20.71-56.2-13.01
	c-18.54-42.59-26.03-88.34-37.66-133.7c-4.54-16.96-7.89-43.19-19.33-57.19C390.23,14.38,367.35,17.73,350.2,5.9
	c-5.72-3.94-12.82,2.56-11.24,8.68c10.06,39.24,6.31,81.64,1.97,121.47c-3.94,37.66-13.21,73.95-35.1,103.92
	c-0.99,0.79-1.97,1.38-2.96,2.17c-35.69-59.75-98.79,30.56-119.3,55.02C127.17,364.6,85.96,446.04,70.77,533
	c-12.03,68.43-19.13,180.24,48.31,224.21c22.48,14.79,46.93,15.38,70.4,7.49c30.17,28.4,76.91,39.04,115.56,19.72
	c20.11,14.79,46.54,22.48,80.46,19.72c39.64-3.16,99.58-0.79,132.91-26.82c35.89,24.85,86.96,26.42,118.32-8.08
	c5.13,2.17,11.04,3.16,17.94,2.37C738.47,762.54,753.07,648.16,746.36,584.86L746.36,584.86z"/>
</svg>
