<?xml version="1.0" encoding="utf-8"?>
<!-- Generator: Adobe Illustrator 24.1.2, SVG Export Plug-In . SVG Version: 6.00 Build 0)  -->
<svg version="1.1" id="Layer_1" xmlns="http://www.w3.org/2000/svg" xmlns:xlink="http://www.w3.org/1999/xlink" x="0px" y="0px"
	 viewBox="0 0 810 810" style="enable-background:new 0 0 810 810;" xml:space="preserve">
<g>
	<path d="M567.93,154.22c-17.27-2.38-33.34,0.4-48.03,7.94c-25.8-11.11-52.99-12.5-77.99,0.79
		C414.13,105.6,419.69,54.59,494.7,38.92c20.04-4.17,17.86-33.54-2.98-36.12c-34.33-4.37-143.28-4.96-183.77,150.62
		c-13.69-0.6-26.59,2.38-38.7,8.53c-33.74-14.29-67.47-11.71-96.05,13.89c-61.12,54.38-80.37,191.7-78.19,301.85
		c3.37,163.52,81.76,378.25,184.76,311.37c26.99,18.26,55.57,15.48,81.56-4.37c28.38,22.62,58.94,21.83,87.32,0
		c26.2,20.84,54.38,22.03,81.76,3.97c11.71,8.14,24.21,12.7,37.11,12.7c76.01,0,135.94-132.96,145.66-323.48
		C723.91,269.32,647.91,164.93,567.93,154.22z M431.99,366.36c10.32,0.79,17.07,4.17,26.39,8.53c22.82,10.91,44.06,0,59.73-16.87
		c24.81-26.59,32.94-64.3,44.65-97.64c1.79-5.16,8.53-3.77,9.13,1.19c5.56,48.82,15.48,118.28-12.9,162.33
		c-24.81,38.5-71.05,35.32-105.18,11.11c-9.72-6.75,9.72-12.11,14.69-14.09c-9.33-0.79-18.65-1.39-28.18-1.59
		c-4.37,0-6.55-6.35-2.18-8.53c6.55-3.37,12.9-5.75,19.65-7.54c-11.71-7.94-21.43-17.86-29.77-29.97
		C426.24,370.53,428.62,366.16,431.99,366.36z M394.09,441.97l28.78,69.46h-54.38L394.09,441.97z M222.82,261.58
		c0.6-5.16,7.14-6.35,8.93-1.19c11.71,33.14,19.85,71.24,44.65,97.64c17.27,18.26,39.29,26.59,62.71,15.48
		c8.14-3.97,14.29-6.55,23.42-7.14c3.37-0.2,5.95,4.17,3.97,6.95c-8.14,12.11-17.86,22.03-29.77,29.97
		c6.95,1.79,13.3,4.17,19.85,7.54c4.17,2.18,1.98,8.53-2.38,8.53c-9.33,0.2-18.65,0.79-27.98,1.59c4.76,1.98,24.21,7.34,14.69,14.09
		c-34.33,24.21-80.57,27.39-105.18-11.11C207.34,379.86,217.27,310.6,222.82,261.58z M579.64,494.36
		c-10.72,23.81-45.84,108.55-70.85,117.09c-6.15,1.98-14.09-1.39-20.24,0.2c-19.05,4.76-5.36,35.13-18.65,28.78
		c-9.92-4.56-26.39-15.28-33.74-6.55c-6.95,8.14,0.79,33.74-10.92,27.78c-17.46-8.73-45.84-29.17-64.1-18.26
		c-5.36,3.37-5.36,10.92-13.69,12.5c-21.23,3.97-25.4-41.08-48.82-18.46c-2.38,2.18-5.56,1.59-7.34-0.79
		c-19.65-29.17-37.31-59.34-52.79-90.89c-8.73-16.87-13.3-33.34-13.3-52.39c0-4.56,6.35-6.35,8.53-2.38
		c15.88,28.78,73.23,122.64,114.7,87.91c6.55-5.75,10.32,6.95,16.27,18.46c4.96-4.76,8.53-9.92,11.51-16.67
		c3.97-9.33,14.69,10.12,19.25,13.3c14.69,10.72,15.48,4.17,21.63-5.56c4.76-7.34,5.36-15.68,16.07-15.48
		c7.54,0.2,22.62,20.24,27.98,3.77c2.18-4.37,2.38-8.93,0.6-13.89c-3.37-2.98,0.2-9.13,4.37-7.74c6.15,1.98,12.9,4.96,19.25,5.56
		c29.17,2.58,33.34-42.87,88.31-73.82C580.63,483.05,582.42,488.41,579.64,494.36z"/>
	<path d="M533.6,437.21c3.97-2.58,7.54-5.75,10.72-9.13l-2.38-31.95c-0.99-9.53-1.19-18.85-12.3-19.65
		c-9.92-0.79-14.88,6.55-17.86,15.28c-5.76,17.27,1.59,35.52-3.77,52.99C516.93,444.55,525.46,442.37,533.6,437.21z"/>
	<path d="M282.76,391.76c-2.98-8.14-12.5-23.42-24.21-14.88c-7.14,5.36-7.54,41.87-8.14,51c9.53,10.32,22.03,16.07,36.12,16.67
		C281.37,427.29,288.71,409.03,282.76,391.76z"/>
</g>
</svg>
