<?xml version="1.0" encoding="utf-8"?>
<!-- Generator: Adobe Illustrator 24.1.2, SVG Export Plug-In . SVG Version: 6.00 Build 0)  -->
<svg version="1.1" id="Layer_1" xmlns="http://www.w3.org/2000/svg" xmlns:xlink="http://www.w3.org/1999/xlink" x="0px" y="0px"
	 viewBox="0 0 810 810" style="enable-background:new 0 0 810 810;" xml:space="preserve">
<path d="M585.21,629.81c-0.39,0.2-36.43,31.12-63.22,37.22c-3.15,0.2-13.79-15.36-21.27-28.75l-35.84,11.23l12.01,42.93L355.97,708
	l-5.71-44.11l-50.42,3.15l-11.82,34.66c-12.21-11.82-57.51-58.89-64.4-118.95c16.74,17.72,69.32,65.58,145.54,61.45l12.01,38.01
	l50.81-16.94l-4.53-34.66l70.7-25.8l11.82,36.43l64.6-32.89l-15.95-38.4c13.2-4.92,68.54-26.59,94.73-51.6
	C642.52,546.7,621.64,590.82,585.21,629.81L585.21,629.81z M397.52,375.36l-50.61,88.03l-90.2-99.06
	C317.17,392.7,377.63,380.68,397.52,375.36L397.52,375.36z M491.86,514.01l-61.45,29.15l24.81-92.56L491.86,514.01z M615.73,281.82
	l-46.48,125.65l-79.76-62.63C509.78,342.28,570.24,330.86,615.73,281.82L615.73,281.82z M694.31,220.18
	c-13.79-39.78-166.22-15.16-207.97-11.42c-14.77-38.8-22.06-79.96-32.5-120.73c-4.53-17.13-7.88-43.13-19.3-57.31
	c-13.39-16.35-36.43-13-53.57-24.81c-5.71-3.94-12.6,2.56-11.23,8.67c13,50.81,5.32,150.66-18.12,199.9
	c-23.24-0.2-47.46-0.79-72.67-2.17c-137.27-7.68-162.48,49.83-163.66,52.39c-0.2,1.18-33.68,111.07-44.9,229.24
	c-15.16,156.96,15.36,256.81,88.62,288.91c12.6,4.92,92.76,24.03,182.17,21.66c96.3-2.76,236.13-29.74,355.48-142.98
	C698.06,659.95,791.21,498.06,694.31,220.18L694.31,220.18z"/>
</svg>
