<?xml version="1.0" encoding="utf-8"?>
<!-- Generator: Adobe Illustrator 24.1.2, SVG Export Plug-In . SVG Version: 6.00 Build 0)  -->
<svg version="1.1" id="Layer_1" xmlns="http://www.w3.org/2000/svg" xmlns:xlink="http://www.w3.org/1999/xlink" x="0px" y="0px"
	 viewBox="0 0 810 810" style="enable-background:new 0 0 810 810;" xml:space="preserve">
<path d="M490.01,483.73h-62.7v138.92h-39.34V483.73h-62.7v-39.34h62.7v-56.55h39.34v56.55h62.7V483.73z M696.2,719.95
	c-28.28-5.8-56.2-6.32-84.65-1.58c6.67-17.91,10.36-36,11.59-55.15c0.18-2.99-3.86-5.62-6.5-3.69c-8.61,6.32-16.16,13.35-23.01,20.9
	c10.19-64.98,20.37-129.97,30.74-194.95c1.23-8.61-3.34-14.75-12.12-15.81c-16.86-1.93-33.9-3.16-51.11-4.39L457.69,298.27
	c-4.74-7.38-10.71-13.7-17.56-18.62l-2.46-65.86c-0.7-1.76-1.23-3.16-1.93-4.39c36-10.01,34.25-41.1,40.57-55.5
	c1.93-4.22,2.28-6.15,2.46-7.03c1.05,2.28,18.62-6.32,19.67-6.85c6.85-4.92,9.48-10.71,13.35-17.74c3.86-6.5,8.61-11.06,13-17.21
	c8.78-12.12,2.63-23.36,2.81-31.96c0.35-8.78,6.32-19.32-6.5-23.18c-17.21-5.09-19.32,25.82-25.64,42.68
	c-2.28,5.44-4.57,10.89-6.67,16.51c-6.5,7.73-14.23,11.94-23.53,12.65c1.23-4.57,33.19-23.36,32.67-72.89
	c0-7.2,3.51-21.25-2.28-27.57c-7.55-8.08-16.51-2.11-21.43,4.92c-9.31,13-11.77,24.24-14.4,39.87
	c-1.93,11.59-14.4,52.34-24.76,32.32c-1.58-1.4-3.34-2.63-5.09-4.04c11.24-18.97,13.35-29.68,15.1-51.63
	c0.7-8.25,7.55-23.53,2.99-31.44c-7.2-13-19.14-2.46-25.82,4.57c-11.59,12.47-19.67,29.86-23.89,46.37
	c-1.58,5.27-0.18,45.84-19.67,20.55c-8.43-11.06,41.98-58.66,13.52-69.72c-29.86-11.59-50.05,40.75-44.61,68.5
	c3.69,18.79,9.48-13.7,0.88,28.1c-1.05,4.57-5.44,7.2-1.58,16.86c-3.86-0.35-7.55-0.18-11.59,0.7c-1.05-5.09-4.04-7.03-7.9-7.03
	c4.57-9.13,8.08-32.14,4.57-40.04c-6.5-14.75-24.24-5.97-30.74,4.21c-5.97,9.66-5.62,21.43-10.54,32.14
	c-2.63,5.97-8.25,12.47-5.44,19.67c3.16,8.08,16.86,7.9,21.08,14.58c3.16,5.09-4.04,11.42,7.9,21.95
	c8.43,7.38,37.94,10.71,47.95,50.76c4.22,17.21,3.51,38.64,3.34,56.73c-7.38,5.44-13.87,12.47-18.62,20.9l-86.23,156.13
	c-20.37,2.63-40.39,5.97-60.94,13.87c-6.5,2.46-10.01,8.08-8.61,15.28c13.7,67.27,27.22,134.36,40.92,201.62
	c-14.05-14.23-24.94-31.09-32.32-50.76c-1.58-4.39-8.08-3.69-8.43,1.23c-1.93,28.8,1.23,56.2,9.48,83.6
	c-18.27-4.21-36.36-5.62-55.5-4.39c-3.69,0.18-5.8,4.57-2.99,7.38c10.19,10.54,21.25,18.97,33.54,25.82
	c-23.53,1.4-46.19,6.15-63.75,24.06c-2.81,2.63-0.7,7.03,2.99,7.38c26.52,1.23,52.34,6.5,77.98,13.17v9.66h420.45v-11.94
	c19.67,7.2,40.92,8.43,61.82,4.39c4.04-0.88,3.86-5.97,1.05-7.9c-16.33-11.06-33.19-17.74-52.16-20.9
	c19.85-20.55,43.73-34.07,72.01-40.57C700.24,727.33,700.41,720.83,696.2,719.95L696.2,719.95z"/>
</svg>
