<?xml version="1.0" encoding="utf-8"?>
<!-- Generator: Adobe Illustrator 24.1.2, SVG Export Plug-In . SVG Version: 6.00 Build 0)  -->
<svg version="1.1" id="Layer_1" xmlns="http://www.w3.org/2000/svg" xmlns:xlink="http://www.w3.org/1999/xlink" x="0px" y="0px"
	 viewBox="0 0 810 810" style="enable-background:new 0 0 810 810;" xml:space="preserve">
<g>
	<path d="M451.81,415.21c23.6-2.78,25.61-24.22,16.82-33.01c-8.95-8.79-27.15-9.72-40.11-12.19c-5.4-1.08-10.64-2.16-15.74-3.39
		l-0.46,2.93c9.87,4.94,8.79,2.01,6.33,14.81l-10.95,55.23c-0.46,2.01-5.55,1.7-9.56,2.01l-0.31,2.78l32.55,6.32l0.31-2.78
		c-7.87-4.32-7.1-1.39-4.17-16.2l3.55-18.51c6.17,1.39,5.71,2.62,10.03,15.74c7.4,22.99,7.4,29.16,33.63,30.54l0.31-2.93l-4.32-2.16
		C463.07,449.61,456.74,426.93,451.81,415.21z M448.57,407.96c-4.78,3.55-11.26,2.16-17.59,0.46l6.17-31.32
		C467.23,379.26,452.12,405.33,448.57,407.96z"/>
	<path d="M526.93,388.98l-34.25-6.79l-0.46,2.93c9.87,5.09,8.79,2.01,6.33,14.81l-10.8,55.23c-0.62,2.01-5.55,1.7-9.72,2.01
		l-0.31,2.78l34.4,6.79l0.31-2.93c-9.72-4.94-8.79-1.7-5.86-16.51l10.49-53.53c0.62-2.01,5.4-1.7,9.72-2.01L526.93,388.98z"/>
	<path d="M571.36,397.31l-34.4-6.48l-0.46,2.93c9.87,4.94,8.79,2.01,6.33,14.81l-10.8,55.23c-0.46,2.01-5.71,1.7-9.72,2.01
		l-0.15,2.78l35.17,6.94l0.31-2.78c-11.42-5.86-10.18,0.46-3.86-31.78c41.81,14.04,51.83-21.44,39.18-33.94
		C588.64,402.56,581.39,399.32,571.36,397.31z M579.39,422.46c-2.93,14.66-11.57,18.36-24.53,13.11l6.63-34.09
		C575.37,402.1,582.16,407.49,579.39,422.46z"/>
	<path d="M684.75,397.16c5.25-13.73,23.14-39.96,4.94-49.21c-14.66-7.4-25.76-1.85-29.16-24.68c-2.47-15.89,3.55-33.94,2.01-50.29
		c-2.01-23.76-11.11-47.51-26.38-66.18c-0.15-0.62-0.31-1.39-0.77-2.01c-33.01-58.47-106.14-77.9-171.08-76.83
		c5.55-16.04,22.52-25.45,39.18-21.75c6.79,1.54,0.62-24.68,52.76-14.04c10.49,2.16-11.72-29.31-15.43-33.17
		c-8.18-8.64-18.82-14.5-29.16-20.21c-19.28-10.18-41.5-17.59-61.09-4.17c-0.93,0.62-1.08,2.01-0.77,2.93
		c8.79,31.01-18.97,57.23-20.52,46.59c-0.31-2.01,4.94-8.02,4.01-15.12c-0.93-6.63-7.56-12.65-6.63-19.44
		c1.23-8.79,14.81-12.03,2.01-43.19c-3.09-7.71-20.98,15.12-25.61,31.78c-10.64-3.7-21.6-1.23-29.62,6.48
		c-12.5-18.36-39.8-19.75-40.26-8.79c-0.62,11.26,19.13,20.05,18.97,32.86c-0.15,19.28,0.77,14.81,7.87,33.78
		c-22.83-3.24-40.88-21.91-42.73-45.2c-0.15-2.16-2.62-2.78-4.17-1.85c-35.02,21.44-65.25,55.07-67.88,97.65
		c-0.15,2.47,2.78,4.01,4.47,2.01c14.5-17.28,40.26-23.45,60.63-13.11c9.41,4.78,9.87,5.55,20.52,4.17
		c10.95-1.39,21.29,2.31,29.16,9.26c-10.95,8.79-15.43,17.43-22.06,29.62c-3.09,5.71-8.95,13.88-11.72,21.6
		c-15.12-4.78-29.93-4.94-45.82-1.23c-1.85,0.46-3.86,2.31-4.32,4.32c-27.61,134.98-93.95,260.71-105.83,398.93
		c-9.1-14.5-20.05-28.08-33.01-40.26c-4.47-4.17-11.57,0-10.18,6.02c8.48,36.87,3.39,73.12-14.96,106.29
		c-4.01,6.94,6.63,13.11,10.64,6.17c16.51-29.77,23.14-62.17,19.59-95.18c20.67,23.76,34.86,51.22,42.27,82.69
		c1.39,5.55,8.48,5.55,11.26,1.39c14.5-20.21,21.29-42.42,20.83-66.18c10.95,13.73,15.89,30.24,14.5,49.21
		c-0.46,5.86,9.1,8.64,11.57,3.09c9.72-21.6,24.84-38.41,44.58-49.37c-14.96,21.13-24.99,44.12-17.89,71.43
		c4.01,15.89,34.71-15.58,40.11-22.83c7.56-10.03,10.95-22.37,16.66-33.17c8.02,19.75,10.8,39.96,8.95,61.71
		c-0.46,5.86,6.79,7.4,10.49,4.32c32.09-25.92,10.34-90.4,54.46-102.12c-16.35,26.23-21.75,56.92-22.68,88.24
		c-0.15,5.55,6.79,7.87,10.64,4.32c9.41-8.64,18.2-18.05,27.15-27.15c0,20.21,4.94,40.57-1.54,60.01
		c-3.39,10.34,18.67,14.96,31.47-22.37c5.09-14.96,10.49-29.46,15.89-44.27c12.8,25.15,3.7,34.09-10.18,54.15
		c-4.47,6.63,6.02,12.34,10.64,6.17c5.86-7.56,12.65-15.43,16.35-24.53c2.62-3.86,5.25-7.87,7.87-11.72
		c11.57-16.66,21.13-29.16,39.03-30.85c-18.82,18.36-33.17,39.18-28.69,67.57c0.77,4.78,7.25,5.55,10.34,2.62
		c14.96-14.5,36.1-21.13,47.82-37.02c1.85,12.65,0.31,24.99-5.4,37.64c-2.78,6.17,4.32,12.34,9.72,7.4
		c15.43-13.73,34.09-29.93,55.69-23.6c-12.34,21.91-29.93,36.87-19.28,64.64c2.01,5.4,8.02,5.86,11.26,1.54
		c11.72-15.43,27.61-23.6,45.82-24.99c-7.87,18.51-9.1,39.49-20.83,56.31c-4.63,6.48,6.17,12.65,10.64,6.17
		c14.04-19.9,13.11-45.2,25.61-65.72c2.62-4.17-0.77-9.1-5.25-9.26c-22.68-1.23-42.42,6.33-57.85,21.29
		c-1.23-25.15,35.33-52.14,21.75-58.62c-18.05-8.33-34.25-5.09-49.21,3.24c30.39-62.48,56.46-126.81,77.6-192.99
		C665.16,466.12,671.79,430.33,684.75,397.16z M567.35,684.56c-0.15-8.95-2.01-18.05-5.55-27.61c-1.85-5.09-10.49-6.48-11.88,0
		c-4.47,20.83-25.76,29.16-42.42,40.57c1.23-23.14,19.59-39.8,36.56-54.92c3.09-2.78,1.85-9.56-2.78-10.18
		c-33.17-5.09-43.35,4.17-62.17,30.24c-2.78-10.8-8.79-20.98-13.88-30.08c-2.78-4.94-9.72-3.39-11.26,1.54
		c-5.09,14.04-11.72,27.31-16.04,41.65c-2.62,8.48-4.47,18.51-9.1,26.38c1.08-19.75-4.32-39.65,0.15-59.24
		c1.39-6.17-5.71-10.34-10.34-6.02c-9.72,8.95-18.67,18.51-27.92,27.77c2.31-27.61,9.1-54.46,27-76.52
		c3.09-3.86,1.39-10.8-4.47-10.64c-20.21,0.77-39.65,10.03-48.75,28.85c-8.33,17.12-8.18,44.43-16.66,63.71
		c-0.93-20.21-6.02-39.34-15.27-58.16c-1.54-3.24-7.25-4.32-9.56-1.23c-14.35,18.36-11.88,40.42-43.19,61.55
		c-3.09-27.3,14.04-49.52,31.16-70.19c3.55-4.47,0.31-12.34-6.02-10.34c-19.59,6.02-36.56,16.35-50.14,30.39
		c41.19-111.23,71.27-225.69,94.1-342.01c8.79,2.01,17.59,4.16,26.38,6.17c3.39,0.77,6.48-0.93,7.56-4.32
		c35.02-103.2,185.12-134.98,242.04-69.27c14.5,16.66,23.14,38.41,25.3,60.32c2.62,26.07-10.95,62.94,8.33,77.9
		c8.02,6.17,22.52,2.93,25.15,13.58c2.47,9.72-12.65,33.63-15.89,43.5c-5.55,17.43-9.41,35.33-14.35,53.07
		C631.68,537.85,602.22,612.67,567.35,684.56z"/>
</g>
</svg>
