<?xml version="1.0" encoding="utf-8"?>
<!-- Generator: Adobe Illustrator 24.1.2, SVG Export Plug-In . SVG Version: 6.00 Build 0)  -->
<svg version="1.1" id="Layer_1" xmlns="http://www.w3.org/2000/svg" xmlns:xlink="http://www.w3.org/1999/xlink" x="0px" y="0px"
	 viewBox="0 0 810 810" style="enable-background:new 0 0 810 810;" xml:space="preserve">
<g>
	<path d="M760.1,708.25h-4.97c-8.09-20.42-27.96-34.76-51.13-34.76h-5.7l-1.1-327.77c-75.23-17.66-104.84-97.67-114.59-132.8
		c-3.13-11.59-13.98-19.68-26.12-19.68l-52.24-0.37v-61.99h64.38V96.12h-64.38V27.88h-34.76v68.24H405.1v34.76h64.38v61.8
		l-48.01-0.37c-13.8,0-25.57,9.93-27.22,23.18c-10.12,81.85-117.53,129.86-119.01,130.41l12.88,327.59h-18.76
		c-7.73-15.63-51.69-114.22-55.73-117.9c-1.1-1.1-2.02-2.02-2.94-2.76c36.24-29.06,16.55-63.64,18.58-80.38
		c0.55-4.05,0.74-6.44,0.74-8.09l16-15.08c11.59-16.19,6.44-35.68,6.44-35.68c2.02-12.69,3.5-4.23,6.62-13.98
		c9.01-27.77-8.46-28.69-12.14-37.52c-2.39-5.89,3.31-24.28-14.53-24.1c-23.73,0.37-11.22,38.44-10.12,63.64
		c1.1,24.65-1.47,29.06-19.31,41.2c5.89-9.56,12.32-59.23,11.59-65.11c-1.47-12.69-6.62-20.05-11.4-31.27
		c-3.31-7.54-4.05-22.81-13.06-27.41c-11.96-6.44-18.76,4.05-22.07,13.8c-8.09,22.62-0.18,40.28,7.91,60.51
		c1.47,5.33,2.94,10.67,4.6,16c-0.92,17.29-10.85,24.28-29.8,20.97c-3.31-7.73,9.38-15.82-6.99-64.38
		c-3.13-9.38-4.41-9.93-5.89-20.6c-0.92-6.44,0.74-10.85-4.97-15.82c-20.6-17.47-32.56,29.98-33.11,38.81
		c-0.55,5.89,3.13,16.19,3.13,21.52c0.18,16.37-5.7,6.62,2.76,31.27c8.83,25.75,11.96,28.33-4.41,24.83
		c-14.71-3.13-14.53-7.17-14.71-21.7c-0.18-14.72,7.91-46.35-1.1-59.59c-8.64-12.88-25.93-6.99-34.21,2.76
		c-13.8,16.19-12.32,58.86-4.05,76.88c6.99,14.9,18.03,13.61,21.7,33.84c1.66,10.3,0.74,16.55,5.33,23.73
		c-4.78,1.47-9.56,3.31-13.24,6.25c-3.31-4.05-7.17-4.6-11.22-2.94c0.37-10.12-3.68-19.86-7.54-31.27
		c-3.86-11.4-9.38-25.93-24.65-16.92c-14.71,8.46-13.43,26.49-9.93,39.73c3.31,12.51-7.54,36.6,4.6,46.17
		c7.73,5.89,22.62-1.29,28.51,3.68c4.78,4.05,4.05,14.16,11.04,18.95c20.05,13.61,59.23-11.22,94.91,53.89
		c16.92,30.72,27.59,64.38,41.75,96.38c-24.1,16.19-20.05,40.28-20.05,65.66h636.97V753.5C805.34,728.48,785.11,708.25,760.1,708.25
		z M452.93,492.5c-18.03-0.18-18.76-12.51-33.66-36.79c-1.47-2.58-3.31-2.21-6.25-2.39l-0.18,30.72c0,2.58,2.39,2.58,7.36,4.23
		l0.18,2.94l-34.21-0.37l-0.18-2.94c11.22-2.94,9.38,0.18,9.56-15.45l0.55-55.92c0-2.39-4.41-2.76-9.2-4.23l-0.18-2.94l37.16,0.18
		c36.79,0.18,32.19,25.57,25.01,33.66c-3.13,3.68-7.54,6.25-13.43,8.09c12.69,19.31,16.74,34.76,30.17,37.71l0.18,2.94
		C462.12,492.5,457.71,492.68,452.93,492.5z M505.9,489.19l0.18,2.94l-36.05-0.37l-0.18-2.94c11.22-2.94,9.38,0.18,9.56-15.45
		l0.55-55.92c-0.18-2.39-4.41-2.76-9.2-4.23l-0.18-2.94l36.05,0.37l0.18,2.94c-11.04,2.94-9.38,0.18-9.56,13.43l-0.37,57.94
		C496.89,487.35,502.04,488.08,505.9,489.19z M576.16,452.21c-8.28,6.81-20.6,7.91-32.74,6.07c-0.37,33.84-2.76,27.59,9.93,31.45
		v2.94l-36.79-0.55l-0.37-2.76c11.22-2.94,9.56,0,9.56-15.45l0.55-55.92c0-2.39-4.23-2.76-9.2-4.23v-2.94
		c18.39,0.55,48.01-2.21,59.78,5.7C588.85,424.81,586.28,443.94,576.16,452.21z"/>
	<path d="M419.82,415.06l-6.44,0.37l-0.37,32.92c13.06,0.74,21.52-0.92,21.7-16.74C434.9,420.76,430.67,415.06,419.82,415.06z"/>
	<path d="M550.41,416.53c-2.21-0.18-4.41,0-6.44,0.37l-0.55,35.87c28.14,5.52,23.91-25.38,18.76-31.64
		C559.79,418,555.74,416.53,550.41,416.53z"/>
</g>
</svg>
