<?xml version="1.0" encoding="utf-8"?>
<!-- Generator: Adobe Illustrator 24.1.2, SVG Export Plug-In . SVG Version: 6.00 Build 0)  -->
<svg version="1.1" id="Layer_1" xmlns="http://www.w3.org/2000/svg" xmlns:xlink="http://www.w3.org/1999/xlink" x="0px" y="0px"
	 viewBox="0 0 810 810" style="enable-background:new 0 0 810 810;" xml:space="preserve">
<path d="M662.47,760.03h-20.56c0-20.19-16.67-17.6-29.27-17.6c-1.11-35.19,4.63-82.61,5.93-102.43
	c4.26-73.72,17.41-160.59-24.45-221.53L476.68,244.91h-51.86V122.47h73.54V82.83h-73.54V4.67h-39.64v78.17h-73.54v39.64h73.54
	v122.44h-52.23c0,0-125.21,180.41-125.58,180.97c-25.75,54.83-21.49,134.29-20.19,195.79c0.93,40.19-0.37,81.13,5.93,120.77
	c-10.93,0-25.01-1.11-25.01,17.6h-20.56c-10.93,0-19.63,8.89-19.63,19.63v25.01h554.2v-25.01
	C682.1,768.92,673.4,760.03,662.47,760.03L662.47,760.03z"/>
</svg>
