<?xml version="1.0" encoding="utf-8"?>
<!-- Generator: Adobe Illustrator 24.1.2, SVG Export Plug-In . SVG Version: 6.00 Build 0)  -->
<svg version="1.1" id="Layer_1" xmlns="http://www.w3.org/2000/svg" xmlns:xlink="http://www.w3.org/1999/xlink" x="0px" y="0px"
	 viewBox="0 0 810 810" style="enable-background:new 0 0 810 810;" xml:space="preserve">
<g>
	<path d="M410.68,463.29c-9.67-1.67-19.85-20.18-30.02-32.52c21.51-9.34,17.51-30.35,6.84-36.19c-11.01-5.84-28.52-1.67-41.53-0.33
		c-5.5,0.5-10.67,0.83-16.01,1.17l0.5,2.83c10.67,2.17,9.01-0.5,10.17,12.51l5,55.2c0,2.17-4.84,3.17-8.67,4.67l0.67,2.67l32.52-3
		l-0.33-2.67c-8.67-2-7.17,0.67-8.67-14.18l-1.67-18.51c6.17-0.5,6.17,0.83,13.84,12.01c13.51,19.68,15.18,25.68,40.53,19.51
		l-0.5-2.84C412.35,463.62,411.52,463.46,410.68,463.29z M375.49,424.6c-3.5,4.67-10.01,5.17-16.51,5.5l-2.84-31.52
		C385.67,392.25,378,421.43,375.49,424.6z"/>
	<path d="M444.87,458.62c-3.17-0.5-2.67-6.84-3.34-12.67l-4.84-53.87c0-2,4.67-3,8.51-4.5l-0.5-2.84l-34.52,3.34l0.5,2.67
		c10.67,2.17,8.84-0.33,10.17,12.51l5,55.37c0,2-4.84,3.17-8.67,4.5l0.67,2.84l34.36-3.17l-0.33-2.84L444.87,458.62z"/>
	<path d="M512.42,383.57c-12.01-6.5-40.03-0.83-57.7,0.33l0.33,2.84c10.84,2,9.01-0.5,10.17,12.34l5,55.37
		c0.17,2-4.84,3.17-8.51,4.5l0.5,2.84l35.36-3.34l-0.5-2.67c-12.34-2.33-9.51,3.34-12.51-29.02
		C528.09,428.44,527.93,391.91,512.42,383.57z M501.08,415.93c-3.67,5.17-10.51,6-17.01,5.5l-3.17-34.36
		C509.91,380.07,504.58,411.09,501.08,415.93z"/>
	<path d="M706.21,695.44c-13.34-9.17-28.35-9.51-42.53-4.84c1.67-19.35-3.84-38.86,0.17-58.37c0.83-4.34-2.84-8.84-7.5-7.5
		c-21.68,6.5-37.69,20.01-47.2,39.36c-10.51-25.52,17.51-60.21-0.33-62.04c-9.01-0.83-16.84,0.67-23.85,3.84
		c6.67-50.37,10.84-101.23,11.84-152.1c0.83-37.86-2.67-76.05-1.17-113.91c0.5-9.51,5.34-23.51,1.17-32.52
		c-4.34-9.84-10.51-5.84-18.68-8.51c-35.69-11.51-17.68-36.52-47.03-82.22c-8.67-13.68-19.85-25.68-33.02-34.69
		c-20.01-24.52-60.54-37.19-91.73-39.53V110.9h66.38V74.88h-66.38V4.5h-35.86v70.38h-66.21v36.02h66.21v32.02
		c-48.36,4.34-127.92,28.69-152.76,72.55c-5.34,9.34-7.17,20.01-9.34,30.52c-1.33,5.84-4.17,14.18-4.67,21.68
		c-15.68-0.33-29.69,3.5-43.69,11.51c-1.83,1-3.17,3.17-3,5.17c11.17,134.75-16.18,271.34,10.01,404.76
		c-20.18-15.51-43.36-26.52-69.21-32.19c-4.17-1-9.34,2.84-7.5,7.51c13.68,34.69,17.34,69.04,15.34,106.07
		c-1,19.35,5.67,31.85,26.02,33.69c29.19,2.67,63.21-12.01,91.23-18.68c37.52-9.01,75.55-17.01,112.74-27.52
		c14.51-4.17,28.52-12.67,42.86-16.51c33.52-9.01,57.7,31.52,133.75,0.33c21.18-8.67,37.86-15.51,60.87-10.34
		c14.18,3.17,27.35,9.17,42.03,10.67c32.85,3,63.21-15.01,96.23-13.18C719.55,729.46,726.05,709.28,706.21,695.44z M500.74,199.29
		c2.67,2.5,5.34,5,7.84,7.84c-6.84,22.68-9.01,41.03-25.18,56.7C490.74,242.82,496.41,221.3,500.74,199.29z M253.58,444.95
		c9.17-8.84,20.01-18.18,24.68-30.02c2.67-7,0.67-20.85,12.51-31.35c-1.5,40.53-4.5,46.53-37.02,67.88
		C253.75,449.28,253.58,447.11,253.58,444.95z M571.62,614.72c-5.34,4.67-10.01,10.51-14.18,16.68
		c-2.5-14.34-8.67-27.35-19.01-39.36c-3.17-3.84-10.84-0.83-10.34,4.34c2.33,21.51-14.34,35.69-26.18,52.03
		c-6-21.68,4.84-42.86,15.68-62.54c2.67-4.84-1.83-9.84-7-8.84c-30.69,6-38.02,18.01-46.86,48.2c-6-8.84-14.84-16.01-22.35-22.68
		c-3.84-3.34-10.51-1.17-10.34,4.34c0,14.84-1.83,29.35-1.17,44.19c0.5,8.84,2.17,19.35,0.33,28.35
		c-5.5-18.68-17.01-35.36-19.51-55.2c-0.67-5.34-8.34-9.01-11.34-3c-6.17,11.51-11.51,23.68-17.01,35.52
		c-7.17-26.85-9.51-54.03,0-81.22c1.5-4.17-3.17-9.17-7.5-7.5c-17.18,6.67-32.35,20.01-36.02,38.86
		c-3.67,20.18,6.84,47.03,5.34,69.04c-7.5-18.34-18.51-34.52-33.19-48.7c-3.34-3.34-8.67-1.67-10.17,2.67
		c-6.67,20.01,2.5,40.86-19.35,70.71c-12.01-24.68-3.17-51.53,6-76.72c1.83-4.67-4.67-10.01-9.01-6.84
		c-9.51,7.17-17.84,15.34-24.52,24.52c2.67-58.7,2.67-117.24,0.5-175.78c13.68-9.51,32.35-19.85,39.69-33.52
		c8.84-16.18,8.34-42.69,9.51-60.71c0.33-4.67-5.5-7.34-9.17-5.34c-10.17,5.84-22.35,9.51-24.85,22.01
		c-3.84,19.35,1.17,22.35-16.84,40.53c-1.83-32.69-4.17-65.21-7.17-97.73c8.84-0.5,17.84-1,26.68-1.5c3.34-0.17,6-2.67,6.17-6
		c4.34-106.4,137.59-181.62,211.47-132.58c-5.5,30.85-14.18,60.71-25.85,89.89c-2,4.84,4.84,9.84,9.01,6.84
		c31.85-22.85,34.36-30.35,44.86-68.88c30.35,43.69,16.01,79.72,44.86,91.22c4.67,1.83,11.51-0.5,15.34,1
		c11.01,4.5,7.17,7.34,6.17,17.34c-2.33,22.51,0.5,65.54,0.67,90.22C585.3,484.31,580.63,549.85,571.62,614.72z"/>
</g>
</svg>
