<?xml version="1.0" encoding="utf-8"?>
<!-- Generator: Adobe Illustrator 24.1.2, SVG Export Plug-In . SVG Version: 6.00 Build 0)  -->
<svg version="1.1" id="Layer_1" xmlns="http://www.w3.org/2000/svg" xmlns:xlink="http://www.w3.org/1999/xlink" x="0px" y="0px"
	 viewBox="0 0 810 810" style="enable-background:new 0 0 810 810;" xml:space="preserve">
<g>
	<path d="M255.41,345.97c-3.15-2-7.44-0.57-10.87,1.14l6.72,19.88C267.71,364.7,259.56,348.4,255.41,345.97z"/>
	<path d="M182.91,370.14c-3.29-1.72-7.15-0.29-10.58,1.29l6.15,18.3c7.15-2.15,11.73-4.58,8.72-13.44
		C186.2,373.14,184.63,370.99,182.91,370.14z"/>
	<path d="M798.53,420.62c-6.72-3.15-16.16,1.72-20.88,8.15c-0.86,0.14-1.86,0.29-2.86,0.57c-8.58,2.57-15.3,10.3-24.17,13.01
		c-6.01,1.86-27.74-4.15-24.31-5.43c6.01-2.43,17.02-0.57,23.6-2.15c13.73-3.29,37.9-14.16,40.61-29.6
		c24.74-8.44,8.29-36.04-11.44-18.16c-1-0.29-2.15-0.43-3.29-0.43c-19.88-0.71-27.46,35.46-48.91,27.03
		c-4.29-1.72-14.01-3.86-10.15-12.3c0.57-1.14,7.87-2.72,9.58-3.43c13.16-5.29,31.6-16.3,37.9-30.17
		c14.44-1.43,18.16-12.87,11.87-19.3c-4.72-5.01-13.73-4.58-20.45-1.14c-2.29-0.57-4.72-0.71-7.15-0.43
		c-6.58,1-36.61,18.45-40.04,23.31c-4.86,9.15-8.58,5.58-11.01-10.72c0.57-5.43,26.88-4.43,34.32-15.59
		c13.73-1,18.59-16.73-1.29-26.6c-6.72-3.43-14.16-3-18.59,2.72c-7.44,0.57-13.73,5.86-22.16,10.15
		c-6.86,3.58-10.01,3.58-13.87,10.3c-1.72,3-1.43,7.01-2.86,10.01c-7.29,14.73-9.58,8.01-18.73,14.87
		c-3.29,2.29-5.01,5.01-6.01,7.87c-2.29-2.43-5.01-4.58-8.01-6.43c2.29-4,1.14-7.15-1.72-9.58c7.87-2.57,15.59-7.29,17.88-13.59
		c14.59-6.01,14.01-27.17-11.73-23.74c-6.29,0.86-11.58,4.15-13.3,9.58c-10.58,2-21.16,6.15-24.45,9.72
		c-9.72,10.3,4,18.3,1.86,25.88c-0.57,1.86-4.58,3.86-5.86,6.15c-10.87,18.88,28.46,42.04-15.87,93.52
		c-6.15,6.86-22.02,19.59-28.31,32.03c-4.15-2-9.87-0.57-10.01,5.15c-0.57,21.45-18.88,34.32-34.46,48.33
		c-1.72,0.29-3.58,0.57-5.29,0.71c-0.86-24.02,15.59-45.19,30.46-63.92c3-3.72,0.29-11.01-5.01-10.87
		c-37.61,0.57-47.33,13.01-63.06,45.05c-4.43-9.44-11.3-18.16-17.73-26.17c13.44-56.2,26.74-112.54,40.04-168.88l54.2,12.58
		c2.86,0.86,5.86-0.14,6.72-3.86c4.29-18.02,8.58-36.04,12.73-54.05c0.72-3,0-7.44-3.72-8.29c-18.02-4.29-36.18-8.58-54.2-12.87
		l20.16-85.23c0.57-2.14,0-5.29-2.72-6.01c-20.02-4.72-40.04-9.44-59.92-14.16c-2.29-0.57-5.43,0-6.01,2.72
		c-6.86,28.74-13.73,57.63-20.45,86.37c-19.16-4.58-38.47-9.01-57.63-13.59c-3-0.71-7.44,0-8.29,3.72
		c-4.29,18.02-8.58,36.04-12.73,53.91c-0.72,3.15,0,7.44,3.72,8.44c19.73,4.58,39.47,9.3,59.2,14.01
		c-15.02,63.06-29.89,126.13-44.9,189.19c-3.72-1.86-7.58-3.29-11.3-4.72c-0.14-19.73,2.72-39.18,12.16-55.91
		c2.57-4.72-0.43-12.58-6.86-10.87c-18.45,4.58-29.46,22.17-36.04,39.47c-8.01-18.88-13.44-39.33-19.88-58.77
		c-13.16-40.04-26.03-80.37-41.76-119.55c-11.73-29.32-23.88-52.34-47.48-73.79c-37.32-33.89-116.26-12.58-123.55,66.5
		c-4.29,47.48,19.45,92.24,37.9,134.28c12.73,29.17,25.6,58.49,38.47,87.66c-5.58-5.15-11.73-9.72-18.73-13.44
		c-6.15-3.43-12.58,1.72-10.3,8.58c8.15,23.31,8.15,46.9,1,69.5c-0.43,0.14-0.86,0.29-1.29,0.43
		c-18.02-35.32-44.47-64.78-77.79-86.8c-6.15-4.15-15.02,4.29-9.29,10.01c14.59,14.73,13.87,71.64,10.72,92.09
		c-1.29,8.29-0.14,17.45-7.29,20.45c-10.44,2.29-20.59-18.45-22.74-24.6c-7.72-21.31-6.15-47.19-18.88-41.33
		C2.73,549.17,0.59,571.2,8.59,595.22c5.15,15.3,14.16,24.02,27.31,32.75c-5.43,4.58-12.73,10.15-16.87,15.87
		c-2.86,2.29-2.43,8.01,2.14,8.29c104.1,6.58,208.21-1.29,312.31-2.86c69.07-0.86,160.02,7.44,224.65-1.29
		c28.46-3.86,56.06-10.44,85.09-7.86c1.14,0.14,2.29-0.29,3.15-0.86c27.74,0.29,38.04-50.34,47.76-71.64
		c2.29-5.15-2.86-9.87-7.72-9.29c-25.17,2.57-45.9,15.02-60.06,34.61c-6.43-27.46,29.46-64.35,13.01-69.07
		c-5.58-1.72-10.87-2.29-16.02-2.29c3.15-4.15,6.29-8.15,9.44-12.16c7.72-9.58,22.74-20.74,23.74-32.46
		c28.74,15.44,48.48-9.3,58.49-12.44c11.44-3.72,22.45,6.86,35.04,2.86c7.01-2.29,9.58-5.29,17.16-6.29
		c5.15-0.72,21.88,1.57,24.02-17.16C807.4,438.92,807.25,424.76,798.53,420.62z M208.94,406.46c-10.01,3.29-12.73-3.43-25.6-13.87
		l-3.86-0.14c0.29,0.86,5.29,18.02,6.86,18.02l3.72-0.14l0.72,1.57l-18.88,6.43l-0.71-1.57c5.72-3.86,5.29-1.86,2.29-10.3
		c-0.57-1.86-9.44-31.89-11.58-31.75l-4.72,0.14l-0.72-1.57c14.73-4.43,35.89-16.02,40.76-1.86c2.14,6.58-0.29,11.44-5.86,15.59
		c10.44,7.87,16.16,16.02,24.02,14.87l0.57,1.72C213.94,404.6,211.65,405.46,208.94,406.46z M228.24,399.17
		c-3.72,1.29-7.01,2.43-10.01,3.43l-0.72-1.57c5.72-3.72,5.29-1.72,2.43-10.3c-0.57-1.72-9.58-31.75-11.73-31.75l-4.72,0.29
		l-0.57-1.57l19.88-6.86l0.72,1.72c-5.58,3.72-5.15,1.86-2.72,9.15l11.01,32.03l5.72,0.57l0.72,1.57
		C235.25,396.88,231.82,397.88,228.24,399.17z M269.14,360.41c-3.29,5.29-9.87,8.29-16.87,9.58c6.29,18.73,3.86,15.87,11.44,15.44
		l0.72,1.57l-20.45,6.86l-0.71-1.43c5.58-3.86,5.29-1.86,2.29-10.44c-0.57-1.72-9.44-31.75-11.58-31.6l-4.72,0.14l-0.72-1.57
		c15.44-4.72,36.32-16.45,41.61-1C271.71,352.69,271.29,356.84,269.14,360.41z"/>
</g>
</svg>
